<?xml version="1.0" encoding="UTF-8" standalone="no"?>
<svg xmlns="http://www.w3.org/2000/svg" xmlns:xlink="http://www.w3.org/1999/xlink" contentScriptType="application/ecmascript" contentStyleType="text/css" height="432px" preserveAspectRatio="none" style="width:473px;height:432px;background:#FFFFFF;" version="1.1" viewBox="0 0 473 432" width="473px" zoomAndPan="magnify"><defs/><g><!--MD5=[88dbb0a63bb3c138d97a6fe7989da878]
class osd_renderer--><rect codeLine="10" fill="#F5F5F5" height="124.8281" id="osd_renderer" style="stroke:#000000;stroke-width:1.5;" width="459" x="7" y="7"/><ellipse cx="190.75" cy="23" fill="#ADD1B2" rx="11" ry="11" style="stroke:#000000;stroke-width:1.0;"/><path d="M193.0938,18.6719 C192.1563,18.2344 191.5625,18.0938 190.6875,18.0938 C188.0625,18.0938 186.0625,20.1719 186.0625,22.8906 L186.0625,24.0156 C186.0625,26.5938 188.1719,28.4844 191.0625,28.4844 C192.2813,28.4844 193.4375,28.1875 194.1875,27.6406 C194.7656,27.2344 195.0938,26.7813 195.0938,26.3906 C195.0938,25.9375 194.7031,25.5469 194.2344,25.5469 C194.0156,25.5469 193.8125,25.625 193.625,25.8125 C193.1719,26.2969 193.1719,26.2969 192.9844,26.3906 C192.5625,26.6563 191.875,26.7813 191.1094,26.7813 C189.0625,26.7813 187.7656,25.6875 187.7656,23.9844 L187.7656,22.8906 C187.7656,21.1094 189.0156,19.7969 190.75,19.7969 C191.3281,19.7969 191.9375,19.9531 192.4063,20.2031 C192.8906,20.4844 193.0625,20.7031 193.1563,21.1094 C193.2188,21.5156 193.25,21.6406 193.3906,21.7656 C193.5313,21.9063 193.7656,22.0156 193.9844,22.0156 C194.25,22.0156 194.5156,21.875 194.6875,21.6563 C194.7969,21.5 194.8281,21.3125 194.8281,20.8906 L194.8281,19.4688 C194.8281,19.0313 194.8125,18.9063 194.7188,18.75 C194.5625,18.4844 194.2813,18.3438 193.9844,18.3438 C193.6875,18.3438 193.4844,18.4375 193.2656,18.75 L193.0938,18.6719 Z " fill="#000000"/><text fill="#000000" font-family="sans-serif" font-size="12" lengthAdjust="spacing" textLength="83" x="211.25" y="27.1543">osd_renderer</text><line style="stroke:#000000;stroke-width:1.5;" x1="8" x2="465" y1="39" y2="39"/><rect fill="none" height="6" style="stroke:#C82930;stroke-width:1.0;" width="6" x="15" y="47"/><text fill="#000000" font-family="sans-serif" font-size="11" lengthAdjust="spacing" textLength="135" x="27" y="53.2104">osd_window  m_window</text><line style="stroke:#000000;stroke-width:1.5;" x1="8" x2="465" y1="59.8047" y2="59.8047"/><ellipse cx="18" cy="70.8047" fill="#84BE84" rx="3" ry="3" style="stroke:#038048;stroke-width:1.0;"/><text fill="#000000" font-family="sans-serif" font-size="11" lengthAdjust="spacing" textLength="163" x="27" y="74.0151">osd_window assert_window()</text><ellipse cx="18" cy="83.6094" fill="#84BE84" rx="3" ry="3" style="stroke:#038048;stroke-width:1.0;"/><text fill="#000000" font-family="sans-serif" font-size="11" font-style="italic" lengthAdjust="spacing" textLength="62" x="27" y="86.8198">int create()</text><ellipse cx="18" cy="96.4141" fill="#84BE84" rx="3" ry="3" style="stroke:#038048;stroke-width:1.0;"/><text fill="#000000" font-family="sans-serif" font-size="11" font-style="italic" lengthAdjust="spacing" textLength="208" x="27" y="99.6245">render_primitive_list get_primitives()</text><ellipse cx="18" cy="109.2188" fill="#84BE84" rx="3" ry="3" style="stroke:#038048;stroke-width:1.0;"/><text fill="#000000" font-family="sans-serif" font-size="11" font-style="italic" lengthAdjust="spacing" textLength="145" x="27" y="112.4292">int draw(const int update)</text><ellipse cx="18" cy="122.0234" fill="#84BE84" rx="3" ry="3" style="stroke:#038048;stroke-width:1.0;"/><text fill="#000000" font-family="sans-serif" font-size="11" lengthAdjust="spacing" text-decoration="underline" textLength="433" x="27" y="125.2339">osd_renderer make_for_type(int mode, osd_window window, int extra_flags)</text><!--MD5=[cac353306241a567ca72fcdbb9cb5eee]
class renderer_sdl2--><rect codeLine="19" fill="#F5F5F5" height="124.8281" id="renderer_sdl2" style="stroke:#000000;stroke-width:1.5;" width="235" x="119" y="192"/><ellipse cx="189.25" cy="208" fill="#ADD1B2" rx="11" ry="11" style="stroke:#000000;stroke-width:1.0;"/><path d="M191.5937,203.6719 C190.6562,203.2344 190.0625,203.0938 189.1875,203.0938 C186.5625,203.0938 184.5625,205.1719 184.5625,207.8906 L184.5625,209.0156 C184.5625,211.5938 186.6719,213.4844 189.5625,213.4844 C190.7812,213.4844 191.9375,213.1875 192.6875,212.6406 C193.2656,212.2344 193.5937,211.7813 193.5937,211.3906 C193.5937,210.9375 193.2031,210.5469 192.7344,210.5469 C192.5156,210.5469 192.3125,210.625 192.125,210.8125 C191.6719,211.2969 191.6719,211.2969 191.4844,211.3906 C191.0625,211.6563 190.375,211.7813 189.6094,211.7813 C187.5625,211.7813 186.2656,210.6875 186.2656,208.9844 L186.2656,207.8906 C186.2656,206.1094 187.5156,204.7969 189.25,204.7969 C189.8281,204.7969 190.4375,204.9531 190.9062,205.2031 C191.3906,205.4844 191.5625,205.7031 191.6562,206.1094 C191.7187,206.5156 191.75,206.6406 191.8906,206.7656 C192.0312,206.9063 192.2656,207.0156 192.4844,207.0156 C192.75,207.0156 193.0156,206.875 193.1875,206.6563 C193.2969,206.5 193.3281,206.3125 193.3281,205.8906 L193.3281,204.4688 C193.3281,204.0313 193.3125,203.9063 193.2187,203.75 C193.0625,203.4844 192.7812,203.3438 192.4844,203.3438 C192.1875,203.3438 191.9844,203.4375 191.7656,203.75 L191.5937,203.6719 Z " fill="#000000"/><text fill="#000000" font-family="sans-serif" font-size="12" lengthAdjust="spacing" textLength="86" x="209.75" y="212.1543">renderer_sdl2</text><line style="stroke:#000000;stroke-width:1.5;" x1="120" x2="353" y1="224" y2="224"/><rect fill="none" height="6" style="stroke:#C82930;stroke-width:1.0;" width="6" x="127" y="232"/><text fill="#000000" font-family="sans-serif" font-size="11" lengthAdjust="spacing" textLength="158" x="139" y="238.2104">SDL_Renderer sdl_renderer</text><line style="stroke:#000000;stroke-width:1.5;" x1="120" x2="353" y1="244.8047" y2="244.8047"/><ellipse cx="130" cy="255.8047" fill="#84BE84" rx="3" ry="3" style="stroke:#038048;stroke-width:1.0;"/><text fill="#000000" font-family="sans-serif" font-size="11" lengthAdjust="spacing" textLength="63" x="139" y="259.0151">int create()</text><ellipse cx="130" cy="268.6094" fill="#84BE84" rx="3" ry="3" style="stroke:#038048;stroke-width:1.0;"/><text fill="#000000" font-family="sans-serif" font-size="11" lengthAdjust="spacing" textLength="209" x="139" y="271.8198">render_primitive_list get_primitives()</text><ellipse cx="130" cy="281.4141" fill="#84BE84" rx="3" ry="3" style="stroke:#038048;stroke-width:1.0;"/><text fill="#000000" font-family="sans-serif" font-size="11" lengthAdjust="spacing" textLength="145" x="139" y="284.6245">int draw(const int update)</text><ellipse cx="130" cy="294.2188" fill="#84BE84" rx="3" ry="3" style="stroke:#038048;stroke-width:1.0;"/><text fill="#000000" font-family="sans-serif" font-size="11" lengthAdjust="spacing" text-decoration="underline" textLength="203" x="139" y="297.4292">void init(running_machine machine)</text><ellipse cx="130" cy="307.0234" fill="#84BE84" rx="3" ry="3" style="stroke:#038048;stroke-width:1.0;"/><text fill="#000000" font-family="sans-serif" font-size="11" lengthAdjust="spacing" text-decoration="underline" textLength="58" x="139" y="310.2339">void exit()</text><!--MD5=[69a7ee1b5d99870f7895004edce15057]
class SDL_Renderer--><rect fill="#F5F5F5" height="48" id="SDL_Renderer" style="stroke:#000000;stroke-width:1.5;" width="117" x="178" y="377"/><ellipse cx="193" cy="393" fill="#ADD1B2" rx="11" ry="11" style="stroke:#000000;stroke-width:1.0;"/><path d="M195.3437,388.6719 C194.4062,388.2344 193.8125,388.0938 192.9375,388.0938 C190.3125,388.0938 188.3125,390.1719 188.3125,392.8906 L188.3125,394.0156 C188.3125,396.5938 190.4219,398.4844 193.3125,398.4844 C194.5312,398.4844 195.6875,398.1875 196.4375,397.6406 C197.0156,397.2344 197.3437,396.7813 197.3437,396.3906 C197.3437,395.9375 196.9531,395.5469 196.4844,395.5469 C196.2656,395.5469 196.0625,395.625 195.875,395.8125 C195.4219,396.2969 195.4219,396.2969 195.2344,396.3906 C194.8125,396.6563 194.125,396.7813 193.3594,396.7813 C191.3125,396.7813 190.0156,395.6875 190.0156,393.9844 L190.0156,392.8906 C190.0156,391.1094 191.2656,389.7969 193,389.7969 C193.5781,389.7969 194.1875,389.9531 194.6562,390.2031 C195.1406,390.4844 195.3125,390.7031 195.4062,391.1094 C195.4687,391.5156 195.5,391.6406 195.6406,391.7656 C195.7812,391.9063 196.0156,392.0156 196.2344,392.0156 C196.5,392.0156 196.7656,391.875 196.9375,391.6563 C197.0469,391.5 197.0781,391.3125 197.0781,390.8906 L197.0781,389.4688 C197.0781,389.0313 197.0625,388.9063 196.9687,388.75 C196.8125,388.4844 196.5312,388.3438 196.2344,388.3438 C195.9375,388.3438 195.7344,388.4375 195.5156,388.75 L195.3437,388.6719 Z " fill="#000000"/><text fill="#000000" font-family="sans-serif" font-size="12" lengthAdjust="spacing" textLength="85" x="207" y="397.1543">SDL_Renderer</text><line style="stroke:#000000;stroke-width:1.5;" x1="179" x2="294" y1="409" y2="409"/><line style="stroke:#000000;stroke-width:1.5;" x1="179" x2="294" y1="417" y2="417"/><!--MD5=[3495575551e38f818e7d7313fe052b96]
reverse link osd_renderer to renderer_sdl2--><path d="M236.5,152.133 C236.5,152.133 236.5,191.932 236.5,191.932 " fill="none" id="osd_renderer-backto-renderer_sdl2" style="stroke:#000000;stroke-width:1.0;"/><polygon fill="none" points="229.5,152.133,236.5,132.133,243.5,152.133,229.5,152.133" style="stroke:#000000;stroke-width:1.0;"/><!--MD5=[c09426efe95c23c59e71dd9238351205]
link renderer_sdl2 to SDL_Renderer--><path codeLine="29" d="M236.5,317.054 C236.5,338.2076 236.5,360.5772 236.5,376.9008 " fill="none" id="renderer_sdl2-SDL_Renderer" style="stroke:#000000;stroke-width:1.0;"/><!--MD5=[9a5e278b157cbf507cc27da70f034d41]
@startuml
skinparam Shadowing false
skinparam LineType ortho
skinparam ArrowColor black

skinparam class {
    BackgroundColor WhiteSmoke
    BorderColor black
}

class osd_renderer {
	-osd_window  m_window
	+osd_window assert_window()
	{abstract} +int create()
	{abstract} +render_primitive_list get_primitives()
	{abstract} +int draw(const int update)
	{static} +osd_renderer make_for_type(int mode, osd_window window, int extra_flags)
}

class renderer_sdl2 extends osd_renderer {
	-SDL_Renderer sdl_renderer
	
	+int create()
	+render_primitive_list get_primitives()    
	+int draw(const int update)
	{static} +void init(running_machine machine)
	{static} +void exit()
}

renderer_sdl2 - - SDL_Renderer
@enduml

PlantUML version 1.2021.7beta4(Unknown compile time)
(GPL source distribution)
Java Runtime: Java(TM) SE Runtime Environment
JVM: Java HotSpot(TM) 64-Bit Server VM
Default Encoding: UTF-8
Language: en
Country: US
--></g></svg>