<?xml version="1.0" encoding="UTF-8" standalone="no"?>
<svg xmlns="http://www.w3.org/2000/svg" xmlns:xlink="http://www.w3.org/1999/xlink" contentScriptType="application/ecmascript" contentStyleType="text/css" height="138px" preserveAspectRatio="none" style="width:1525px;height:138px;background:#FFFFFF;" version="1.1" viewBox="0 0 1525 138" width="1525px" zoomAndPan="magnify"><defs/><g><!--MD5=[ab0d57698b0283a6c4146711f94c8adb]
cluster SDL--><polygon fill="#FFFFFF" points="1358.5,10.5,1394.5,10.5,1401.5,32.7969,1508.5,32.7969,1508.5,109.5,1358.5,109.5,1358.5,10.5" style="stroke:#000000;stroke-width:1.5;"/><line style="stroke:#000000;stroke-width:1.5;" x1="1358.5" x2="1401.5" y1="32.7969" y2="32.7969"/><text fill="#000000" font-family="sans-serif" font-size="14" font-weight="bold" lengthAdjust="spacing" textLength="30" x="1362.5" y="25.4951">SDL</text><!--MD5=[69a7ee1b5d99870f7895004edce15057]
class SDL_Renderer--><rect codeLine="53" fill="#F5F5F5" height="48" id="SDL_Renderer" style="stroke:#000000;stroke-width:1.5;" width="117" x="1375" y="45.5"/><ellipse cx="1390" cy="61.5" fill="#ADD1B2" rx="11" ry="11" style="stroke:#000000;stroke-width:1.0;"/><path d="M1392.3438,57.1719 C1391.4063,56.7344 1390.8125,56.5938 1389.9375,56.5938 C1387.3125,56.5938 1385.3125,58.6719 1385.3125,61.3906 L1385.3125,62.5156 C1385.3125,65.0938 1387.4219,66.9844 1390.3125,66.9844 C1391.5313,66.9844 1392.6875,66.6875 1393.4375,66.1406 C1394.0156,65.7344 1394.3438,65.2813 1394.3438,64.8906 C1394.3438,64.4375 1393.9531,64.0469 1393.4844,64.0469 C1393.2656,64.0469 1393.0625,64.125 1392.875,64.3125 C1392.4219,64.7969 1392.4219,64.7969 1392.2344,64.8906 C1391.8125,65.1563 1391.125,65.2813 1390.3594,65.2813 C1388.3125,65.2813 1387.0156,64.1875 1387.0156,62.4844 L1387.0156,61.3906 C1387.0156,59.6094 1388.2656,58.2969 1390,58.2969 C1390.5781,58.2969 1391.1875,58.4531 1391.6563,58.7031 C1392.1406,58.9844 1392.3125,59.2031 1392.4063,59.6094 C1392.4688,60.0156 1392.5,60.1406 1392.6406,60.2656 C1392.7813,60.4063 1393.0156,60.5156 1393.2344,60.5156 C1393.5,60.5156 1393.7656,60.375 1393.9375,60.1563 C1394.0469,60 1394.0781,59.8125 1394.0781,59.3906 L1394.0781,57.9688 C1394.0781,57.5313 1394.0625,57.4063 1393.9688,57.25 C1393.8125,56.9844 1393.5313,56.8438 1393.2344,56.8438 C1392.9375,56.8438 1392.7344,56.9375 1392.5156,57.25 L1392.3438,57.1719 Z " fill="#000000"/><text fill="#000000" font-family="sans-serif" font-size="12" lengthAdjust="spacing" textLength="85" x="1404" y="65.6543">SDL_Renderer</text><line style="stroke:#000000;stroke-width:1.5;" x1="1376" x2="1491" y1="77.5" y2="77.5"/><line style="stroke:#000000;stroke-width:1.5;" x1="1376" x2="1491" y1="85.5" y2="85.5"/><!--MD5=[cac353306241a567ca72fcdbb9cb5eee]
class renderer_sdl2--><rect codeLine="10" fill="#F5F5F5" height="124.8281" id="renderer_sdl2" style="stroke:#000000;stroke-width:1.5;" width="229" x="1111" y="7"/><ellipse cx="1178.25" cy="23" fill="#ADD1B2" rx="11" ry="11" style="stroke:#000000;stroke-width:1.0;"/><path d="M1180.5938,18.6719 C1179.6563,18.2344 1179.0625,18.0938 1178.1875,18.0938 C1175.5625,18.0938 1173.5625,20.1719 1173.5625,22.8906 L1173.5625,24.0156 C1173.5625,26.5938 1175.6719,28.4844 1178.5625,28.4844 C1179.7813,28.4844 1180.9375,28.1875 1181.6875,27.6406 C1182.2656,27.2344 1182.5938,26.7813 1182.5938,26.3906 C1182.5938,25.9375 1182.2031,25.5469 1181.7344,25.5469 C1181.5156,25.5469 1181.3125,25.625 1181.125,25.8125 C1180.6719,26.2969 1180.6719,26.2969 1180.4844,26.3906 C1180.0625,26.6563 1179.375,26.7813 1178.6094,26.7813 C1176.5625,26.7813 1175.2656,25.6875 1175.2656,23.9844 L1175.2656,22.8906 C1175.2656,21.1094 1176.5156,19.7969 1178.25,19.7969 C1178.8281,19.7969 1179.4375,19.9531 1179.9063,20.2031 C1180.3906,20.4844 1180.5625,20.7031 1180.6563,21.1094 C1180.7188,21.5156 1180.75,21.6406 1180.8906,21.7656 C1181.0313,21.9063 1181.2656,22.0156 1181.4844,22.0156 C1181.75,22.0156 1182.0156,21.875 1182.1875,21.6563 C1182.2969,21.5 1182.3281,21.3125 1182.3281,20.8906 L1182.3281,19.4688 C1182.3281,19.0313 1182.3125,18.9063 1182.2188,18.75 C1182.0625,18.4844 1181.7813,18.3438 1181.4844,18.3438 C1181.1875,18.3438 1180.9844,18.4375 1180.7656,18.75 L1180.5938,18.6719 Z " fill="#000000"/><text fill="#000000" font-family="sans-serif" font-size="12" lengthAdjust="spacing" textLength="86" x="1198.75" y="27.1543">renderer_sdl2</text><line style="stroke:#000000;stroke-width:1.5;" x1="1112" x2="1339" y1="39" y2="39"/><rect fill="none" height="6" style="stroke:#C82930;stroke-width:1.0;" width="6" x="1119" y="47"/><text fill="#000000" font-family="sans-serif" font-size="11" lengthAdjust="spacing" textLength="158" x="1131" y="53.2104">SDL_Renderer sdl_renderer</text><line style="stroke:#000000;stroke-width:1.5;" x1="1112" x2="1339" y1="59.8047" y2="59.8047"/><ellipse cx="1122" cy="70.8047" fill="#84BE84" rx="3" ry="3" style="stroke:#038048;stroke-width:1.0;"/><text fill="#000000" font-family="sans-serif" font-size="11" lengthAdjust="spacing" textLength="63" x="1131" y="74.0151">int create()</text><ellipse cx="1122" cy="83.6094" fill="#84BE84" rx="3" ry="3" style="stroke:#038048;stroke-width:1.0;"/><text fill="#000000" font-family="sans-serif" font-size="11" lengthAdjust="spacing" textLength="195" x="1131" y="86.8198">render_primitive[] get_primitives()</text><ellipse cx="1122" cy="96.4141" fill="#84BE84" rx="3" ry="3" style="stroke:#038048;stroke-width:1.0;"/><text fill="#000000" font-family="sans-serif" font-size="11" lengthAdjust="spacing" textLength="145" x="1131" y="99.6245">int draw(const int update)</text><ellipse cx="1122" cy="109.2188" fill="#84BE84" rx="3" ry="3" style="stroke:#038048;stroke-width:1.0;"/><text fill="#000000" font-family="sans-serif" font-size="11" lengthAdjust="spacing" text-decoration="underline" textLength="203" x="1131" y="112.4292">void init(running_machine machine)</text><ellipse cx="1122" cy="122.0234" fill="#84BE84" rx="3" ry="3" style="stroke:#038048;stroke-width:1.0;"/><text fill="#000000" font-family="sans-serif" font-size="11" lengthAdjust="spacing" text-decoration="underline" textLength="58" x="1131" y="125.2339">void exit()</text><!--MD5=[4cfa4680da27fbe5a20443effd4892a1]
class primitive_type--><rect codeLine="20" fill="#F5F5F5" height="73.6094" id="primitive_type" style="stroke:#000000;stroke-width:1.5;" width="117" x="7" y="32.5"/><ellipse cx="22" cy="48.5" fill="#EB937F" rx="11" ry="11" style="stroke:#000000;stroke-width:1.0;"/><path d="M20.7969,49.375 L22.25,49.375 L22.25,49.4844 C22.25,49.8906 22.2813,50.0469 22.3594,50.2031 C22.5156,50.4531 22.7969,50.6094 23.0938,50.6094 C23.3438,50.6094 23.6094,50.4688 23.7656,50.25 C23.8906,50.0938 23.9219,49.9375 23.9219,49.4844 L23.9219,47.5625 C23.9219,47.4063 23.9219,47.3594 23.9063,47.2031 C23.8438,46.7344 23.5313,46.4219 23.0781,46.4219 C22.8281,46.4219 22.5625,46.5625 22.3906,46.7813 C22.2813,46.9531 22.25,47.1094 22.25,47.5625 L22.25,47.6875 L20.7969,47.6875 L20.7969,45.2813 L24.7813,45.2813 L24.7813,46.1406 C24.7813,46.5469 24.8125,46.7188 24.8906,46.875 C25.0625,47.125 25.3438,47.2813 25.625,47.2813 C25.8906,47.2813 26.1563,47.1406 26.3281,46.9219 C26.4375,46.75 26.4688,46.6094 26.4688,46.1406 L26.4688,43.5938 L18.8438,43.5938 C18.4063,43.5938 18.2813,43.6094 18.125,43.7031 C17.875,43.8594 17.7188,44.1563 17.7188,44.4375 C17.7188,44.7188 17.8594,44.9688 18.0781,45.1406 C18.2344,45.25 18.4219,45.2813 18.8438,45.2813 L19.0938,45.2813 L19.0938,51.7969 L18.8438,51.7969 C18.4375,51.7969 18.2813,51.8125 18.125,51.9219 C17.875,52.0938 17.7188,52.3594 17.7188,52.6563 C17.7188,52.9219 17.8594,53.1719 18.0781,53.3281 C18.2188,53.4531 18.4531,53.5 18.8438,53.5 L26.8438,53.5 L26.8438,50.9219 C26.8438,50.4844 26.8125,50.3438 26.7344,50.1875 C26.5625,49.9375 26.2813,49.7813 26,49.7813 C25.7344,49.7813 25.4688,49.8906 25.2969,50.1406 C25.1875,50.2969 25.1563,50.4375 25.1563,50.9219 L25.1563,51.7969 L20.7969,51.7969 L20.7969,49.375 Z " fill="#000000"/><text fill="#000000" font-family="sans-serif" font-size="12" lengthAdjust="spacing" textLength="85" x="36" y="52.6543">primitive_type</text><line style="stroke:#000000;stroke-width:1.5;" x1="8" x2="123" y1="64.5" y2="64.5"/><text fill="#000000" font-family="sans-serif" font-size="11" lengthAdjust="spacing" textLength="24" x="13" y="78.7104">LINE</text><text fill="#000000" font-family="sans-serif" font-size="11" lengthAdjust="spacing" textLength="34" x="13" y="91.5151">QUAD</text><line style="stroke:#000000;stroke-width:1.5;" x1="8" x2="123" y1="98.1094" y2="98.1094"/><!--MD5=[0b7f25afcb55c3dc5203e82f5f3c72d4]
class render_primitive--><rect codeLine="26" fill="#F5F5F5" height="112.0234" id="render_primitive" style="stroke:#000000;stroke-width:1.5;" width="197" x="159" y="13.5"/><ellipse cx="203.75" cy="29.5" fill="#ADD1B2" rx="11" ry="11" style="stroke:#000000;stroke-width:1.0;"/><path d="M206.0938,25.1719 C205.1563,24.7344 204.5625,24.5938 203.6875,24.5938 C201.0625,24.5938 199.0625,26.6719 199.0625,29.3906 L199.0625,30.5156 C199.0625,33.0938 201.1719,34.9844 204.0625,34.9844 C205.2813,34.9844 206.4375,34.6875 207.1875,34.1406 C207.7656,33.7344 208.0938,33.2813 208.0938,32.8906 C208.0938,32.4375 207.7031,32.0469 207.2344,32.0469 C207.0156,32.0469 206.8125,32.125 206.625,32.3125 C206.1719,32.7969 206.1719,32.7969 205.9844,32.8906 C205.5625,33.1563 204.875,33.2813 204.1094,33.2813 C202.0625,33.2813 200.7656,32.1875 200.7656,30.4844 L200.7656,29.3906 C200.7656,27.6094 202.0156,26.2969 203.75,26.2969 C204.3281,26.2969 204.9375,26.4531 205.4063,26.7031 C205.8906,26.9844 206.0625,27.2031 206.1563,27.6094 C206.2188,28.0156 206.25,28.1406 206.3906,28.2656 C206.5313,28.4063 206.7656,28.5156 206.9844,28.5156 C207.25,28.5156 207.5156,28.375 207.6875,28.1563 C207.7969,28 207.8281,27.8125 207.8281,27.3906 L207.8281,25.9688 C207.8281,25.5313 207.8125,25.4063 207.7188,25.25 C207.5625,24.9844 207.2813,24.8438 206.9844,24.8438 C206.6875,24.8438 206.4844,24.9375 206.2656,25.25 L206.0938,25.1719 Z " fill="#000000"/><text fill="#000000" font-family="sans-serif" font-size="12" lengthAdjust="spacing" textLength="99" x="224.25" y="33.6543">render_primitive</text><line style="stroke:#000000;stroke-width:1.5;" x1="160" x2="355" y1="45.5" y2="45.5"/><ellipse cx="170" cy="56.5" rx="3" ry="3" style="stroke:#038048;stroke-width:1.0;fill:none;"/><text fill="#000000" font-family="sans-serif" font-size="11" lengthAdjust="spacing" textLength="130" x="179" y="59.7104">render_bounds bounds</text><ellipse cx="170" cy="69.3047" rx="3" ry="3" style="stroke:#038048;stroke-width:1.0;fill:none;"/><text fill="#000000" font-family="sans-serif" font-size="11" lengthAdjust="spacing" textLength="112" x="179" y="72.5151">primitive_type type</text><ellipse cx="170" cy="82.1094" rx="3" ry="3" style="stroke:#038048;stroke-width:1.0;fill:none;"/><text fill="#000000" font-family="sans-serif" font-size="11" lengthAdjust="spacing" textLength="102" x="179" y="85.3198">render_color color</text><ellipse cx="170" cy="94.9141" rx="3" ry="3" style="stroke:#038048;stroke-width:1.0;fill:none;"/><text fill="#000000" font-family="sans-serif" font-size="11" lengthAdjust="spacing" textLength="130" x="179" y="98.1245">render_texinfo texture</text><ellipse cx="170" cy="107.7188" rx="3" ry="3" style="stroke:#038048;stroke-width:1.0;fill:none;"/><text fill="#000000" font-family="sans-serif" font-size="11" lengthAdjust="spacing" textLength="171" x="179" y="110.9292">render_quad_texuv texcoords</text><line style="stroke:#000000;stroke-width:1.5;" x1="160" x2="355" y1="117.5234" y2="117.5234"/><!--MD5=[88dbb0a63bb3c138d97a6fe7989da878]
class osd_renderer--><rect codeLine="34" fill="#F5F5F5" height="124.8281" id="osd_renderer" style="stroke:#000000;stroke-width:1.5;" width="459" x="617" y="7"/><ellipse cx="800.75" cy="23" fill="#ADD1B2" rx="11" ry="11" style="stroke:#000000;stroke-width:1.0;"/><path d="M803.0938,18.6719 C802.1563,18.2344 801.5625,18.0938 800.6875,18.0938 C798.0625,18.0938 796.0625,20.1719 796.0625,22.8906 L796.0625,24.0156 C796.0625,26.5938 798.1719,28.4844 801.0625,28.4844 C802.2813,28.4844 803.4375,28.1875 804.1875,27.6406 C804.7656,27.2344 805.0938,26.7813 805.0938,26.3906 C805.0938,25.9375 804.7031,25.5469 804.2344,25.5469 C804.0156,25.5469 803.8125,25.625 803.625,25.8125 C803.1719,26.2969 803.1719,26.2969 802.9844,26.3906 C802.5625,26.6563 801.875,26.7813 801.1094,26.7813 C799.0625,26.7813 797.7656,25.6875 797.7656,23.9844 L797.7656,22.8906 C797.7656,21.1094 799.0156,19.7969 800.75,19.7969 C801.3281,19.7969 801.9375,19.9531 802.4063,20.2031 C802.8906,20.4844 803.0625,20.7031 803.1563,21.1094 C803.2188,21.5156 803.25,21.6406 803.3906,21.7656 C803.5313,21.9063 803.7656,22.0156 803.9844,22.0156 C804.25,22.0156 804.5156,21.875 804.6875,21.6563 C804.7969,21.5 804.8281,21.3125 804.8281,20.8906 L804.8281,19.4688 C804.8281,19.0313 804.8125,18.9063 804.7188,18.75 C804.5625,18.4844 804.2813,18.3438 803.9844,18.3438 C803.6875,18.3438 803.4844,18.4375 803.2656,18.75 L803.0938,18.6719 Z " fill="#000000"/><text fill="#000000" font-family="sans-serif" font-size="12" lengthAdjust="spacing" textLength="83" x="821.25" y="27.1543">osd_renderer</text><line style="stroke:#000000;stroke-width:1.5;" x1="618" x2="1075" y1="39" y2="39"/><rect fill="none" height="6" style="stroke:#C82930;stroke-width:1.0;" width="6" x="625" y="47"/><text fill="#000000" font-family="sans-serif" font-size="11" lengthAdjust="spacing" textLength="135" x="637" y="53.2104">osd_window  m_window</text><line style="stroke:#000000;stroke-width:1.5;" x1="618" x2="1075" y1="59.8047" y2="59.8047"/><ellipse cx="628" cy="70.8047" fill="#84BE84" rx="3" ry="3" style="stroke:#038048;stroke-width:1.0;"/><text fill="#000000" font-family="sans-serif" font-size="11" lengthAdjust="spacing" textLength="163" x="637" y="74.0151">osd_window assert_window()</text><ellipse cx="628" cy="83.6094" fill="#84BE84" rx="3" ry="3" style="stroke:#038048;stroke-width:1.0;"/><text fill="#000000" font-family="sans-serif" font-size="11" font-style="italic" lengthAdjust="spacing" textLength="62" x="637" y="86.8198">int create()</text><ellipse cx="628" cy="96.4141" fill="#84BE84" rx="3" ry="3" style="stroke:#038048;stroke-width:1.0;"/><text fill="#000000" font-family="sans-serif" font-size="11" font-style="italic" lengthAdjust="spacing" textLength="194" x="637" y="99.6245">render_primitive[] get_primitives()</text><ellipse cx="628" cy="109.2188" fill="#84BE84" rx="3" ry="3" style="stroke:#038048;stroke-width:1.0;"/><text fill="#000000" font-family="sans-serif" font-size="11" font-style="italic" lengthAdjust="spacing" textLength="145" x="637" y="112.4292">int draw(const int update)</text><ellipse cx="628" cy="122.0234" fill="#84BE84" rx="3" ry="3" style="stroke:#038048;stroke-width:1.0;"/><text fill="#000000" font-family="sans-serif" font-size="11" lengthAdjust="spacing" text-decoration="underline" textLength="433" x="637" y="125.2339">osd_renderer make_for_type(int mode, osd_window window, int extra_flags)</text><!--MD5=[c5840b911fc8ca21582617c87d822171]
class osd_window--><rect codeLine="43" fill="#F5F5F5" height="124.8281" id="osd_window" style="stroke:#000000;stroke-width:1.5;" width="190" x="391.5" y="7"/><ellipse cx="444.75" cy="23" fill="#ADD1B2" rx="11" ry="11" style="stroke:#000000;stroke-width:1.0;"/><path d="M447.0938,18.6719 C446.1563,18.2344 445.5625,18.0938 444.6875,18.0938 C442.0625,18.0938 440.0625,20.1719 440.0625,22.8906 L440.0625,24.0156 C440.0625,26.5938 442.1719,28.4844 445.0625,28.4844 C446.2813,28.4844 447.4375,28.1875 448.1875,27.6406 C448.7656,27.2344 449.0938,26.7813 449.0938,26.3906 C449.0938,25.9375 448.7031,25.5469 448.2344,25.5469 C448.0156,25.5469 447.8125,25.625 447.625,25.8125 C447.1719,26.2969 447.1719,26.2969 446.9844,26.3906 C446.5625,26.6563 445.875,26.7813 445.1094,26.7813 C443.0625,26.7813 441.7656,25.6875 441.7656,23.9844 L441.7656,22.8906 C441.7656,21.1094 443.0156,19.7969 444.75,19.7969 C445.3281,19.7969 445.9375,19.9531 446.4063,20.2031 C446.8906,20.4844 447.0625,20.7031 447.1563,21.1094 C447.2188,21.5156 447.25,21.6406 447.3906,21.7656 C447.5313,21.9063 447.7656,22.0156 447.9844,22.0156 C448.25,22.0156 448.5156,21.875 448.6875,21.6563 C448.7969,21.5 448.8281,21.3125 448.8281,20.8906 L448.8281,19.4688 C448.8281,19.0313 448.8125,18.9063 448.7188,18.75 C448.5625,18.4844 448.2813,18.3438 447.9844,18.3438 C447.6875,18.3438 447.4844,18.4375 447.2656,18.75 L447.0938,18.6719 Z " fill="#000000"/><text fill="#000000" font-family="sans-serif" font-size="12" lengthAdjust="spacing" textLength="75" x="465.25" y="27.1543">osd_window</text><line style="stroke:#000000;stroke-width:1.5;" x1="392.5" x2="580.5" y1="39" y2="39"/><ellipse cx="402.5" cy="50" rx="3" ry="3" style="stroke:#038048;stroke-width:1.0;fill:none;"/><text fill="#000000" font-family="sans-serif" font-size="11" lengthAdjust="spacing" textLength="59" x="411.5" y="53.2104">HDC m_dc</text><ellipse cx="402.5" cy="62.8047" rx="3" ry="3" style="stroke:#038048;stroke-width:1.0;fill:none;"/><text fill="#000000" font-family="sans-serif" font-size="11" lengthAdjust="spacing" textLength="164" x="411.5" y="66.0151">render_primitive[] m_primlist</text><line style="stroke:#000000;stroke-width:1.5;" x1="392.5" x2="580.5" y1="72.6094" y2="72.6094"/><ellipse cx="402.5" cy="83.6094" fill="#84BE84" rx="3" ry="3" style="stroke:#038048;stroke-width:1.0;"/><text fill="#000000" font-family="sans-serif" font-size="11" lengthAdjust="spacing" textLength="138" x="411.5" y="86.8198">osd_renderer renderer()</text><ellipse cx="402.5" cy="96.4141" fill="#84BE84" rx="3" ry="3" style="stroke:#038048;stroke-width:1.0;"/><text fill="#000000" font-family="sans-serif" font-size="11" font-style="italic" lengthAdjust="spacing" textLength="124" x="411.5" y="99.6245">render_target target()</text><ellipse cx="402.5" cy="109.2188" fill="#84BE84" rx="3" ry="3" style="stroke:#038048;stroke-width:1.0;"/><text fill="#000000" font-family="sans-serif" font-size="11" font-style="italic" lengthAdjust="spacing" textLength="157" x="411.5" y="112.4292">running_machine machine()</text><ellipse cx="402.5" cy="122.0234" fill="#84BE84" rx="3" ry="3" style="stroke:#038048;stroke-width:1.0;"/><text fill="#000000" font-family="sans-serif" font-size="11" font-style="italic" lengthAdjust="spacing" textLength="75" x="411.5" y="125.2339">void update()</text><!--MD5=[3495575551e38f818e7d7313fe052b96]
reverse link osd_renderer to renderer_sdl2--><path codeLine="56" d="M1096.25,70 C1096.25,70 1110.84,70 1110.84,70 " fill="none" id="osd_renderer-backto-renderer_sdl2" style="stroke:#000000;stroke-width:1.0;"/><polygon fill="none" points="1096.25,76.9999,1076.25,70,1096.25,62.9999,1096.25,76.9999" style="stroke:#000000;stroke-width:1.0;"/><!--MD5=[c09426efe95c23c59e71dd9238351205]
link renderer_sdl2 to SDL_Renderer--><path codeLine="57" d="M1340.15,70 C1352.11,70 1363.88,70 1374.82,70 " fill="none" id="renderer_sdl2-SDL_Renderer" style="stroke:#000000;stroke-width:1.0;"/><!--MD5=[db91dadce38bf059abbdc26f81d8de2d]
link osd_window to osd_renderer--><path codeLine="59" d="M581.557,70 C592.806,70 604.629,70 616.78,70 " fill="none" id="osd_window-osd_renderer" style="stroke:#000000;stroke-width:1.0;"/><!--MD5=[89efb57c2a4b600924cf73bcd654655d]
link render_primitive to osd_window--><path codeLine="60" d="M356.278,70 C367.899,70 379.74,70 391.311,70 " fill="none" id="render_primitive-osd_window" style="stroke:#000000;stroke-width:1.0;"/><!--MD5=[d26ecd1bac4c7bb4d0fb03957bf645c9]
link primitive_type to render_primitive--><path codeLine="61" d="M124.15,70 C135.178,70 146.985,70 158.846,70 " fill="none" id="primitive_type-render_primitive" style="stroke:#000000;stroke-width:1.0;"/><!--MD5=[bc13f38746b9325b1761950377ca25da]
@startuml
skinparam Shadowing false
skinparam LineType ortho
skinparam ArrowColor black

skinparam class {
    BackgroundColor WhiteSmoke
    BorderColor black
}

class renderer_sdl2 {
	-SDL_Renderer sdl_renderer
	
	+int create()
	+render_primitive[] get_primitives()    
	+int draw(const int update)
	{static} +void init(running_machine machine)
	{static} +void exit()
}

enum primitive_type
{
	LINE
	QUAD
}

class render_primitive {
	+render_bounds bounds
	+primitive_type type
	+render_color color
	+render_texinfo texture
	+render_quad_texuv texcoords
}

class osd_renderer {
    -osd_window  m_window
    +osd_window assert_window()
    {abstract} +int create()
    {abstract} +render_primitive[] get_primitives()
    {abstract} +int draw(const int update)
    {static} +osd_renderer make_for_type(int mode, osd_window window, int extra_flags)
}

class osd_window {
    +HDC m_dc
    +render_primitive[] m_primlist
    +osd_renderer renderer()        
    {abstract} +render_target target()    
    {abstract} +running_machine machine()
    {abstract} +void update()    
}

package SDL {
	class SDL_Renderer
}

renderer_sdl2 -l-|> osd_renderer
renderer_sdl2 -r- SDL_Renderer

osd_renderer -l- osd_window
osd_window -l- render_primitive
render_primitive -l- primitive_type
@enduml

PlantUML version 1.2021.7(Sun May 23 12:40:07 UTC 2021)
(GPL source distribution)
Java Runtime: Java(TM) SE Runtime Environment
JVM: Java HotSpot(TM) 64-Bit Server VM
Default Encoding: UTF-8
Language: en
Country: US
--></g></svg>