<?xml version="1.0" encoding="UTF-8" standalone="no"?>
<svg xmlns="http://www.w3.org/2000/svg" xmlns:xlink="http://www.w3.org/1999/xlink" contentScriptType="application/ecmascript" contentStyleType="text/css" height="633px" preserveAspectRatio="none" style="width:625px;height:633px;background:#FFFFFF;" version="1.1" viewBox="0 0 625 633" width="625px" zoomAndPan="magnify"><defs/><g><!--MD5=[ab0d57698b0283a6c4146711f94c8adb]
cluster SDL--><polygon fill="#FFFFFF" points="108.5,527,144.5,527,151.5,549.2969,258.5,549.2969,258.5,626,108.5,626,108.5,527" style="stroke:#000000;stroke-width:1.5;"/><line style="stroke:#000000;stroke-width:1.5;" x1="108.5" x2="151.5" y1="549.2969" y2="549.2969"/><text fill="#000000" font-family="sans-serif" font-size="14" font-weight="bold" lengthAdjust="spacing" textLength="30" x="112.5" y="541.9951">SDL</text><!--MD5=[69a7ee1b5d99870f7895004edce15057]
class SDL_Renderer--><rect codeLine="17" fill="#F5F5F5" height="48" id="SDL_Renderer" style="stroke:#000000;stroke-width:1.5;" width="117" x="125" y="562"/><ellipse cx="140" cy="578" fill="#ADD1B2" rx="11" ry="11" style="stroke:#000000;stroke-width:1.0;"/><path d="M142.3438,573.6719 C141.4063,573.2344 140.8125,573.0938 139.9375,573.0938 C137.3125,573.0938 135.3125,575.1719 135.3125,577.8906 L135.3125,579.0156 C135.3125,581.5938 137.4219,583.4844 140.3125,583.4844 C141.5313,583.4844 142.6875,583.1875 143.4375,582.6406 C144.0156,582.2344 144.3438,581.7813 144.3438,581.3906 C144.3438,580.9375 143.9531,580.5469 143.4844,580.5469 C143.2656,580.5469 143.0625,580.625 142.875,580.8125 C142.4219,581.2969 142.4219,581.2969 142.2344,581.3906 C141.8125,581.6563 141.125,581.7813 140.3594,581.7813 C138.3125,581.7813 137.0156,580.6875 137.0156,578.9844 L137.0156,577.8906 C137.0156,576.1094 138.2656,574.7969 140,574.7969 C140.5781,574.7969 141.1875,574.9531 141.6563,575.2031 C142.1406,575.4844 142.3125,575.7031 142.4063,576.1094 C142.4688,576.5156 142.5,576.6406 142.6406,576.7656 C142.7813,576.9063 143.0156,577.0156 143.2344,577.0156 C143.5,577.0156 143.7656,576.875 143.9375,576.6563 C144.0469,576.5 144.0781,576.3125 144.0781,575.8906 L144.0781,574.4688 C144.0781,574.0313 144.0625,573.9063 143.9688,573.75 C143.8125,573.4844 143.5313,573.3438 143.2344,573.3438 C142.9375,573.3438 142.7344,573.4375 142.5156,573.75 L142.3438,573.6719 Z " fill="#000000"/><text fill="#000000" font-family="sans-serif" font-size="12" lengthAdjust="spacing" textLength="85" x="154" y="582.1543">SDL_Renderer</text><line style="stroke:#000000;stroke-width:1.5;" x1="126" x2="241" y1="594" y2="594"/><line style="stroke:#000000;stroke-width:1.5;" x1="126" x2="241" y1="602" y2="602"/><!--MD5=[4cfa4680da27fbe5a20443effd4892a1]
class primitive_type--><rect codeLine="10" fill="#F5F5F5" height="73.6094" id="primitive_type" style="stroke:#000000;stroke-width:1.5;" width="117" x="7" y="217.5"/><ellipse cx="22" cy="233.5" fill="#EB937F" rx="11" ry="11" style="stroke:#000000;stroke-width:1.0;"/><path d="M20.7969,234.375 L22.25,234.375 L22.25,234.4844 C22.25,234.8906 22.2813,235.0469 22.3594,235.2031 C22.5156,235.4531 22.7969,235.6094 23.0938,235.6094 C23.3438,235.6094 23.6094,235.4688 23.7656,235.25 C23.8906,235.0938 23.9219,234.9375 23.9219,234.4844 L23.9219,232.5625 C23.9219,232.4063 23.9219,232.3594 23.9063,232.2031 C23.8438,231.7344 23.5313,231.4219 23.0781,231.4219 C22.8281,231.4219 22.5625,231.5625 22.3906,231.7813 C22.2813,231.9531 22.25,232.1094 22.25,232.5625 L22.25,232.6875 L20.7969,232.6875 L20.7969,230.2813 L24.7813,230.2813 L24.7813,231.1406 C24.7813,231.5469 24.8125,231.7188 24.8906,231.875 C25.0625,232.125 25.3438,232.2813 25.625,232.2813 C25.8906,232.2813 26.1563,232.1406 26.3281,231.9219 C26.4375,231.75 26.4688,231.6094 26.4688,231.1406 L26.4688,228.5938 L18.8438,228.5938 C18.4063,228.5938 18.2813,228.6094 18.125,228.7031 C17.875,228.8594 17.7188,229.1563 17.7188,229.4375 C17.7188,229.7188 17.8594,229.9688 18.0781,230.1406 C18.2344,230.25 18.4219,230.2813 18.8438,230.2813 L19.0938,230.2813 L19.0938,236.7969 L18.8438,236.7969 C18.4375,236.7969 18.2813,236.8125 18.125,236.9219 C17.875,237.0938 17.7188,237.3594 17.7188,237.6563 C17.7188,237.9219 17.8594,238.1719 18.0781,238.3281 C18.2188,238.4531 18.4531,238.5 18.8438,238.5 L26.8438,238.5 L26.8438,235.9219 C26.8438,235.4844 26.8125,235.3438 26.7344,235.1875 C26.5625,234.9375 26.2813,234.7813 26,234.7813 C25.7344,234.7813 25.4688,234.8906 25.2969,235.1406 C25.1875,235.2969 25.1563,235.4375 25.1563,235.9219 L25.1563,236.7969 L20.7969,236.7969 L20.7969,234.375 Z " fill="#000000"/><text fill="#000000" font-family="sans-serif" font-size="12" lengthAdjust="spacing" textLength="85" x="36" y="237.6543">primitive_type</text><line style="stroke:#000000;stroke-width:1.5;" x1="8" x2="123" y1="249.5" y2="249.5"/><text fill="#000000" font-family="sans-serif" font-size="11" lengthAdjust="spacing" textLength="24" x="13" y="263.7104">LINE</text><text fill="#000000" font-family="sans-serif" font-size="11" lengthAdjust="spacing" textLength="34" x="13" y="276.5151">QUAD</text><line style="stroke:#000000;stroke-width:1.5;" x1="8" x2="123" y1="283.1094" y2="283.1094"/><!--MD5=[cac353306241a567ca72fcdbb9cb5eee]
class renderer_sdl2--><rect codeLine="20" fill="#F5F5F5" height="124.8281" id="renderer_sdl2" style="stroke:#000000;stroke-width:1.5;" width="229" x="69" y="377"/><ellipse cx="136.25" cy="393" fill="#ADD1B2" rx="11" ry="11" style="stroke:#000000;stroke-width:1.0;"/><path d="M138.5938,388.6719 C137.6563,388.2344 137.0625,388.0938 136.1875,388.0938 C133.5625,388.0938 131.5625,390.1719 131.5625,392.8906 L131.5625,394.0156 C131.5625,396.5938 133.6719,398.4844 136.5625,398.4844 C137.7813,398.4844 138.9375,398.1875 139.6875,397.6406 C140.2656,397.2344 140.5938,396.7813 140.5938,396.3906 C140.5938,395.9375 140.2031,395.5469 139.7344,395.5469 C139.5156,395.5469 139.3125,395.625 139.125,395.8125 C138.6719,396.2969 138.6719,396.2969 138.4844,396.3906 C138.0625,396.6563 137.375,396.7813 136.6094,396.7813 C134.5625,396.7813 133.2656,395.6875 133.2656,393.9844 L133.2656,392.8906 C133.2656,391.1094 134.5156,389.7969 136.25,389.7969 C136.8281,389.7969 137.4375,389.9531 137.9063,390.2031 C138.3906,390.4844 138.5625,390.7031 138.6563,391.1094 C138.7188,391.5156 138.75,391.6406 138.8906,391.7656 C139.0313,391.9063 139.2656,392.0156 139.4844,392.0156 C139.75,392.0156 140.0156,391.875 140.1875,391.6563 C140.2969,391.5 140.3281,391.3125 140.3281,390.8906 L140.3281,389.4688 C140.3281,389.0313 140.3125,388.9063 140.2188,388.75 C140.0625,388.4844 139.7813,388.3438 139.4844,388.3438 C139.1875,388.3438 138.9844,388.4375 138.7656,388.75 L138.5938,388.6719 Z " fill="#000000"/><text fill="#000000" font-family="sans-serif" font-size="12" lengthAdjust="spacing" textLength="86" x="156.75" y="397.1543">renderer_sdl2</text><line style="stroke:#000000;stroke-width:1.5;" x1="70" x2="297" y1="409" y2="409"/><rect fill="none" height="6" style="stroke:#C82930;stroke-width:1.0;" width="6" x="77" y="417"/><text fill="#000000" font-family="sans-serif" font-size="11" lengthAdjust="spacing" textLength="158" x="89" y="423.2104">SDL_Renderer sdl_renderer</text><line style="stroke:#000000;stroke-width:1.5;" x1="70" x2="297" y1="429.8047" y2="429.8047"/><ellipse cx="80" cy="440.8047" fill="#84BE84" rx="3" ry="3" style="stroke:#038048;stroke-width:1.0;"/><text fill="#000000" font-family="sans-serif" font-size="11" lengthAdjust="spacing" textLength="63" x="89" y="444.0151">int create()</text><ellipse cx="80" cy="453.6094" fill="#84BE84" rx="3" ry="3" style="stroke:#038048;stroke-width:1.0;"/><text fill="#000000" font-family="sans-serif" font-size="11" lengthAdjust="spacing" textLength="195" x="89" y="456.8198">render_primitive[] get_primitives()</text><ellipse cx="80" cy="466.4141" fill="#84BE84" rx="3" ry="3" style="stroke:#038048;stroke-width:1.0;"/><text fill="#000000" font-family="sans-serif" font-size="11" lengthAdjust="spacing" textLength="145" x="89" y="469.6245">int draw(const int update)</text><ellipse cx="80" cy="479.2188" fill="#84BE84" rx="3" ry="3" style="stroke:#038048;stroke-width:1.0;"/><text fill="#000000" font-family="sans-serif" font-size="11" lengthAdjust="spacing" text-decoration="underline" textLength="203" x="89" y="482.4292">void init(running_machine machine)</text><ellipse cx="80" cy="492.0234" fill="#84BE84" rx="3" ry="3" style="stroke:#038048;stroke-width:1.0;"/><text fill="#000000" font-family="sans-serif" font-size="11" lengthAdjust="spacing" text-decoration="underline" textLength="58" x="89" y="495.2339">void exit()</text><!--MD5=[0b7f25afcb55c3dc5203e82f5f3c72d4]
class render_primitive--><rect codeLine="30" fill="#F5F5F5" height="112.0234" id="render_primitive" style="stroke:#000000;stroke-width:1.5;" width="197" x="14" y="13.5"/><ellipse cx="58.75" cy="29.5" fill="#ADD1B2" rx="11" ry="11" style="stroke:#000000;stroke-width:1.0;"/><path d="M61.0938,25.1719 C60.1563,24.7344 59.5625,24.5938 58.6875,24.5938 C56.0625,24.5938 54.0625,26.6719 54.0625,29.3906 L54.0625,30.5156 C54.0625,33.0938 56.1719,34.9844 59.0625,34.9844 C60.2813,34.9844 61.4375,34.6875 62.1875,34.1406 C62.7656,33.7344 63.0938,33.2813 63.0938,32.8906 C63.0938,32.4375 62.7031,32.0469 62.2344,32.0469 C62.0156,32.0469 61.8125,32.125 61.625,32.3125 C61.1719,32.7969 61.1719,32.7969 60.9844,32.8906 C60.5625,33.1563 59.875,33.2813 59.1094,33.2813 C57.0625,33.2813 55.7656,32.1875 55.7656,30.4844 L55.7656,29.3906 C55.7656,27.6094 57.0156,26.2969 58.75,26.2969 C59.3281,26.2969 59.9375,26.4531 60.4063,26.7031 C60.8906,26.9844 61.0625,27.2031 61.1563,27.6094 C61.2188,28.0156 61.25,28.1406 61.3906,28.2656 C61.5313,28.4063 61.7656,28.5156 61.9844,28.5156 C62.25,28.5156 62.5156,28.375 62.6875,28.1563 C62.7969,28 62.8281,27.8125 62.8281,27.3906 L62.8281,25.9688 C62.8281,25.5313 62.8125,25.4063 62.7188,25.25 C62.5625,24.9844 62.2813,24.8438 61.9844,24.8438 C61.6875,24.8438 61.4844,24.9375 61.2656,25.25 L61.0938,25.1719 Z " fill="#000000"/><text fill="#000000" font-family="sans-serif" font-size="12" lengthAdjust="spacing" textLength="99" x="79.25" y="33.6543">render_primitive</text><line style="stroke:#000000;stroke-width:1.5;" x1="15" x2="210" y1="45.5" y2="45.5"/><ellipse cx="25" cy="56.5" rx="3" ry="3" style="stroke:#038048;stroke-width:1.0;fill:none;"/><text fill="#000000" font-family="sans-serif" font-size="11" lengthAdjust="spacing" textLength="130" x="34" y="59.7104">render_bounds bounds</text><ellipse cx="25" cy="69.3047" rx="3" ry="3" style="stroke:#038048;stroke-width:1.0;fill:none;"/><text fill="#000000" font-family="sans-serif" font-size="11" lengthAdjust="spacing" textLength="112" x="34" y="72.5151">primitive_type type</text><ellipse cx="25" cy="82.1094" rx="3" ry="3" style="stroke:#038048;stroke-width:1.0;fill:none;"/><text fill="#000000" font-family="sans-serif" font-size="11" lengthAdjust="spacing" textLength="102" x="34" y="85.3198">render_color color</text><ellipse cx="25" cy="94.9141" rx="3" ry="3" style="stroke:#038048;stroke-width:1.0;fill:none;"/><text fill="#000000" font-family="sans-serif" font-size="11" lengthAdjust="spacing" textLength="130" x="34" y="98.1245">render_texinfo texture</text><ellipse cx="25" cy="107.7188" rx="3" ry="3" style="stroke:#038048;stroke-width:1.0;fill:none;"/><text fill="#000000" font-family="sans-serif" font-size="11" lengthAdjust="spacing" textLength="171" x="34" y="110.9292">render_quad_texuv texcoords</text><line style="stroke:#000000;stroke-width:1.5;" x1="15" x2="210" y1="117.5234" y2="117.5234"/><!--MD5=[88dbb0a63bb3c138d97a6fe7989da878]
class osd_renderer--><rect codeLine="38" fill="#F5F5F5" height="124.8281" id="osd_renderer" style="stroke:#000000;stroke-width:1.5;" width="459" x="159" y="192"/><ellipse cx="342.75" cy="208" fill="#ADD1B2" rx="11" ry="11" style="stroke:#000000;stroke-width:1.0;"/><path d="M345.0938,203.6719 C344.1563,203.2344 343.5625,203.0938 342.6875,203.0938 C340.0625,203.0938 338.0625,205.1719 338.0625,207.8906 L338.0625,209.0156 C338.0625,211.5938 340.1719,213.4844 343.0625,213.4844 C344.2813,213.4844 345.4375,213.1875 346.1875,212.6406 C346.7656,212.2344 347.0938,211.7813 347.0938,211.3906 C347.0938,210.9375 346.7031,210.5469 346.2344,210.5469 C346.0156,210.5469 345.8125,210.625 345.625,210.8125 C345.1719,211.2969 345.1719,211.2969 344.9844,211.3906 C344.5625,211.6563 343.875,211.7813 343.1094,211.7813 C341.0625,211.7813 339.7656,210.6875 339.7656,208.9844 L339.7656,207.8906 C339.7656,206.1094 341.0156,204.7969 342.75,204.7969 C343.3281,204.7969 343.9375,204.9531 344.4063,205.2031 C344.8906,205.4844 345.0625,205.7031 345.1563,206.1094 C345.2188,206.5156 345.25,206.6406 345.3906,206.7656 C345.5313,206.9063 345.7656,207.0156 345.9844,207.0156 C346.25,207.0156 346.5156,206.875 346.6875,206.6563 C346.7969,206.5 346.8281,206.3125 346.8281,205.8906 L346.8281,204.4688 C346.8281,204.0313 346.8125,203.9063 346.7188,203.75 C346.5625,203.4844 346.2813,203.3438 345.9844,203.3438 C345.6875,203.3438 345.4844,203.4375 345.2656,203.75 L345.0938,203.6719 Z " fill="#000000"/><text fill="#000000" font-family="sans-serif" font-size="12" lengthAdjust="spacing" textLength="83" x="363.25" y="212.1543">osd_renderer</text><line style="stroke:#000000;stroke-width:1.5;" x1="160" x2="617" y1="224" y2="224"/><rect fill="none" height="6" style="stroke:#C82930;stroke-width:1.0;" width="6" x="167" y="232"/><text fill="#000000" font-family="sans-serif" font-size="11" lengthAdjust="spacing" textLength="135" x="179" y="238.2104">osd_window  m_window</text><line style="stroke:#000000;stroke-width:1.5;" x1="160" x2="617" y1="244.8047" y2="244.8047"/><ellipse cx="170" cy="255.8047" fill="#84BE84" rx="3" ry="3" style="stroke:#038048;stroke-width:1.0;"/><text fill="#000000" font-family="sans-serif" font-size="11" lengthAdjust="spacing" textLength="163" x="179" y="259.0151">osd_window assert_window()</text><ellipse cx="170" cy="268.6094" fill="#84BE84" rx="3" ry="3" style="stroke:#038048;stroke-width:1.0;"/><text fill="#000000" font-family="sans-serif" font-size="11" font-style="italic" lengthAdjust="spacing" textLength="62" x="179" y="271.8198">int create()</text><ellipse cx="170" cy="281.4141" fill="#84BE84" rx="3" ry="3" style="stroke:#038048;stroke-width:1.0;"/><text fill="#000000" font-family="sans-serif" font-size="11" font-style="italic" lengthAdjust="spacing" textLength="194" x="179" y="284.6245">render_primitive[] get_primitives()</text><ellipse cx="170" cy="294.2188" fill="#84BE84" rx="3" ry="3" style="stroke:#038048;stroke-width:1.0;"/><text fill="#000000" font-family="sans-serif" font-size="11" font-style="italic" lengthAdjust="spacing" textLength="145" x="179" y="297.4292">int draw(const int update)</text><ellipse cx="170" cy="307.0234" fill="#84BE84" rx="3" ry="3" style="stroke:#038048;stroke-width:1.0;"/><text fill="#000000" font-family="sans-serif" font-size="11" lengthAdjust="spacing" text-decoration="underline" textLength="433" x="179" y="310.2339">osd_renderer make_for_type(int mode, osd_window window, int extra_flags)</text><!--MD5=[c5840b911fc8ca21582617c87d822171]
class osd_window--><rect codeLine="47" fill="#F5F5F5" height="124.8281" id="osd_window" style="stroke:#000000;stroke-width:1.5;" width="190" x="269.5" y="7"/><ellipse cx="322.75" cy="23" fill="#ADD1B2" rx="11" ry="11" style="stroke:#000000;stroke-width:1.0;"/><path d="M325.0938,18.6719 C324.1563,18.2344 323.5625,18.0938 322.6875,18.0938 C320.0625,18.0938 318.0625,20.1719 318.0625,22.8906 L318.0625,24.0156 C318.0625,26.5938 320.1719,28.4844 323.0625,28.4844 C324.2813,28.4844 325.4375,28.1875 326.1875,27.6406 C326.7656,27.2344 327.0938,26.7813 327.0938,26.3906 C327.0938,25.9375 326.7031,25.5469 326.2344,25.5469 C326.0156,25.5469 325.8125,25.625 325.625,25.8125 C325.1719,26.2969 325.1719,26.2969 324.9844,26.3906 C324.5625,26.6563 323.875,26.7813 323.1094,26.7813 C321.0625,26.7813 319.7656,25.6875 319.7656,23.9844 L319.7656,22.8906 C319.7656,21.1094 321.0156,19.7969 322.75,19.7969 C323.3281,19.7969 323.9375,19.9531 324.4063,20.2031 C324.8906,20.4844 325.0625,20.7031 325.1563,21.1094 C325.2188,21.5156 325.25,21.6406 325.3906,21.7656 C325.5313,21.9063 325.7656,22.0156 325.9844,22.0156 C326.25,22.0156 326.5156,21.875 326.6875,21.6563 C326.7969,21.5 326.8281,21.3125 326.8281,20.8906 L326.8281,19.4688 C326.8281,19.0313 326.8125,18.9063 326.7188,18.75 C326.5625,18.4844 326.2813,18.3438 325.9844,18.3438 C325.6875,18.3438 325.4844,18.4375 325.2656,18.75 L325.0938,18.6719 Z " fill="#000000"/><text fill="#000000" font-family="sans-serif" font-size="12" lengthAdjust="spacing" textLength="75" x="343.25" y="27.1543">osd_window</text><line style="stroke:#000000;stroke-width:1.5;" x1="270.5" x2="458.5" y1="39" y2="39"/><ellipse cx="280.5" cy="50" rx="3" ry="3" style="stroke:#038048;stroke-width:1.0;fill:none;"/><text fill="#000000" font-family="sans-serif" font-size="11" lengthAdjust="spacing" textLength="59" x="289.5" y="53.2104">HDC m_dc</text><ellipse cx="280.5" cy="62.8047" rx="3" ry="3" style="stroke:#038048;stroke-width:1.0;fill:none;"/><text fill="#000000" font-family="sans-serif" font-size="11" lengthAdjust="spacing" textLength="164" x="289.5" y="66.0151">render_primitive[] m_primlist</text><line style="stroke:#000000;stroke-width:1.5;" x1="270.5" x2="458.5" y1="72.6094" y2="72.6094"/><ellipse cx="280.5" cy="83.6094" fill="#84BE84" rx="3" ry="3" style="stroke:#038048;stroke-width:1.0;"/><text fill="#000000" font-family="sans-serif" font-size="11" lengthAdjust="spacing" textLength="138" x="289.5" y="86.8198">osd_renderer renderer()</text><ellipse cx="280.5" cy="96.4141" fill="#84BE84" rx="3" ry="3" style="stroke:#038048;stroke-width:1.0;"/><text fill="#000000" font-family="sans-serif" font-size="11" font-style="italic" lengthAdjust="spacing" textLength="124" x="289.5" y="99.6245">render_target target()</text><ellipse cx="280.5" cy="109.2188" fill="#84BE84" rx="3" ry="3" style="stroke:#038048;stroke-width:1.0;"/><text fill="#000000" font-family="sans-serif" font-size="11" font-style="italic" lengthAdjust="spacing" textLength="157" x="289.5" y="112.4292">running_machine machine()</text><ellipse cx="280.5" cy="122.0234" fill="#84BE84" rx="3" ry="3" style="stroke:#038048;stroke-width:1.0;"/><text fill="#000000" font-family="sans-serif" font-size="11" font-style="italic" lengthAdjust="spacing" textLength="75" x="289.5" y="125.2339">void update()</text><!--MD5=[6fa9e83d24a0aa7f86cfa762e1267e99]
class DirectX--><rect codeLine="56" fill="#F5F5F5" height="48" id="DirectX" style="stroke:#000000;stroke-width:1.5;" width="76" x="503.5" y="562"/><ellipse cx="518.5" cy="578" fill="#ADD1B2" rx="11" ry="11" style="stroke:#000000;stroke-width:1.0;"/><path d="M517.2969,578.875 L518.75,578.875 L518.75,578.9844 C518.75,579.3906 518.7813,579.5469 518.8594,579.7031 C519.0156,579.9531 519.2969,580.1094 519.5938,580.1094 C519.8438,580.1094 520.1094,579.9688 520.2656,579.75 C520.3906,579.5938 520.4219,579.4375 520.4219,578.9844 L520.4219,577.0625 C520.4219,576.9063 520.4219,576.8594 520.4063,576.7031 C520.3438,576.2344 520.0313,575.9219 519.5781,575.9219 C519.3281,575.9219 519.0625,576.0625 518.8906,576.2813 C518.7813,576.4531 518.75,576.6094 518.75,577.0625 L518.75,577.1875 L517.2969,577.1875 L517.2969,574.7813 L521.2813,574.7813 L521.2813,575.6406 C521.2813,576.0469 521.3125,576.2188 521.3906,576.375 C521.5625,576.625 521.8438,576.7813 522.125,576.7813 C522.3906,576.7813 522.6563,576.6406 522.8281,576.4219 C522.9375,576.25 522.9688,576.1094 522.9688,575.6406 L522.9688,573.0938 L515.3438,573.0938 C514.9063,573.0938 514.7813,573.1094 514.625,573.2031 C514.375,573.3594 514.2188,573.6563 514.2188,573.9375 C514.2188,574.2188 514.3594,574.4688 514.5781,574.6406 C514.7344,574.75 514.9219,574.7813 515.3438,574.7813 L515.5938,574.7813 L515.5938,581.2969 L515.3438,581.2969 C514.9375,581.2969 514.7813,581.3125 514.625,581.4219 C514.375,581.5938 514.2188,581.8594 514.2188,582.1563 C514.2188,582.4219 514.3594,582.6719 514.5781,582.8281 C514.7188,582.9531 514.9531,583 515.3438,583 L523.3438,583 L523.3438,580.4219 C523.3438,579.9844 523.3125,579.8438 523.2344,579.6875 C523.0625,579.4375 522.7813,579.2813 522.5,579.2813 C522.2344,579.2813 521.9688,579.3906 521.7969,579.6406 C521.6875,579.7969 521.6563,579.9375 521.6563,580.4219 L521.6563,581.2969 L517.2969,581.2969 L517.2969,578.875 Z " fill="#000000"/><text fill="#000000" font-family="sans-serif" font-size="12" lengthAdjust="spacing" textLength="44" x="532.5" y="582.1543">DirectX</text><line style="stroke:#000000;stroke-width:1.5;" x1="504.5" x2="578.5" y1="594" y2="594"/><line style="stroke:#000000;stroke-width:1.5;" x1="504.5" x2="578.5" y1="602" y2="602"/><!--MD5=[4bd7bb7fad39ce8caab281d6b99195bd]
class OpenGL--><rect codeLine="57" fill="#F5F5F5" height="48" id="OpenGL" style="stroke:#000000;stroke-width:1.5;" width="80" x="348.5" y="562"/><ellipse cx="363.5" cy="578" fill="#ADD1B2" rx="11" ry="11" style="stroke:#000000;stroke-width:1.0;"/><path d="M362.2969,578.875 L363.75,578.875 L363.75,578.9844 C363.75,579.3906 363.7813,579.5469 363.8594,579.7031 C364.0156,579.9531 364.2969,580.1094 364.5938,580.1094 C364.8438,580.1094 365.1094,579.9688 365.2656,579.75 C365.3906,579.5938 365.4219,579.4375 365.4219,578.9844 L365.4219,577.0625 C365.4219,576.9063 365.4219,576.8594 365.4063,576.7031 C365.3438,576.2344 365.0313,575.9219 364.5781,575.9219 C364.3281,575.9219 364.0625,576.0625 363.8906,576.2813 C363.7813,576.4531 363.75,576.6094 363.75,577.0625 L363.75,577.1875 L362.2969,577.1875 L362.2969,574.7813 L366.2813,574.7813 L366.2813,575.6406 C366.2813,576.0469 366.3125,576.2188 366.3906,576.375 C366.5625,576.625 366.8438,576.7813 367.125,576.7813 C367.3906,576.7813 367.6563,576.6406 367.8281,576.4219 C367.9375,576.25 367.9688,576.1094 367.9688,575.6406 L367.9688,573.0938 L360.3438,573.0938 C359.9063,573.0938 359.7813,573.1094 359.625,573.2031 C359.375,573.3594 359.2188,573.6563 359.2188,573.9375 C359.2188,574.2188 359.3594,574.4688 359.5781,574.6406 C359.7344,574.75 359.9219,574.7813 360.3438,574.7813 L360.5938,574.7813 L360.5938,581.2969 L360.3438,581.2969 C359.9375,581.2969 359.7813,581.3125 359.625,581.4219 C359.375,581.5938 359.2188,581.8594 359.2188,582.1563 C359.2188,582.4219 359.3594,582.6719 359.5781,582.8281 C359.7188,582.9531 359.9531,583 360.3438,583 L368.3438,583 L368.3438,580.4219 C368.3438,579.9844 368.3125,579.8438 368.2344,579.6875 C368.0625,579.4375 367.7813,579.2813 367.5,579.2813 C367.2344,579.2813 366.9688,579.3906 366.7969,579.6406 C366.6875,579.7969 366.6563,579.9375 366.6563,580.4219 L366.6563,581.2969 L362.2969,581.2969 L362.2969,578.875 Z " fill="#000000"/><text fill="#000000" font-family="sans-serif" font-size="12" lengthAdjust="spacing" textLength="48" x="377.5" y="582.1543">OpenGL</text><line style="stroke:#000000;stroke-width:1.5;" x1="349.5" x2="427.5" y1="594" y2="594"/><line style="stroke:#000000;stroke-width:1.5;" x1="349.5" x2="427.5" y1="602" y2="602"/><!--MD5=[4f7cdbbcb0614833a3cb3cd70f9a01d7]
class renderer_ogl--><rect fill="#F5F5F5" height="48" id="renderer_ogl" style="stroke:#000000;stroke-width:1.5;" width="111" x="333" y="415.5"/><ellipse cx="348" cy="431.5" fill="#ADD1B2" rx="11" ry="11" style="stroke:#000000;stroke-width:1.0;"/><path d="M350.3438,427.1719 C349.4063,426.7344 348.8125,426.5938 347.9375,426.5938 C345.3125,426.5938 343.3125,428.6719 343.3125,431.3906 L343.3125,432.5156 C343.3125,435.0938 345.4219,436.9844 348.3125,436.9844 C349.5313,436.9844 350.6875,436.6875 351.4375,436.1406 C352.0156,435.7344 352.3438,435.2813 352.3438,434.8906 C352.3438,434.4375 351.9531,434.0469 351.4844,434.0469 C351.2656,434.0469 351.0625,434.125 350.875,434.3125 C350.4219,434.7969 350.4219,434.7969 350.2344,434.8906 C349.8125,435.1563 349.125,435.2813 348.3594,435.2813 C346.3125,435.2813 345.0156,434.1875 345.0156,432.4844 L345.0156,431.3906 C345.0156,429.6094 346.2656,428.2969 348,428.2969 C348.5781,428.2969 349.1875,428.4531 349.6563,428.7031 C350.1406,428.9844 350.3125,429.2031 350.4063,429.6094 C350.4688,430.0156 350.5,430.1406 350.6406,430.2656 C350.7813,430.4063 351.0156,430.5156 351.2344,430.5156 C351.5,430.5156 351.7656,430.375 351.9375,430.1563 C352.0469,430 352.0781,429.8125 352.0781,429.3906 L352.0781,427.9688 C352.0781,427.5313 352.0625,427.4063 351.9688,427.25 C351.8125,426.9844 351.5313,426.8438 351.2344,426.8438 C350.9375,426.8438 350.7344,426.9375 350.5156,427.25 L350.3438,427.1719 Z " fill="#000000"/><text fill="#000000" font-family="sans-serif" font-size="12" lengthAdjust="spacing" textLength="79" x="362" y="435.6543">renderer_ogl</text><line style="stroke:#000000;stroke-width:1.5;" x1="334" x2="443" y1="447.5" y2="447.5"/><line style="stroke:#000000;stroke-width:1.5;" x1="334" x2="443" y1="455.5" y2="455.5"/><!--MD5=[0c978744059a7eb68590198d9fce8828]
class renderer_d3d9--><rect fill="#F5F5F5" height="48" id="renderer_d3d9" style="stroke:#000000;stroke-width:1.5;" width="124" x="479.5" y="415.5"/><ellipse cx="494.5" cy="431.5" fill="#ADD1B2" rx="11" ry="11" style="stroke:#000000;stroke-width:1.0;"/><path d="M496.8438,427.1719 C495.9063,426.7344 495.3125,426.5938 494.4375,426.5938 C491.8125,426.5938 489.8125,428.6719 489.8125,431.3906 L489.8125,432.5156 C489.8125,435.0938 491.9219,436.9844 494.8125,436.9844 C496.0313,436.9844 497.1875,436.6875 497.9375,436.1406 C498.5156,435.7344 498.8438,435.2813 498.8438,434.8906 C498.8438,434.4375 498.4531,434.0469 497.9844,434.0469 C497.7656,434.0469 497.5625,434.125 497.375,434.3125 C496.9219,434.7969 496.9219,434.7969 496.7344,434.8906 C496.3125,435.1563 495.625,435.2813 494.8594,435.2813 C492.8125,435.2813 491.5156,434.1875 491.5156,432.4844 L491.5156,431.3906 C491.5156,429.6094 492.7656,428.2969 494.5,428.2969 C495.0781,428.2969 495.6875,428.4531 496.1563,428.7031 C496.6406,428.9844 496.8125,429.2031 496.9063,429.6094 C496.9688,430.0156 497,430.1406 497.1406,430.2656 C497.2813,430.4063 497.5156,430.5156 497.7344,430.5156 C498,430.5156 498.2656,430.375 498.4375,430.1563 C498.5469,430 498.5781,429.8125 498.5781,429.3906 L498.5781,427.9688 C498.5781,427.5313 498.5625,427.4063 498.4688,427.25 C498.3125,426.9844 498.0313,426.8438 497.7344,426.8438 C497.4375,426.8438 497.2344,426.9375 497.0156,427.25 L496.8438,427.1719 Z " fill="#000000"/><text fill="#000000" font-family="sans-serif" font-size="12" lengthAdjust="spacing" textLength="92" x="508.5" y="435.6543">renderer_d3d9</text><line style="stroke:#000000;stroke-width:1.5;" x1="480.5" x2="602.5" y1="447.5" y2="447.5"/><line style="stroke:#000000;stroke-width:1.5;" x1="480.5" x2="602.5" y1="455.5" y2="455.5"/><!--MD5=[7d1eb5f4f242cafd916c0318e1427735]
reverse link osd_renderer to renderer_ogl--><path codeLine="59" d="M388.5,337.133 C388.5,337.133 388.5,415.398 388.5,415.398 " fill="none" id="osd_renderer-backto-renderer_ogl" style="stroke:#000000;stroke-width:1.0;"/><polygon fill="none" points="381.5,337.133,388.5,317.133,395.5,337.133,381.5,337.133" style="stroke:#000000;stroke-width:1.0;"/><!--MD5=[eb3b0d5308633e1dc98d23ae2c8e4718]
link renderer_ogl to OpenGL--><path codeLine="60" d="M388.5,463.691 C388.5,490.836 388.5,534.614 388.5,561.7726 " fill="none" id="renderer_ogl-OpenGL" style="stroke:#000000;stroke-width:1.0;"/><!--MD5=[3c55a46c982b0fe8f767374b091ca731]
reverse link osd_renderer to renderer_d3d9--><path codeLine="61" d="M541.5,337.133 C541.5,337.133 541.5,415.398 541.5,415.398 " fill="none" id="osd_renderer-backto-renderer_d3d9" style="stroke:#000000;stroke-width:1.0;"/><polygon fill="none" points="534.5,337.133,541.5,317.133,548.5,337.133,534.5,337.133" style="stroke:#000000;stroke-width:1.0;"/><!--MD5=[e36597ee542c4be9b5dc64e967422281]
link renderer_d3d9 to DirectX--><path codeLine="62" d="M541.5,463.691 C541.5,490.836 541.5,534.614 541.5,561.7726 " fill="none" id="renderer_d3d9-DirectX" style="stroke:#000000;stroke-width:1.0;"/><!--MD5=[3495575551e38f818e7d7313fe052b96]
reverse link osd_renderer to renderer_sdl2--><path codeLine="63" d="M228.5,337.133 C228.5,337.133 228.5,376.932 228.5,376.932 " fill="none" id="osd_renderer-backto-renderer_sdl2" style="stroke:#000000;stroke-width:1.0;"/><polygon fill="none" points="221.5,337.133,228.5,317.133,235.5,337.133,221.5,337.133" style="stroke:#000000;stroke-width:1.0;"/><!--MD5=[c09426efe95c23c59e71dd9238351205]
link renderer_sdl2 to SDL_Renderer--><path codeLine="64" d="M183.5,502.054 C183.5,523.208 183.5,545.5772 183.5,561.9008 " fill="none" id="renderer_sdl2-SDL_Renderer" style="stroke:#000000;stroke-width:1.0;"/><!--MD5=[db91dadce38bf059abbdc26f81d8de2d]
link osd_window to osd_renderer--><path codeLine="66" d="M364.5,132.133 C364.5,151.42 364.5,172.649 364.5,191.932 " fill="none" id="osd_window-osd_renderer" style="stroke:#000000;stroke-width:1.0;"/><!--MD5=[89efb57c2a4b600924cf73bcd654655d]
link render_primitive to osd_window--><path codeLine="67" d="M211.012,70 C230.201,70 250.283,70 269.359,70 " fill="none" id="render_primitive-osd_window" style="stroke:#000000;stroke-width:1.0;"/><!--MD5=[caa3b76deb3ef8051b164f604c97a2bf]
link render_primitive to primitive_type--><path codeLine="68" d="M69,125.508 C69,155.286 69,191.072 69,217.389 " fill="none" id="render_primitive-primitive_type" style="stroke:#000000;stroke-width:1.0;"/><!--MD5=[0abd81ae167ba6ad83cb1cf615673cb9]
@startuml
skinparam Shadowing false
skinparam LineType ortho
skinparam ArrowColor black

skinparam class {
    BackgroundColor WhiteSmoke
    BorderColor black
}

enum primitive_type
{
	LINE
	QUAD
}

package SDL {
	class SDL_Renderer
}

class renderer_sdl2 {
	-SDL_Renderer sdl_renderer
	
	+int create()
	+render_primitive[] get_primitives()    
	+int draw(const int update)
	{static} +void init(running_machine machine)
	{static} +void exit()
}

class render_primitive {
	+render_bounds bounds
	+primitive_type type
	+render_color color
	+render_texinfo texture
	+render_quad_texuv texcoords
}

class osd_renderer {
    -osd_window  m_window
    +osd_window assert_window()
    {abstract} +int create()
    {abstract} +render_primitive[] get_primitives()
    {abstract} +int draw(const int update)
    {static} +osd_renderer make_for_type(int mode, osd_window window, int extra_flags)
}

class osd_window {
    +HDC m_dc
    +render_primitive[] m_primlist
    +osd_renderer renderer()        
    {abstract} +render_target target()    
    {abstract} +running_machine machine()
    {abstract} +void update()    
}

entity DirectX
entity OpenGL

renderer_ogl -u-|> osd_renderer
renderer_ogl -d- OpenGL
renderer_d3d9 -u-|> osd_renderer
renderer_d3d9 -d- DirectX
renderer_sdl2 -u-|> osd_renderer
renderer_sdl2 -d- SDL_Renderer

osd_renderer -u- osd_window
osd_window -l- render_primitive
render_primitive -d- primitive_type
@enduml

PlantUML version 1.2021.7(Sun May 23 12:40:07 UTC 2021)
(GPL source distribution)
Java Runtime: Java(TM) SE Runtime Environment
JVM: Java HotSpot(TM) 64-Bit Server VM
Default Encoding: UTF-8
Language: en
Country: US
--></g></svg>