<?xml version="1.0" encoding="UTF-8" standalone="no"?>
<svg xmlns="http://www.w3.org/2000/svg" xmlns:xlink="http://www.w3.org/1999/xlink" contentScriptType="application/ecmascript" contentStyleType="text/css" height="585px" preserveAspectRatio="none" style="width:1026px;height:585px;background:#FFFFFF;" version="1.1" viewBox="0 0 1026 585" width="1026px" zoomAndPan="magnify"><defs/><g><!--MD5=[cac353306241a567ca72fcdbb9cb5eee]
class renderer_sdl2--><rect codeLine="10" fill="#F5F5F5" height="214.4609" id="renderer_sdl2" style="stroke:#000000;stroke-width:1.5;" width="259" x="153" y="192"/><ellipse cx="235.25" cy="208" fill="#ADD1B2" rx="11" ry="11" style="stroke:#000000;stroke-width:1.0;"/><path d="M237.5938,203.6719 C236.6563,203.2344 236.0625,203.0938 235.1875,203.0938 C232.5625,203.0938 230.5625,205.1719 230.5625,207.8906 L230.5625,209.0156 C230.5625,211.5938 232.6719,213.4844 235.5625,213.4844 C236.7813,213.4844 237.9375,213.1875 238.6875,212.6406 C239.2656,212.2344 239.5938,211.7813 239.5938,211.3906 C239.5938,210.9375 239.2031,210.5469 238.7344,210.5469 C238.5156,210.5469 238.3125,210.625 238.125,210.8125 C237.6719,211.2969 237.6719,211.2969 237.4844,211.3906 C237.0625,211.6563 236.375,211.7813 235.6094,211.7813 C233.5625,211.7813 232.2656,210.6875 232.2656,208.9844 L232.2656,207.8906 C232.2656,206.1094 233.5156,204.7969 235.25,204.7969 C235.8281,204.7969 236.4375,204.9531 236.9063,205.2031 C237.3906,205.4844 237.5625,205.7031 237.6563,206.1094 C237.7188,206.5156 237.75,206.6406 237.8906,206.7656 C238.0313,206.9063 238.2656,207.0156 238.4844,207.0156 C238.75,207.0156 239.0156,206.875 239.1875,206.6563 C239.2969,206.5 239.3281,206.3125 239.3281,205.8906 L239.3281,204.4688 C239.3281,204.0313 239.3125,203.9063 239.2188,203.75 C239.0625,203.4844 238.7813,203.3438 238.4844,203.3438 C238.1875,203.3438 237.9844,203.4375 237.7656,203.75 L237.5938,203.6719 Z " fill="#000000"/><text fill="#000000" font-family="sans-serif" font-size="12" lengthAdjust="spacing" textLength="86" x="255.75" y="212.1543">renderer_sdl2</text><line style="stroke:#000000;stroke-width:1.5;" x1="154" x2="411" y1="224" y2="224"/><rect fill="none" height="6" style="stroke:#C82930;stroke-width:1.0;" width="6" x="161" y="232"/><text fill="#000000" font-family="sans-serif" font-size="11" lengthAdjust="spacing" textLength="158" x="173" y="238.2104">SDL_Renderer sdl_renderer</text><rect fill="none" height="6" style="stroke:#C82930;stroke-width:1.0;" width="6" x="161" y="244.8047"/><text fill="#000000" font-family="sans-serif" font-size="11" lengthAdjust="spacing" textLength="141" x="173" y="251.0151">SDL_Surface sdl_surface</text><rect fill="none" height="6" style="stroke:#C82930;stroke-width:1.0;" width="6" x="161" y="257.6094"/><text fill="#000000" font-family="sans-serif" font-size="11" lengthAdjust="spacing" textLength="127" x="173" y="263.8198">SDL_RWops sdl_buffer</text><text fill="#000000" font-family="sans-serif" font-size="11" lengthAdjust="spacing" textLength="0" x="177" y="276.6245"/><rect fill="none" height="6" style="stroke:#C82930;stroke-width:1.0;" width="6" x="161" y="283.2188"/><text fill="#000000" font-family="sans-serif" font-size="11" lengthAdjust="spacing" textLength="130" x="173" y="289.4292">char[] sdl_buffer_bytes</text><rect fill="none" height="6" style="stroke:#C82930;stroke-width:1.0;" width="6" x="161" y="296.0234"/><text fill="#000000" font-family="sans-serif" font-size="11" lengthAdjust="spacing" textLength="157" x="173" y="302.2339">int sdl_buffer_bytes_length;</text><line style="stroke:#000000;stroke-width:1.5;" x1="154" x2="411" y1="308.8281" y2="308.8281"/><rect fill="#F24D5C" height="6" style="stroke:#C82930;stroke-width:1.0;" width="6" x="161" y="316.8281"/><text fill="#000000" font-family="sans-serif" font-size="11" lengthAdjust="spacing" textLength="139" x="173" y="323.0386">free_streaming_render()</text><rect fill="#F24D5C" height="6" style="stroke:#C82930;stroke-width:1.0;" width="6" x="161" y="329.6328"/><text fill="#000000" font-family="sans-serif" font-size="11" lengthAdjust="spacing" textLength="233" x="173" y="335.8433">init_streaming_render(int w, int h, int fps)</text><ellipse cx="164" cy="345.4375" fill="#84BE84" rx="3" ry="3" style="stroke:#038048;stroke-width:1.0;"/><text fill="#000000" font-family="sans-serif" font-size="11" lengthAdjust="spacing" textLength="63" x="173" y="348.6479">int create()</text><ellipse cx="164" cy="358.2422" fill="#84BE84" rx="3" ry="3" style="stroke:#038048;stroke-width:1.0;"/><text fill="#000000" font-family="sans-serif" font-size="11" lengthAdjust="spacing" textLength="209" x="173" y="361.4526">render_primitive_list get_primitives()</text><ellipse cx="164" cy="371.0469" fill="#84BE84" rx="3" ry="3" style="stroke:#038048;stroke-width:1.0;"/><text fill="#000000" font-family="sans-serif" font-size="11" lengthAdjust="spacing" textLength="145" x="173" y="374.2573">int draw(const int update)</text><ellipse cx="164" cy="383.8516" fill="#84BE84" rx="3" ry="3" style="stroke:#038048;stroke-width:1.0;"/><text fill="#000000" font-family="sans-serif" font-size="11" lengthAdjust="spacing" text-decoration="underline" textLength="203" x="173" y="387.062">void init(running_machine machine)</text><ellipse cx="164" cy="396.6563" fill="#84BE84" rx="3" ry="3" style="stroke:#038048;stroke-width:1.0;"/><text fill="#000000" font-family="sans-serif" font-size="11" lengthAdjust="spacing" text-decoration="underline" textLength="58" x="173" y="399.8667">void exit()</text><!--MD5=[88dbb0a63bb3c138d97a6fe7989da878]
class osd_renderer--><rect codeLine="41" fill="#F5F5F5" height="124.8281" id="osd_renderer" style="stroke:#000000;stroke-width:1.5;" width="459" x="53" y="7"/><ellipse cx="236.75" cy="23" fill="#ADD1B2" rx="11" ry="11" style="stroke:#000000;stroke-width:1.0;"/><path d="M239.0938,18.6719 C238.1563,18.2344 237.5625,18.0938 236.6875,18.0938 C234.0625,18.0938 232.0625,20.1719 232.0625,22.8906 L232.0625,24.0156 C232.0625,26.5938 234.1719,28.4844 237.0625,28.4844 C238.2813,28.4844 239.4375,28.1875 240.1875,27.6406 C240.7656,27.2344 241.0938,26.7813 241.0938,26.3906 C241.0938,25.9375 240.7031,25.5469 240.2344,25.5469 C240.0156,25.5469 239.8125,25.625 239.625,25.8125 C239.1719,26.2969 239.1719,26.2969 238.9844,26.3906 C238.5625,26.6563 237.875,26.7813 237.1094,26.7813 C235.0625,26.7813 233.7656,25.6875 233.7656,23.9844 L233.7656,22.8906 C233.7656,21.1094 235.0156,19.7969 236.75,19.7969 C237.3281,19.7969 237.9375,19.9531 238.4063,20.2031 C238.8906,20.4844 239.0625,20.7031 239.1563,21.1094 C239.2188,21.5156 239.25,21.6406 239.3906,21.7656 C239.5313,21.9063 239.7656,22.0156 239.9844,22.0156 C240.25,22.0156 240.5156,21.875 240.6875,21.6563 C240.7969,21.5 240.8281,21.3125 240.8281,20.8906 L240.8281,19.4688 C240.8281,19.0313 240.8125,18.9063 240.7188,18.75 C240.5625,18.4844 240.2813,18.3438 239.9844,18.3438 C239.6875,18.3438 239.4844,18.4375 239.2656,18.75 L239.0938,18.6719 Z " fill="#000000"/><text fill="#000000" font-family="sans-serif" font-size="12" lengthAdjust="spacing" textLength="83" x="257.25" y="27.1543">osd_renderer</text><line style="stroke:#000000;stroke-width:1.5;" x1="54" x2="511" y1="39" y2="39"/><rect fill="none" height="6" style="stroke:#C82930;stroke-width:1.0;" width="6" x="61" y="47"/><text fill="#000000" font-family="sans-serif" font-size="11" lengthAdjust="spacing" textLength="135" x="73" y="53.2104">osd_window  m_window</text><line style="stroke:#000000;stroke-width:1.5;" x1="54" x2="511" y1="59.8047" y2="59.8047"/><ellipse cx="64" cy="70.8047" fill="#84BE84" rx="3" ry="3" style="stroke:#038048;stroke-width:1.0;"/><text fill="#000000" font-family="sans-serif" font-size="11" lengthAdjust="spacing" textLength="163" x="73" y="74.0151">osd_window assert_window()</text><ellipse cx="64" cy="83.6094" fill="#84BE84" rx="3" ry="3" style="stroke:#038048;stroke-width:1.0;"/><text fill="#000000" font-family="sans-serif" font-size="11" font-style="italic" lengthAdjust="spacing" textLength="62" x="73" y="86.8198">int create()</text><ellipse cx="64" cy="96.4141" fill="#84BE84" rx="3" ry="3" style="stroke:#038048;stroke-width:1.0;"/><text fill="#000000" font-family="sans-serif" font-size="11" font-style="italic" lengthAdjust="spacing" textLength="208" x="73" y="99.6245">render_primitive_list get_primitives()</text><ellipse cx="64" cy="109.2188" fill="#84BE84" rx="3" ry="3" style="stroke:#038048;stroke-width:1.0;"/><text fill="#000000" font-family="sans-serif" font-size="11" font-style="italic" lengthAdjust="spacing" textLength="145" x="73" y="112.4292">int draw(const int update)</text><ellipse cx="64" cy="122.0234" fill="#84BE84" rx="3" ry="3" style="stroke:#038048;stroke-width:1.0;"/><text fill="#000000" font-family="sans-serif" font-size="11" lengthAdjust="spacing" text-decoration="underline" textLength="433" x="73" y="125.2339">osd_renderer make_for_type(int mode, osd_window window, int extra_flags)</text><!--MD5=[69a7ee1b5d99870f7895004edce15057]
class SDL_Renderer--><rect fill="#F5F5F5" height="48" id="SDL_Renderer" style="stroke:#000000;stroke-width:1.5;" width="117" x="7" y="498"/><ellipse cx="22" cy="514" fill="#ADD1B2" rx="11" ry="11" style="stroke:#000000;stroke-width:1.0;"/><path d="M24.3438,509.6719 C23.4063,509.2344 22.8125,509.0938 21.9375,509.0938 C19.3125,509.0938 17.3125,511.1719 17.3125,513.8906 L17.3125,515.0156 C17.3125,517.5938 19.4219,519.4844 22.3125,519.4844 C23.5313,519.4844 24.6875,519.1875 25.4375,518.6406 C26.0156,518.2344 26.3438,517.7813 26.3438,517.3906 C26.3438,516.9375 25.9531,516.5469 25.4844,516.5469 C25.2656,516.5469 25.0625,516.625 24.875,516.8125 C24.4219,517.2969 24.4219,517.2969 24.2344,517.3906 C23.8125,517.6563 23.125,517.7813 22.3594,517.7813 C20.3125,517.7813 19.0156,516.6875 19.0156,514.9844 L19.0156,513.8906 C19.0156,512.1094 20.2656,510.7969 22,510.7969 C22.5781,510.7969 23.1875,510.9531 23.6563,511.2031 C24.1406,511.4844 24.3125,511.7031 24.4063,512.1094 C24.4688,512.5156 24.5,512.6406 24.6406,512.7656 C24.7813,512.9063 25.0156,513.0156 25.2344,513.0156 C25.5,513.0156 25.7656,512.875 25.9375,512.6563 C26.0469,512.5 26.0781,512.3125 26.0781,511.8906 L26.0781,510.4688 C26.0781,510.0313 26.0625,509.9063 25.9688,509.75 C25.8125,509.4844 25.5313,509.3438 25.2344,509.3438 C24.9375,509.3438 24.7344,509.4375 24.5156,509.75 L24.3438,509.6719 Z " fill="#000000"/><text fill="#000000" font-family="sans-serif" font-size="12" lengthAdjust="spacing" textLength="85" x="36" y="518.1543">SDL_Renderer</text><line style="stroke:#000000;stroke-width:1.5;" x1="8" x2="123" y1="530" y2="530"/><line style="stroke:#000000;stroke-width:1.5;" x1="8" x2="123" y1="538" y2="538"/><!--MD5=[2d1a2f3bb2059553db60cdc96d9849c8]
class SDL_Surface--><rect fill="#F5F5F5" height="48" id="SDL_Surface" style="stroke:#000000;stroke-width:1.5;" width="107" x="159" y="498"/><ellipse cx="174" cy="514" fill="#ADD1B2" rx="11" ry="11" style="stroke:#000000;stroke-width:1.0;"/><path d="M176.3438,509.6719 C175.4063,509.2344 174.8125,509.0938 173.9375,509.0938 C171.3125,509.0938 169.3125,511.1719 169.3125,513.8906 L169.3125,515.0156 C169.3125,517.5938 171.4219,519.4844 174.3125,519.4844 C175.5313,519.4844 176.6875,519.1875 177.4375,518.6406 C178.0156,518.2344 178.3438,517.7813 178.3438,517.3906 C178.3438,516.9375 177.9531,516.5469 177.4844,516.5469 C177.2656,516.5469 177.0625,516.625 176.875,516.8125 C176.4219,517.2969 176.4219,517.2969 176.2344,517.3906 C175.8125,517.6563 175.125,517.7813 174.3594,517.7813 C172.3125,517.7813 171.0156,516.6875 171.0156,514.9844 L171.0156,513.8906 C171.0156,512.1094 172.2656,510.7969 174,510.7969 C174.5781,510.7969 175.1875,510.9531 175.6563,511.2031 C176.1406,511.4844 176.3125,511.7031 176.4063,512.1094 C176.4688,512.5156 176.5,512.6406 176.6406,512.7656 C176.7813,512.9063 177.0156,513.0156 177.2344,513.0156 C177.5,513.0156 177.7656,512.875 177.9375,512.6563 C178.0469,512.5 178.0781,512.3125 178.0781,511.8906 L178.0781,510.4688 C178.0781,510.0313 178.0625,509.9063 177.9688,509.75 C177.8125,509.4844 177.5313,509.3438 177.2344,509.3438 C176.9375,509.3438 176.7344,509.4375 176.5156,509.75 L176.3438,509.6719 Z " fill="#000000"/><text fill="#000000" font-family="sans-serif" font-size="12" lengthAdjust="spacing" textLength="75" x="188" y="518.1543">SDL_Surface</text><line style="stroke:#000000;stroke-width:1.5;" x1="160" x2="265" y1="530" y2="530"/><line style="stroke:#000000;stroke-width:1.5;" x1="160" x2="265" y1="538" y2="538"/><!--MD5=[927ed6f33131d04cf264b2c7fa805491]
class SDL_RWops--><rect fill="#F5F5F5" height="48" id="SDL_RWops" style="stroke:#000000;stroke-width:1.5;" width="103" x="301" y="498"/><ellipse cx="316" cy="514" fill="#ADD1B2" rx="11" ry="11" style="stroke:#000000;stroke-width:1.0;"/><path d="M318.3438,509.6719 C317.4063,509.2344 316.8125,509.0938 315.9375,509.0938 C313.3125,509.0938 311.3125,511.1719 311.3125,513.8906 L311.3125,515.0156 C311.3125,517.5938 313.4219,519.4844 316.3125,519.4844 C317.5313,519.4844 318.6875,519.1875 319.4375,518.6406 C320.0156,518.2344 320.3438,517.7813 320.3438,517.3906 C320.3438,516.9375 319.9531,516.5469 319.4844,516.5469 C319.2656,516.5469 319.0625,516.625 318.875,516.8125 C318.4219,517.2969 318.4219,517.2969 318.2344,517.3906 C317.8125,517.6563 317.125,517.7813 316.3594,517.7813 C314.3125,517.7813 313.0156,516.6875 313.0156,514.9844 L313.0156,513.8906 C313.0156,512.1094 314.2656,510.7969 316,510.7969 C316.5781,510.7969 317.1875,510.9531 317.6563,511.2031 C318.1406,511.4844 318.3125,511.7031 318.4063,512.1094 C318.4688,512.5156 318.5,512.6406 318.6406,512.7656 C318.7813,512.9063 319.0156,513.0156 319.2344,513.0156 C319.5,513.0156 319.7656,512.875 319.9375,512.6563 C320.0469,512.5 320.0781,512.3125 320.0781,511.8906 L320.0781,510.4688 C320.0781,510.0313 320.0625,509.9063 319.9688,509.75 C319.8125,509.4844 319.5313,509.3438 319.2344,509.3438 C318.9375,509.3438 318.7344,509.4375 318.5156,509.75 L318.3438,509.6719 Z " fill="#000000"/><text fill="#000000" font-family="sans-serif" font-size="12" lengthAdjust="spacing" textLength="71" x="330" y="518.1543">SDL_RWops</text><line style="stroke:#000000;stroke-width:1.5;" x1="302" x2="403" y1="530" y2="530"/><line style="stroke:#000000;stroke-width:1.5;" x1="302" x2="403" y1="538" y2="538"/><!--MD5=[6212070bac9231021e2c900118362517]
class streaming_server--><rect codeLine="33" fill="#F5F5F5" height="112.0234" id="streaming_server" style="stroke:#000000;stroke-width:1.5;" width="580" x="439.5" y="466"/><ellipse cx="672.25" cy="482" fill="#ADD1B2" rx="11" ry="11" style="stroke:#000000;stroke-width:1.0;"/><path d="M674.5938,477.6719 C673.6563,477.2344 673.0625,477.0938 672.1875,477.0938 C669.5625,477.0938 667.5625,479.1719 667.5625,481.8906 L667.5625,483.0156 C667.5625,485.5938 669.6719,487.4844 672.5625,487.4844 C673.7813,487.4844 674.9375,487.1875 675.6875,486.6406 C676.2656,486.2344 676.5938,485.7813 676.5938,485.3906 C676.5938,484.9375 676.2031,484.5469 675.7344,484.5469 C675.5156,484.5469 675.3125,484.625 675.125,484.8125 C674.6719,485.2969 674.6719,485.2969 674.4844,485.3906 C674.0625,485.6563 673.375,485.7813 672.6094,485.7813 C670.5625,485.7813 669.2656,484.6875 669.2656,482.9844 L669.2656,481.8906 C669.2656,480.1094 670.5156,478.7969 672.25,478.7969 C672.8281,478.7969 673.4375,478.9531 673.9063,479.2031 C674.3906,479.4844 674.5625,479.7031 674.6563,480.1094 C674.7188,480.5156 674.75,480.6406 674.8906,480.7656 C675.0313,480.9063 675.2656,481.0156 675.4844,481.0156 C675.75,481.0156 676.0156,480.875 676.1875,480.6563 C676.2969,480.5 676.3281,480.3125 676.3281,479.8906 L676.3281,478.4688 C676.3281,478.0313 676.3125,477.9063 676.2188,477.75 C676.0625,477.4844 675.7813,477.3438 675.4844,477.3438 C675.1875,477.3438 674.9844,477.4375 674.7656,477.75 L674.5938,477.6719 Z " fill="#000000"/><text fill="#000000" font-family="sans-serif" font-size="12" lengthAdjust="spacing" textLength="106" x="692.75" y="486.1543">streaming_server</text><line style="stroke:#000000;stroke-width:1.5;" x1="440.5" x2="1018.5" y1="498" y2="498"/><line style="stroke:#000000;stroke-width:1.5;" x1="440.5" x2="1018.5" y1="506" y2="506"/><ellipse cx="450.5" cy="517" fill="#84BE84" rx="3" ry="3" style="stroke:#038048;stroke-width:1.0;"/><text fill="#000000" font-family="sans-serif" font-size="11" lengthAdjust="spacing" textLength="94" x="459.5" y="520.2104">start(ushort port)</text><ellipse cx="450.5" cy="529.8047" fill="#84BE84" rx="3" ry="3" style="stroke:#038048;stroke-width:1.0;"/><text fill="#000000" font-family="sans-serif" font-size="11" lengthAdjust="spacing" textLength="184" x="459.5" y="533.0151">send_video_frame(char[] pixels)</text><ellipse cx="450.5" cy="542.6094" fill="#84BE84" rx="3" ry="3" style="stroke:#038048;stroke-width:1.0;"/><text fill="#000000" font-family="sans-serif" font-size="11" lengthAdjust="spacing" textLength="554" x="459.5" y="545.8198">send_audio_interval(char[] audio_stream, int audio_stream_size, int audio_stream_num_samples)</text><ellipse cx="450.5" cy="555.4141" fill="#84BE84" rx="3" ry="3" style="stroke:#038048;stroke-width:1.0;"/><text fill="#000000" font-family="sans-serif" font-size="11" lengthAdjust="spacing" textLength="266" x="459.5" y="558.6245">generate_key_event(char[] key, bool pressed)</text><rect fill="#F24D5C" height="6" style="stroke:#C82930;stroke-width:1.0;" width="6" x="447.5" y="565.2188"/><text fill="#000000" font-family="sans-serif" font-size="11" lengthAdjust="spacing" textLength="124" x="459.5" y="571.4292">send(ostream socket)</text><!--MD5=[3495575551e38f818e7d7313fe052b96]
reverse link osd_renderer to renderer_sdl2--><path d="M282.5,152.212 C282.5,152.212 282.5,191.788 282.5,191.788 " fill="none" id="osd_renderer-backto-renderer_sdl2" style="stroke:#000000;stroke-width:1.0;"/><polygon fill="none" points="275.5,152.212,282.5,132.212,289.5,152.212,275.5,152.212" style="stroke:#000000;stroke-width:1.0;"/><!--MD5=[c09426efe95c23c59e71dd9238351205]
link renderer_sdl2 to SDL_Renderer--><path codeLine="28" d="M152.83,299 C117.367,299 88.5,299 88.5,299 C88.5,299 88.5,439.914 88.5,497.7106 " fill="none" id="renderer_sdl2-SDL_Renderer" style="stroke:#000000;stroke-width:1.0;"/><!--MD5=[5c684f065f99d98582c4a6b26517b381]
link renderer_sdl2 to SDL_Surface--><path codeLine="29" d="M212.5,406.254 C212.5,440.621 212.5,475.526 212.5,497.8851 " fill="none" id="renderer_sdl2-SDL_Surface" style="stroke:#000000;stroke-width:1.0;"/><!--MD5=[9138765db5415effd4b8b21f4cf5c7a7]
link renderer_sdl2 to SDL_RWops--><path codeLine="30" d="M352.5,406.254 C352.5,440.621 352.5,475.526 352.5,497.8851 " fill="none" id="renderer_sdl2-SDL_RWops" style="stroke:#000000;stroke-width:1.0;"/><!--MD5=[144cad93b26dd5138e2abdd4c10a7639]
link renderer_sdl2 to streaming_server--><path codeLine="31" d="M408,406.246 C408,446.186 408,482 408,482 C408,482 420.02,482 439.412,482 " fill="none" id="renderer_sdl2-streaming_server" style="stroke:#000000;stroke-width:1.0;"/><!--MD5=[120e1abbc403e2f160a0dcfac3e00516]
@startuml
skinparam Shadowing false
skinparam LineType ortho
skinparam ArrowColor black

skinparam class {
    BackgroundColor WhiteSmoke
    BorderColor black
}

class renderer_sdl2 extends osd_renderer {
	-free_streaming_render()
	-init_streaming_render(int w, int h, int fps)
	
	-SDL_Renderer sdl_renderer
	-SDL_Surface sdl_surface
	-SDL_RWops sdl_buffer

	-char[] sdl_buffer_bytes
	-int sdl_buffer_bytes_length;
	
	+int create()
	+render_primitive_list get_primitives()    
	+int draw(const int update)
	{static} +void init(running_machine machine)
	{static} +void exit()
}

renderer_sdl2 - - SDL_Renderer
renderer_sdl2 - - SDL_Surface
renderer_sdl2 - - SDL_RWops
renderer_sdl2 - - streaming_server

class streaming_server {
	+start(ushort port)
	+send_video_frame(char[] pixels)
	+send_audio_interval(char[] audio_stream, int audio_stream_size, int audio_stream_num_samples)
	+generate_key_event(char[] key, bool pressed)
	-send(ostream socket)
}

class osd_renderer {
	-osd_window  m_window
	+osd_window assert_window()
	{abstract} +int create()
	{abstract} +render_primitive_list get_primitives()
	{abstract} +int draw(const int update)
	{static} +osd_renderer make_for_type(int mode, osd_window window, int extra_flags)
}
@enduml

PlantUML version 1.2021.7beta4(Unknown compile time)
(GPL source distribution)
Java Runtime: Java(TM) SE Runtime Environment
JVM: Java HotSpot(TM) 64-Bit Server VM
Default Encoding: UTF-8
Language: en
Country: US
--></g></svg>