<?xml version="1.0" encoding="UTF-8" standalone="no"?>
<svg xmlns="http://www.w3.org/2000/svg" xmlns:xlink="http://www.w3.org/1999/xlink" contentScriptType="application/ecmascript" contentStyleType="text/css" height="247px" preserveAspectRatio="none" style="width:1159px;height:247px;background:#FFFFFF;" version="1.1" viewBox="0 0 1159 247" width="1159px" zoomAndPan="magnify"><defs/><g><!--MD5=[4cfa4680da27fbe5a20443effd4892a1]
class primitive_type--><rect codeLine="10" fill="#F5F5F5" height="73.6094" id="primitive_type" style="stroke:#000000;stroke-width:1.5;" width="117" x="7" y="32.5"/><ellipse cx="22" cy="48.5" fill="#EB937F" rx="11" ry="11" style="stroke:#000000;stroke-width:1.0;"/><path d="M20.7969,49.375 L22.25,49.375 L22.25,49.4844 C22.25,49.8906 22.2813,50.0469 22.3594,50.2031 C22.5156,50.4531 22.7969,50.6094 23.0938,50.6094 C23.3438,50.6094 23.6094,50.4688 23.7656,50.25 C23.8906,50.0938 23.9219,49.9375 23.9219,49.4844 L23.9219,47.5625 C23.9219,47.4063 23.9219,47.3594 23.9063,47.2031 C23.8438,46.7344 23.5313,46.4219 23.0781,46.4219 C22.8281,46.4219 22.5625,46.5625 22.3906,46.7813 C22.2813,46.9531 22.25,47.1094 22.25,47.5625 L22.25,47.6875 L20.7969,47.6875 L20.7969,45.2813 L24.7813,45.2813 L24.7813,46.1406 C24.7813,46.5469 24.8125,46.7188 24.8906,46.875 C25.0625,47.125 25.3438,47.2813 25.625,47.2813 C25.8906,47.2813 26.1563,47.1406 26.3281,46.9219 C26.4375,46.75 26.4688,46.6094 26.4688,46.1406 L26.4688,43.5938 L18.8438,43.5938 C18.4063,43.5938 18.2813,43.6094 18.125,43.7031 C17.875,43.8594 17.7188,44.1563 17.7188,44.4375 C17.7188,44.7188 17.8594,44.9688 18.0781,45.1406 C18.2344,45.25 18.4219,45.2813 18.8438,45.2813 L19.0938,45.2813 L19.0938,51.7969 L18.8438,51.7969 C18.4375,51.7969 18.2813,51.8125 18.125,51.9219 C17.875,52.0938 17.7188,52.3594 17.7188,52.6563 C17.7188,52.9219 17.8594,53.1719 18.0781,53.3281 C18.2188,53.4531 18.4531,53.5 18.8438,53.5 L26.8438,53.5 L26.8438,50.9219 C26.8438,50.4844 26.8125,50.3438 26.7344,50.1875 C26.5625,49.9375 26.2813,49.7813 26,49.7813 C25.7344,49.7813 25.4688,49.8906 25.2969,50.1406 C25.1875,50.2969 25.1563,50.4375 25.1563,50.9219 L25.1563,51.7969 L20.7969,51.7969 L20.7969,49.375 Z " fill="#000000"/><text fill="#000000" font-family="sans-serif" font-size="12" lengthAdjust="spacing" textLength="85" x="36" y="52.6543">primitive_type</text><line style="stroke:#000000;stroke-width:1.5;" x1="8" x2="123" y1="64.5" y2="64.5"/><text fill="#000000" font-family="sans-serif" font-size="11" lengthAdjust="spacing" textLength="24" x="13" y="78.7104">LINE</text><text fill="#000000" font-family="sans-serif" font-size="11" lengthAdjust="spacing" textLength="34" x="13" y="91.5151">QUAD</text><line style="stroke:#000000;stroke-width:1.5;" x1="8" x2="123" y1="98.1094" y2="98.1094"/><!--MD5=[0b7f25afcb55c3dc5203e82f5f3c72d4]
class render_primitive--><rect codeLine="16" fill="#F5F5F5" height="112.0234" id="render_primitive" style="stroke:#000000;stroke-width:1.5;" width="197" x="159" y="13.5"/><ellipse cx="203.75" cy="29.5" fill="#ADD1B2" rx="11" ry="11" style="stroke:#000000;stroke-width:1.0;"/><path d="M206.0938,25.1719 C205.1563,24.7344 204.5625,24.5938 203.6875,24.5938 C201.0625,24.5938 199.0625,26.6719 199.0625,29.3906 L199.0625,30.5156 C199.0625,33.0938 201.1719,34.9844 204.0625,34.9844 C205.2813,34.9844 206.4375,34.6875 207.1875,34.1406 C207.7656,33.7344 208.0938,33.2813 208.0938,32.8906 C208.0938,32.4375 207.7031,32.0469 207.2344,32.0469 C207.0156,32.0469 206.8125,32.125 206.625,32.3125 C206.1719,32.7969 206.1719,32.7969 205.9844,32.8906 C205.5625,33.1563 204.875,33.2813 204.1094,33.2813 C202.0625,33.2813 200.7656,32.1875 200.7656,30.4844 L200.7656,29.3906 C200.7656,27.6094 202.0156,26.2969 203.75,26.2969 C204.3281,26.2969 204.9375,26.4531 205.4063,26.7031 C205.8906,26.9844 206.0625,27.2031 206.1563,27.6094 C206.2188,28.0156 206.25,28.1406 206.3906,28.2656 C206.5313,28.4063 206.7656,28.5156 206.9844,28.5156 C207.25,28.5156 207.5156,28.375 207.6875,28.1563 C207.7969,28 207.8281,27.8125 207.8281,27.3906 L207.8281,25.9688 C207.8281,25.5313 207.8125,25.4063 207.7188,25.25 C207.5625,24.9844 207.2813,24.8438 206.9844,24.8438 C206.6875,24.8438 206.4844,24.9375 206.2656,25.25 L206.0938,25.1719 Z " fill="#000000"/><text fill="#000000" font-family="sans-serif" font-size="12" lengthAdjust="spacing" textLength="99" x="224.25" y="33.6543">render_primitive</text><line style="stroke:#000000;stroke-width:1.5;" x1="160" x2="355" y1="45.5" y2="45.5"/><ellipse cx="170" cy="56.5" rx="3" ry="3" style="stroke:#038048;stroke-width:1.0;fill:none;"/><text fill="#000000" font-family="sans-serif" font-size="11" lengthAdjust="spacing" textLength="130" x="179" y="59.7104">render_bounds bounds</text><ellipse cx="170" cy="69.3047" rx="3" ry="3" style="stroke:#038048;stroke-width:1.0;fill:none;"/><text fill="#000000" font-family="sans-serif" font-size="11" lengthAdjust="spacing" textLength="112" x="179" y="72.5151">primitive_type type</text><ellipse cx="170" cy="82.1094" rx="3" ry="3" style="stroke:#038048;stroke-width:1.0;fill:none;"/><text fill="#000000" font-family="sans-serif" font-size="11" lengthAdjust="spacing" textLength="102" x="179" y="85.3198">render_color color</text><ellipse cx="170" cy="94.9141" rx="3" ry="3" style="stroke:#038048;stroke-width:1.0;fill:none;"/><text fill="#000000" font-family="sans-serif" font-size="11" lengthAdjust="spacing" textLength="130" x="179" y="98.1245">render_texinfo texture</text><ellipse cx="170" cy="107.7188" rx="3" ry="3" style="stroke:#038048;stroke-width:1.0;fill:none;"/><text fill="#000000" font-family="sans-serif" font-size="11" lengthAdjust="spacing" textLength="171" x="179" y="110.9292">render_quad_texuv texcoords</text><line style="stroke:#000000;stroke-width:1.5;" x1="160" x2="355" y1="117.5234" y2="117.5234"/><!--MD5=[88dbb0a63bb3c138d97a6fe7989da878]
class osd_renderer--><rect codeLine="24" fill="#F5F5F5" height="124.8281" id="osd_renderer" style="stroke:#000000;stroke-width:1.5;" width="459" x="617" y="7"/><ellipse cx="800.75" cy="23" fill="#ADD1B2" rx="11" ry="11" style="stroke:#000000;stroke-width:1.0;"/><path d="M803.0938,18.6719 C802.1563,18.2344 801.5625,18.0938 800.6875,18.0938 C798.0625,18.0938 796.0625,20.1719 796.0625,22.8906 L796.0625,24.0156 C796.0625,26.5938 798.1719,28.4844 801.0625,28.4844 C802.2813,28.4844 803.4375,28.1875 804.1875,27.6406 C804.7656,27.2344 805.0938,26.7813 805.0938,26.3906 C805.0938,25.9375 804.7031,25.5469 804.2344,25.5469 C804.0156,25.5469 803.8125,25.625 803.625,25.8125 C803.1719,26.2969 803.1719,26.2969 802.9844,26.3906 C802.5625,26.6563 801.875,26.7813 801.1094,26.7813 C799.0625,26.7813 797.7656,25.6875 797.7656,23.9844 L797.7656,22.8906 C797.7656,21.1094 799.0156,19.7969 800.75,19.7969 C801.3281,19.7969 801.9375,19.9531 802.4063,20.2031 C802.8906,20.4844 803.0625,20.7031 803.1563,21.1094 C803.2188,21.5156 803.25,21.6406 803.3906,21.7656 C803.5313,21.9063 803.7656,22.0156 803.9844,22.0156 C804.25,22.0156 804.5156,21.875 804.6875,21.6563 C804.7969,21.5 804.8281,21.3125 804.8281,20.8906 L804.8281,19.4688 C804.8281,19.0313 804.8125,18.9063 804.7188,18.75 C804.5625,18.4844 804.2813,18.3438 803.9844,18.3438 C803.6875,18.3438 803.4844,18.4375 803.2656,18.75 L803.0938,18.6719 Z " fill="#000000"/><text fill="#000000" font-family="sans-serif" font-size="12" lengthAdjust="spacing" textLength="83" x="821.25" y="27.1543">osd_renderer</text><line style="stroke:#000000;stroke-width:1.5;" x1="618" x2="1075" y1="39" y2="39"/><rect fill="none" height="6" style="stroke:#C82930;stroke-width:1.0;" width="6" x="625" y="47"/><text fill="#000000" font-family="sans-serif" font-size="11" lengthAdjust="spacing" textLength="135" x="637" y="53.2104">osd_window  m_window</text><line style="stroke:#000000;stroke-width:1.5;" x1="618" x2="1075" y1="59.8047" y2="59.8047"/><ellipse cx="628" cy="70.8047" fill="#84BE84" rx="3" ry="3" style="stroke:#038048;stroke-width:1.0;"/><text fill="#000000" font-family="sans-serif" font-size="11" lengthAdjust="spacing" textLength="163" x="637" y="74.0151">osd_window assert_window()</text><ellipse cx="628" cy="83.6094" fill="#84BE84" rx="3" ry="3" style="stroke:#038048;stroke-width:1.0;"/><text fill="#000000" font-family="sans-serif" font-size="11" font-style="italic" lengthAdjust="spacing" textLength="62" x="637" y="86.8198">int create()</text><ellipse cx="628" cy="96.4141" fill="#84BE84" rx="3" ry="3" style="stroke:#038048;stroke-width:1.0;"/><text fill="#000000" font-family="sans-serif" font-size="11" font-style="italic" lengthAdjust="spacing" textLength="194" x="637" y="99.6245">render_primitive[] get_primitives()</text><ellipse cx="628" cy="109.2188" fill="#84BE84" rx="3" ry="3" style="stroke:#038048;stroke-width:1.0;"/><text fill="#000000" font-family="sans-serif" font-size="11" font-style="italic" lengthAdjust="spacing" textLength="145" x="637" y="112.4292">int draw(const int update)</text><ellipse cx="628" cy="122.0234" fill="#84BE84" rx="3" ry="3" style="stroke:#038048;stroke-width:1.0;"/><text fill="#000000" font-family="sans-serif" font-size="11" lengthAdjust="spacing" text-decoration="underline" textLength="433" x="637" y="125.2339">osd_renderer make_for_type(int mode, osd_window window, int extra_flags)</text><!--MD5=[c5840b911fc8ca21582617c87d822171]
class osd_window--><rect codeLine="33" fill="#F5F5F5" height="124.8281" id="osd_window" style="stroke:#000000;stroke-width:1.5;" width="190" x="391.5" y="7"/><ellipse cx="444.75" cy="23" fill="#ADD1B2" rx="11" ry="11" style="stroke:#000000;stroke-width:1.0;"/><path d="M447.0938,18.6719 C446.1563,18.2344 445.5625,18.0938 444.6875,18.0938 C442.0625,18.0938 440.0625,20.1719 440.0625,22.8906 L440.0625,24.0156 C440.0625,26.5938 442.1719,28.4844 445.0625,28.4844 C446.2813,28.4844 447.4375,28.1875 448.1875,27.6406 C448.7656,27.2344 449.0938,26.7813 449.0938,26.3906 C449.0938,25.9375 448.7031,25.5469 448.2344,25.5469 C448.0156,25.5469 447.8125,25.625 447.625,25.8125 C447.1719,26.2969 447.1719,26.2969 446.9844,26.3906 C446.5625,26.6563 445.875,26.7813 445.1094,26.7813 C443.0625,26.7813 441.7656,25.6875 441.7656,23.9844 L441.7656,22.8906 C441.7656,21.1094 443.0156,19.7969 444.75,19.7969 C445.3281,19.7969 445.9375,19.9531 446.4063,20.2031 C446.8906,20.4844 447.0625,20.7031 447.1563,21.1094 C447.2188,21.5156 447.25,21.6406 447.3906,21.7656 C447.5313,21.9063 447.7656,22.0156 447.9844,22.0156 C448.25,22.0156 448.5156,21.875 448.6875,21.6563 C448.7969,21.5 448.8281,21.3125 448.8281,20.8906 L448.8281,19.4688 C448.8281,19.0313 448.8125,18.9063 448.7188,18.75 C448.5625,18.4844 448.2813,18.3438 447.9844,18.3438 C447.6875,18.3438 447.4844,18.4375 447.2656,18.75 L447.0938,18.6719 Z " fill="#000000"/><text fill="#000000" font-family="sans-serif" font-size="12" lengthAdjust="spacing" textLength="75" x="465.25" y="27.1543">osd_window</text><line style="stroke:#000000;stroke-width:1.5;" x1="392.5" x2="580.5" y1="39" y2="39"/><ellipse cx="402.5" cy="50" rx="3" ry="3" style="stroke:#038048;stroke-width:1.0;fill:none;"/><text fill="#000000" font-family="sans-serif" font-size="11" lengthAdjust="spacing" textLength="59" x="411.5" y="53.2104">HDC m_dc</text><ellipse cx="402.5" cy="62.8047" rx="3" ry="3" style="stroke:#038048;stroke-width:1.0;fill:none;"/><text fill="#000000" font-family="sans-serif" font-size="11" lengthAdjust="spacing" textLength="164" x="411.5" y="66.0151">render_primitive[] m_primlist</text><line style="stroke:#000000;stroke-width:1.5;" x1="392.5" x2="580.5" y1="72.6094" y2="72.6094"/><ellipse cx="402.5" cy="83.6094" fill="#84BE84" rx="3" ry="3" style="stroke:#038048;stroke-width:1.0;"/><text fill="#000000" font-family="sans-serif" font-size="11" lengthAdjust="spacing" textLength="138" x="411.5" y="86.8198">osd_renderer renderer()</text><ellipse cx="402.5" cy="96.4141" fill="#84BE84" rx="3" ry="3" style="stroke:#038048;stroke-width:1.0;"/><text fill="#000000" font-family="sans-serif" font-size="11" font-style="italic" lengthAdjust="spacing" textLength="124" x="411.5" y="99.6245">render_target target()</text><ellipse cx="402.5" cy="109.2188" fill="#84BE84" rx="3" ry="3" style="stroke:#038048;stroke-width:1.0;"/><text fill="#000000" font-family="sans-serif" font-size="11" font-style="italic" lengthAdjust="spacing" textLength="157" x="411.5" y="112.4292">running_machine machine()</text><ellipse cx="402.5" cy="122.0234" fill="#84BE84" rx="3" ry="3" style="stroke:#038048;stroke-width:1.0;"/><text fill="#000000" font-family="sans-serif" font-size="11" font-style="italic" lengthAdjust="spacing" textLength="75" x="411.5" y="125.2339">void update()</text><!--MD5=[d9b6ab32e24ca33eca8075ad0efd5938]
class SDL--><rect codeLine="42" fill="#F5F5F5" height="48" id="SDL" style="stroke:#000000;stroke-width:1.5;" width="55" x="944" y="192"/><ellipse cx="959" cy="208" fill="#ADD1B2" rx="11" ry="11" style="stroke:#000000;stroke-width:1.0;"/><path d="M957.7969,208.875 L959.25,208.875 L959.25,208.9844 C959.25,209.3906 959.2813,209.5469 959.3594,209.7031 C959.5156,209.9531 959.7969,210.1094 960.0938,210.1094 C960.3438,210.1094 960.6094,209.9688 960.7656,209.75 C960.8906,209.5938 960.9219,209.4375 960.9219,208.9844 L960.9219,207.0625 C960.9219,206.9063 960.9219,206.8594 960.9063,206.7031 C960.8438,206.2344 960.5313,205.9219 960.0781,205.9219 C959.8281,205.9219 959.5625,206.0625 959.3906,206.2813 C959.2813,206.4531 959.25,206.6094 959.25,207.0625 L959.25,207.1875 L957.7969,207.1875 L957.7969,204.7813 L961.7813,204.7813 L961.7813,205.6406 C961.7813,206.0469 961.8125,206.2188 961.8906,206.375 C962.0625,206.625 962.3438,206.7813 962.625,206.7813 C962.8906,206.7813 963.1563,206.6406 963.3281,206.4219 C963.4375,206.25 963.4688,206.1094 963.4688,205.6406 L963.4688,203.0938 L955.8438,203.0938 C955.4063,203.0938 955.2813,203.1094 955.125,203.2031 C954.875,203.3594 954.7188,203.6563 954.7188,203.9375 C954.7188,204.2188 954.8594,204.4688 955.0781,204.6406 C955.2344,204.75 955.4219,204.7813 955.8438,204.7813 L956.0938,204.7813 L956.0938,211.2969 L955.8438,211.2969 C955.4375,211.2969 955.2813,211.3125 955.125,211.4219 C954.875,211.5938 954.7188,211.8594 954.7188,212.1563 C954.7188,212.4219 954.8594,212.6719 955.0781,212.8281 C955.2188,212.9531 955.4531,213 955.8438,213 L963.8438,213 L963.8438,210.4219 C963.8438,209.9844 963.8125,209.8438 963.7344,209.6875 C963.5625,209.4375 963.2813,209.2813 963,209.2813 C962.7344,209.2813 962.4688,209.3906 962.2969,209.6406 C962.1875,209.7969 962.1563,209.9375 962.1563,210.4219 L962.1563,211.2969 L957.7969,211.2969 L957.7969,208.875 Z " fill="#000000"/><text fill="#000000" font-family="sans-serif" font-size="12" lengthAdjust="spacing" textLength="23" x="973" y="212.1543">SDL</text><line style="stroke:#000000;stroke-width:1.5;" x1="945" x2="998" y1="224" y2="224"/><line style="stroke:#000000;stroke-width:1.5;" x1="945" x2="998" y1="232" y2="232"/><!--MD5=[6fa9e83d24a0aa7f86cfa762e1267e99]
class DirectX--><rect codeLine="43" fill="#F5F5F5" height="48" id="DirectX" style="stroke:#000000;stroke-width:1.5;" width="76" x="673.5" y="192"/><ellipse cx="688.5" cy="208" fill="#ADD1B2" rx="11" ry="11" style="stroke:#000000;stroke-width:1.0;"/><path d="M687.2969,208.875 L688.75,208.875 L688.75,208.9844 C688.75,209.3906 688.7813,209.5469 688.8594,209.7031 C689.0156,209.9531 689.2969,210.1094 689.5938,210.1094 C689.8438,210.1094 690.1094,209.9688 690.2656,209.75 C690.3906,209.5938 690.4219,209.4375 690.4219,208.9844 L690.4219,207.0625 C690.4219,206.9063 690.4219,206.8594 690.4063,206.7031 C690.3438,206.2344 690.0313,205.9219 689.5781,205.9219 C689.3281,205.9219 689.0625,206.0625 688.8906,206.2813 C688.7813,206.4531 688.75,206.6094 688.75,207.0625 L688.75,207.1875 L687.2969,207.1875 L687.2969,204.7813 L691.2813,204.7813 L691.2813,205.6406 C691.2813,206.0469 691.3125,206.2188 691.3906,206.375 C691.5625,206.625 691.8438,206.7813 692.125,206.7813 C692.3906,206.7813 692.6563,206.6406 692.8281,206.4219 C692.9375,206.25 692.9688,206.1094 692.9688,205.6406 L692.9688,203.0938 L685.3438,203.0938 C684.9063,203.0938 684.7813,203.1094 684.625,203.2031 C684.375,203.3594 684.2188,203.6563 684.2188,203.9375 C684.2188,204.2188 684.3594,204.4688 684.5781,204.6406 C684.7344,204.75 684.9219,204.7813 685.3438,204.7813 L685.5938,204.7813 L685.5938,211.2969 L685.3438,211.2969 C684.9375,211.2969 684.7813,211.3125 684.625,211.4219 C684.375,211.5938 684.2188,211.8594 684.2188,212.1563 C684.2188,212.4219 684.3594,212.6719 684.5781,212.8281 C684.7188,212.9531 684.9531,213 685.3438,213 L693.3438,213 L693.3438,210.4219 C693.3438,209.9844 693.3125,209.8438 693.2344,209.6875 C693.0625,209.4375 692.7813,209.2813 692.5,209.2813 C692.2344,209.2813 691.9688,209.3906 691.7969,209.6406 C691.6875,209.7969 691.6563,209.9375 691.6563,210.4219 L691.6563,211.2969 L687.2969,211.2969 L687.2969,208.875 Z " fill="#000000"/><text fill="#000000" font-family="sans-serif" font-size="12" lengthAdjust="spacing" textLength="44" x="702.5" y="212.1543">DirectX</text><line style="stroke:#000000;stroke-width:1.5;" x1="674.5" x2="748.5" y1="224" y2="224"/><line style="stroke:#000000;stroke-width:1.5;" x1="674.5" x2="748.5" y1="232" y2="232"/><!--MD5=[4bd7bb7fad39ce8caab281d6b99195bd]
class OpenGL--><rect codeLine="44" fill="#F5F5F5" height="48" id="OpenGL" style="stroke:#000000;stroke-width:1.5;" width="80" x="411.5" y="192"/><ellipse cx="426.5" cy="208" fill="#ADD1B2" rx="11" ry="11" style="stroke:#000000;stroke-width:1.0;"/><path d="M425.2969,208.875 L426.75,208.875 L426.75,208.9844 C426.75,209.3906 426.7813,209.5469 426.8594,209.7031 C427.0156,209.9531 427.2969,210.1094 427.5938,210.1094 C427.8438,210.1094 428.1094,209.9688 428.2656,209.75 C428.3906,209.5938 428.4219,209.4375 428.4219,208.9844 L428.4219,207.0625 C428.4219,206.9063 428.4219,206.8594 428.4063,206.7031 C428.3438,206.2344 428.0313,205.9219 427.5781,205.9219 C427.3281,205.9219 427.0625,206.0625 426.8906,206.2813 C426.7813,206.4531 426.75,206.6094 426.75,207.0625 L426.75,207.1875 L425.2969,207.1875 L425.2969,204.7813 L429.2813,204.7813 L429.2813,205.6406 C429.2813,206.0469 429.3125,206.2188 429.3906,206.375 C429.5625,206.625 429.8438,206.7813 430.125,206.7813 C430.3906,206.7813 430.6563,206.6406 430.8281,206.4219 C430.9375,206.25 430.9688,206.1094 430.9688,205.6406 L430.9688,203.0938 L423.3438,203.0938 C422.9063,203.0938 422.7813,203.1094 422.625,203.2031 C422.375,203.3594 422.2188,203.6563 422.2188,203.9375 C422.2188,204.2188 422.3594,204.4688 422.5781,204.6406 C422.7344,204.75 422.9219,204.7813 423.3438,204.7813 L423.5938,204.7813 L423.5938,211.2969 L423.3438,211.2969 C422.9375,211.2969 422.7813,211.3125 422.625,211.4219 C422.375,211.5938 422.2188,211.8594 422.2188,212.1563 C422.2188,212.4219 422.3594,212.6719 422.5781,212.8281 C422.7188,212.9531 422.9531,213 423.3438,213 L431.3438,213 L431.3438,210.4219 C431.3438,209.9844 431.3125,209.8438 431.2344,209.6875 C431.0625,209.4375 430.7813,209.2813 430.5,209.2813 C430.2344,209.2813 429.9688,209.3906 429.7969,209.6406 C429.6875,209.7969 429.6563,209.9375 429.6563,210.4219 L429.6563,211.2969 L425.2969,211.2969 L425.2969,208.875 Z " fill="#000000"/><text fill="#000000" font-family="sans-serif" font-size="12" lengthAdjust="spacing" textLength="48" x="440.5" y="212.1543">OpenGL</text><line style="stroke:#000000;stroke-width:1.5;" x1="412.5" x2="490.5" y1="224" y2="224"/><line style="stroke:#000000;stroke-width:1.5;" x1="412.5" x2="490.5" y1="232" y2="232"/><!--MD5=[4f7cdbbcb0614833a3cb3cd70f9a01d7]
class renderer_ogl--><rect fill="#F5F5F5" height="48" id="renderer_ogl" style="stroke:#000000;stroke-width:1.5;" width="111" x="527" y="192"/><ellipse cx="542" cy="208" fill="#ADD1B2" rx="11" ry="11" style="stroke:#000000;stroke-width:1.0;"/><path d="M544.3438,203.6719 C543.4063,203.2344 542.8125,203.0938 541.9375,203.0938 C539.3125,203.0938 537.3125,205.1719 537.3125,207.8906 L537.3125,209.0156 C537.3125,211.5938 539.4219,213.4844 542.3125,213.4844 C543.5313,213.4844 544.6875,213.1875 545.4375,212.6406 C546.0156,212.2344 546.3438,211.7813 546.3438,211.3906 C546.3438,210.9375 545.9531,210.5469 545.4844,210.5469 C545.2656,210.5469 545.0625,210.625 544.875,210.8125 C544.4219,211.2969 544.4219,211.2969 544.2344,211.3906 C543.8125,211.6563 543.125,211.7813 542.3594,211.7813 C540.3125,211.7813 539.0156,210.6875 539.0156,208.9844 L539.0156,207.8906 C539.0156,206.1094 540.2656,204.7969 542,204.7969 C542.5781,204.7969 543.1875,204.9531 543.6563,205.2031 C544.1406,205.4844 544.3125,205.7031 544.4063,206.1094 C544.4688,206.5156 544.5,206.6406 544.6406,206.7656 C544.7813,206.9063 545.0156,207.0156 545.2344,207.0156 C545.5,207.0156 545.7656,206.875 545.9375,206.6563 C546.0469,206.5 546.0781,206.3125 546.0781,205.8906 L546.0781,204.4688 C546.0781,204.0313 546.0625,203.9063 545.9688,203.75 C545.8125,203.4844 545.5313,203.3438 545.2344,203.3438 C544.9375,203.3438 544.7344,203.4375 544.5156,203.75 L544.3438,203.6719 Z " fill="#000000"/><text fill="#000000" font-family="sans-serif" font-size="12" lengthAdjust="spacing" textLength="79" x="556" y="212.1543">renderer_ogl</text><line style="stroke:#000000;stroke-width:1.5;" x1="528" x2="637" y1="224" y2="224"/><line style="stroke:#000000;stroke-width:1.5;" x1="528" x2="637" y1="232" y2="232"/><!--MD5=[0c978744059a7eb68590198d9fce8828]
class renderer_d3d9--><rect fill="#F5F5F5" height="48" id="renderer_d3d9" style="stroke:#000000;stroke-width:1.5;" width="124" x="784.5" y="192"/><ellipse cx="799.5" cy="208" fill="#ADD1B2" rx="11" ry="11" style="stroke:#000000;stroke-width:1.0;"/><path d="M801.8438,203.6719 C800.9063,203.2344 800.3125,203.0938 799.4375,203.0938 C796.8125,203.0938 794.8125,205.1719 794.8125,207.8906 L794.8125,209.0156 C794.8125,211.5938 796.9219,213.4844 799.8125,213.4844 C801.0313,213.4844 802.1875,213.1875 802.9375,212.6406 C803.5156,212.2344 803.8438,211.7813 803.8438,211.3906 C803.8438,210.9375 803.4531,210.5469 802.9844,210.5469 C802.7656,210.5469 802.5625,210.625 802.375,210.8125 C801.9219,211.2969 801.9219,211.2969 801.7344,211.3906 C801.3125,211.6563 800.625,211.7813 799.8594,211.7813 C797.8125,211.7813 796.5156,210.6875 796.5156,208.9844 L796.5156,207.8906 C796.5156,206.1094 797.7656,204.7969 799.5,204.7969 C800.0781,204.7969 800.6875,204.9531 801.1563,205.2031 C801.6406,205.4844 801.8125,205.7031 801.9063,206.1094 C801.9688,206.5156 802,206.6406 802.1406,206.7656 C802.2813,206.9063 802.5156,207.0156 802.7344,207.0156 C803,207.0156 803.2656,206.875 803.4375,206.6563 C803.5469,206.5 803.5781,206.3125 803.5781,205.8906 L803.5781,204.4688 C803.5781,204.0313 803.5625,203.9063 803.4688,203.75 C803.3125,203.4844 803.0313,203.3438 802.7344,203.3438 C802.4375,203.3438 802.2344,203.4375 802.0156,203.75 L801.8438,203.6719 Z " fill="#000000"/><text fill="#000000" font-family="sans-serif" font-size="12" lengthAdjust="spacing" textLength="92" x="813.5" y="212.1543">renderer_d3d9</text><line style="stroke:#000000;stroke-width:1.5;" x1="785.5" x2="907.5" y1="224" y2="224"/><line style="stroke:#000000;stroke-width:1.5;" x1="785.5" x2="907.5" y1="232" y2="232"/><!--MD5=[cac353306241a567ca72fcdbb9cb5eee]
class renderer_sdl2--><rect fill="#F5F5F5" height="48" id="renderer_sdl2" style="stroke:#000000;stroke-width:1.5;" width="118" x="1034.5" y="192"/><ellipse cx="1049.5" cy="208" fill="#ADD1B2" rx="11" ry="11" style="stroke:#000000;stroke-width:1.0;"/><path d="M1051.8438,203.6719 C1050.9063,203.2344 1050.3125,203.0938 1049.4375,203.0938 C1046.8125,203.0938 1044.8125,205.1719 1044.8125,207.8906 L1044.8125,209.0156 C1044.8125,211.5938 1046.9219,213.4844 1049.8125,213.4844 C1051.0313,213.4844 1052.1875,213.1875 1052.9375,212.6406 C1053.5156,212.2344 1053.8438,211.7813 1053.8438,211.3906 C1053.8438,210.9375 1053.4531,210.5469 1052.9844,210.5469 C1052.7656,210.5469 1052.5625,210.625 1052.375,210.8125 C1051.9219,211.2969 1051.9219,211.2969 1051.7344,211.3906 C1051.3125,211.6563 1050.625,211.7813 1049.8594,211.7813 C1047.8125,211.7813 1046.5156,210.6875 1046.5156,208.9844 L1046.5156,207.8906 C1046.5156,206.1094 1047.7656,204.7969 1049.5,204.7969 C1050.0781,204.7969 1050.6875,204.9531 1051.1563,205.2031 C1051.6406,205.4844 1051.8125,205.7031 1051.9063,206.1094 C1051.9688,206.5156 1052,206.6406 1052.1406,206.7656 C1052.2813,206.9063 1052.5156,207.0156 1052.7344,207.0156 C1053,207.0156 1053.2656,206.875 1053.4375,206.6563 C1053.5469,206.5 1053.5781,206.3125 1053.5781,205.8906 L1053.5781,204.4688 C1053.5781,204.0313 1053.5625,203.9063 1053.4688,203.75 C1053.3125,203.4844 1053.0313,203.3438 1052.7344,203.3438 C1052.4375,203.3438 1052.2344,203.4375 1052.0156,203.75 L1051.8438,203.6719 Z " fill="#000000"/><text fill="#000000" font-family="sans-serif" font-size="12" lengthAdjust="spacing" textLength="86" x="1063.5" y="212.1543">renderer_sdl2</text><line style="stroke:#000000;stroke-width:1.5;" x1="1035.5" x2="1151.5" y1="224" y2="224"/><line style="stroke:#000000;stroke-width:1.5;" x1="1035.5" x2="1151.5" y1="232" y2="232"/><!--MD5=[7d1eb5f4f242cafd916c0318e1427735]
reverse link osd_renderer to renderer_ogl--><path codeLine="46" d="M627.5,152.0541 C627.5,152.0541 627.5,191.9008 627.5,191.9008 " fill="none" id="osd_renderer-backto-renderer_ogl" style="stroke:#000000;stroke-width:1.0;"/><polygon fill="none" points="620.5,152.0542,627.5,132.054,634.5,152.0541,620.5,152.0542" style="stroke:#000000;stroke-width:1.0;"/><!--MD5=[0784206bf0d928e6f0d1c42f737fae57]
link OpenGL to renderer_ogl--><path codeLine="47" d="M491.516,216 C502.652,216 514.953,216 526.814,216 " fill="none" id="OpenGL-renderer_ogl" style="stroke:#000000;stroke-width:1.0;"/><!--MD5=[3c55a46c982b0fe8f767374b091ca731]
reverse link osd_renderer to renderer_d3d9--><path codeLine="48" d="M846.5,152.0541 C846.5,152.0541 846.5,191.9008 846.5,191.9008 " fill="none" id="osd_renderer-backto-renderer_d3d9" style="stroke:#000000;stroke-width:1.0;"/><polygon fill="none" points="839.5,152.0542,846.5,132.054,853.5,152.0541,839.5,152.0542" style="stroke:#000000;stroke-width:1.0;"/><!--MD5=[351c914d4a28b89a8ff57b11c086e4cd]
link DirectX to renderer_d3d9--><path codeLine="49" d="M749.824,216 C760.582,216 772.564,216 784.328,216 " fill="none" id="DirectX-renderer_d3d9" style="stroke:#000000;stroke-width:1.0;"/><!--MD5=[3495575551e38f818e7d7313fe052b96]
reverse link osd_renderer to renderer_sdl2--><path codeLine="50" d="M1055.25,152.0541 C1055.25,152.0541 1055.25,191.9008 1055.25,191.9008 " fill="none" id="osd_renderer-backto-renderer_sdl2" style="stroke:#000000;stroke-width:1.0;"/><polygon fill="none" points="1048.25,152.0542,1055.25,132.054,1062.25,152.0541,1048.25,152.0542" style="stroke:#000000;stroke-width:1.0;"/><!--MD5=[f1b0808ed3cad6289e317f38ea48a100]
link SDL to renderer_sdl2--><path codeLine="51" d="M999.184,216 C1009.59,216 1021.86,216 1034.05,216 " fill="none" id="SDL-renderer_sdl2" style="stroke:#000000;stroke-width:1.0;"/><!--MD5=[db91dadce38bf059abbdc26f81d8de2d]
link osd_window to osd_renderer--><path codeLine="53" d="M581.557,70 C592.806,70 604.629,70 616.78,70 " fill="none" id="osd_window-osd_renderer" style="stroke:#000000;stroke-width:1.0;"/><!--MD5=[89efb57c2a4b600924cf73bcd654655d]
link render_primitive to osd_window--><path codeLine="54" d="M356.278,70 C367.899,70 379.74,70 391.311,70 " fill="none" id="render_primitive-osd_window" style="stroke:#000000;stroke-width:1.0;"/><!--MD5=[d26ecd1bac4c7bb4d0fb03957bf645c9]
link primitive_type to render_primitive--><path codeLine="55" d="M124.15,70 C135.178,70 146.985,70 158.846,70 " fill="none" id="primitive_type-render_primitive" style="stroke:#000000;stroke-width:1.0;"/><!--MD5=[55fa6ae1bc34ec10fa1e8097b02210fc]
@startuml
skinparam Shadowing false
skinparam LineType ortho
skinparam ArrowColor black

skinparam class {
    BackgroundColor WhiteSmoke
    BorderColor black
}

enum primitive_type
{
	LINE
	QUAD
}

class render_primitive {
	+render_bounds bounds
	+primitive_type type
	+render_color color
	+render_texinfo texture
	+render_quad_texuv texcoords
}

class osd_renderer {
    -osd_window  m_window
    +osd_window assert_window()
    {abstract} +int create()
    {abstract} +render_primitive[] get_primitives()
    {abstract} +int draw(const int update)
    {static} +osd_renderer make_for_type(int mode, osd_window window, int extra_flags)
}

class osd_window {
    +HDC m_dc
    +render_primitive[] m_primlist
    +osd_renderer renderer()        
    {abstract} +render_target target()    
    {abstract} +running_machine machine()
    {abstract} +void update()    
}

entity SDL
entity DirectX
entity OpenGL

renderer_ogl -u-|> osd_renderer
renderer_ogl -l- OpenGL
renderer_d3d9 -u-|> osd_renderer
renderer_d3d9 -l- DirectX
renderer_sdl2 -u-|> osd_renderer
renderer_sdl2 -l- SDL

osd_renderer -l- osd_window
osd_window -l- render_primitive
render_primitive -l- primitive_type
@enduml

PlantUML version 1.2021.7(Sun May 23 12:40:07 UTC 2021)
(GPL source distribution)
Java Runtime: Java(TM) SE Runtime Environment
JVM: Java HotSpot(TM) 64-Bit Server VM
Default Encoding: UTF-8
Language: en
Country: US
--></g></svg>