<?xml version="1.0" encoding="UTF-8" standalone="no"?>
<svg xmlns="http://www.w3.org/2000/svg" xmlns:xlink="http://www.w3.org/1999/xlink" contentScriptType="application/ecmascript" contentStyleType="text/css" height="818px" preserveAspectRatio="none" style="width:1048px;height:818px;" version="1.1" viewBox="0 0 1048 818" width="1048px" zoomAndPan="magnify"><defs/><g><!--MD5=[c826bd37949ac45d6b5c92bb178d9a55]
class SDL_main--><rect codeLine="10" fill="#FAF0E6" height="48" id="SDL_main" style="stroke:#000000;stroke-width:1.5;" width="89" x="7" y="7"/><ellipse cx="22" cy="23" fill="#ADD1B2" rx="11" ry="11" style="stroke:#000000;stroke-width:1.0;"/><path d="M24.3438,18.6719 C23.4063,18.2344 22.8125,18.0938 21.9375,18.0938 C19.3125,18.0938 17.3125,20.1719 17.3125,22.8906 L17.3125,24.0156 C17.3125,26.5938 19.4219,28.4844 22.3125,28.4844 C23.5313,28.4844 24.6875,28.1875 25.4375,27.6406 C26.0156,27.2344 26.3438,26.7813 26.3438,26.3906 C26.3438,25.9375 25.9531,25.5469 25.4844,25.5469 C25.2656,25.5469 25.0625,25.625 24.875,25.8125 C24.4219,26.2969 24.4219,26.2969 24.2344,26.3906 C23.8125,26.6563 23.125,26.7813 22.3594,26.7813 C20.3125,26.7813 19.0156,25.6875 19.0156,23.9844 L19.0156,22.8906 C19.0156,21.1094 20.2656,19.7969 22,19.7969 C22.5781,19.7969 23.1875,19.9531 23.6563,20.2031 C24.1406,20.4844 24.3125,20.7031 24.4063,21.1094 C24.4688,21.5156 24.5,21.6406 24.6406,21.7656 C24.7813,21.9063 25.0156,22.0156 25.2344,22.0156 C25.5,22.0156 25.7656,21.875 25.9375,21.6563 C26.0469,21.5 26.0781,21.3125 26.0781,20.8906 L26.0781,19.4688 C26.0781,19.0313 26.0625,18.9063 25.9688,18.75 C25.8125,18.4844 25.5313,18.3438 25.2344,18.3438 C24.9375,18.3438 24.7344,18.4375 24.5156,18.75 L24.3438,18.6719 Z " fill="#000000"/><text fill="#000000" font-family="sans-serif" font-size="12" lengthAdjust="spacing" textLength="57" x="36" y="27.1543">SDL_main</text><line style="stroke:#000000;stroke-width:1.5;" x1="8" x2="95" y1="39" y2="39"/><line style="stroke:#000000;stroke-width:1.5;" x1="8" x2="95" y1="47" y2="47"/><!--MD5=[f2314d2c08ba9afde75d38682ecb2492]
class SDL_osd_interface--><rect codeLine="12" fill="#F5F5F5" height="48" id="SDL_osd_interface" style="stroke:#000000;stroke-width:1.5;" width="143" x="480" y="763"/><ellipse cx="495" cy="779" fill="#ADD1B2" rx="11" ry="11" style="stroke:#000000;stroke-width:1.0;"/><path d="M497.3438,774.6719 C496.4063,774.2344 495.8125,774.0938 494.9375,774.0938 C492.3125,774.0938 490.3125,776.1719 490.3125,778.8906 L490.3125,780.0156 C490.3125,782.5938 492.4219,784.4844 495.3125,784.4844 C496.5313,784.4844 497.6875,784.1875 498.4375,783.6406 C499.0156,783.2344 499.3438,782.7813 499.3438,782.3906 C499.3438,781.9375 498.9531,781.5469 498.4844,781.5469 C498.2656,781.5469 498.0625,781.625 497.875,781.8125 C497.4219,782.2969 497.4219,782.2969 497.2344,782.3906 C496.8125,782.6563 496.125,782.7813 495.3594,782.7813 C493.3125,782.7813 492.0156,781.6875 492.0156,779.9844 L492.0156,778.8906 C492.0156,777.1094 493.2656,775.7969 495,775.7969 C495.5781,775.7969 496.1875,775.9531 496.6563,776.2031 C497.1406,776.4844 497.3125,776.7031 497.4063,777.1094 C497.4688,777.5156 497.5,777.6406 497.6406,777.7656 C497.7813,777.9063 498.0156,778.0156 498.2344,778.0156 C498.5,778.0156 498.7656,777.875 498.9375,777.6563 C499.0469,777.5 499.0781,777.3125 499.0781,776.8906 L499.0781,775.4688 C499.0781,775.0313 499.0625,774.9063 498.9688,774.75 C498.8125,774.4844 498.5313,774.3438 498.2344,774.3438 C497.9375,774.3438 497.7344,774.4375 497.5156,774.75 L497.3438,774.6719 Z " fill="#000000"/><text fill="#000000" font-family="sans-serif" font-size="12" lengthAdjust="spacing" textLength="111" x="509" y="783.1543">SDL_osd_interface</text><line style="stroke:#000000;stroke-width:1.5;" x1="481" x2="622" y1="795" y2="795"/><line style="stroke:#000000;stroke-width:1.5;" x1="481" x2="622" y1="803" y2="803"/><!--MD5=[785a5d9e57e2f5926530fe7c2dc11607]
class osd_common_t--><rect codeLine="86" fill="#F5F5F5" height="48" id="osd_common_t" style="stroke:#000000;stroke-width:1.5;" width="123" x="490" y="655"/><ellipse cx="505" cy="671" fill="#ADD1B2" rx="11" ry="11" style="stroke:#000000;stroke-width:1.0;"/><path d="M507.3438,666.6719 C506.4063,666.2344 505.8125,666.0938 504.9375,666.0938 C502.3125,666.0938 500.3125,668.1719 500.3125,670.8906 L500.3125,672.0156 C500.3125,674.5938 502.4219,676.4844 505.3125,676.4844 C506.5313,676.4844 507.6875,676.1875 508.4375,675.6406 C509.0156,675.2344 509.3438,674.7813 509.3438,674.3906 C509.3438,673.9375 508.9531,673.5469 508.4844,673.5469 C508.2656,673.5469 508.0625,673.625 507.875,673.8125 C507.4219,674.2969 507.4219,674.2969 507.2344,674.3906 C506.8125,674.6563 506.125,674.7813 505.3594,674.7813 C503.3125,674.7813 502.0156,673.6875 502.0156,671.9844 L502.0156,670.8906 C502.0156,669.1094 503.2656,667.7969 505,667.7969 C505.5781,667.7969 506.1875,667.9531 506.6563,668.2031 C507.1406,668.4844 507.3125,668.7031 507.4063,669.1094 C507.4688,669.5156 507.5,669.6406 507.6406,669.7656 C507.7813,669.9063 508.0156,670.0156 508.2344,670.0156 C508.5,670.0156 508.7656,669.875 508.9375,669.6563 C509.0469,669.5 509.0781,669.3125 509.0781,668.8906 L509.0781,667.4688 C509.0781,667.0313 509.0625,666.9063 508.9688,666.75 C508.8125,666.4844 508.5313,666.3438 508.2344,666.3438 C507.9375,666.3438 507.7344,666.4375 507.5156,666.75 L507.3438,666.6719 Z " fill="#000000"/><text fill="#000000" font-family="sans-serif" font-size="12" lengthAdjust="spacing" textLength="91" x="519" y="675.1543">osd_common_t</text><line style="stroke:#000000;stroke-width:1.5;" x1="491" x2="612" y1="687" y2="687"/><line style="stroke:#000000;stroke-width:1.5;" x1="491" x2="612" y1="695" y2="695"/><!--MD5=[0f1a196ef95d78a2982fdaf73a19fd15]
class emulator_info--><rect codeLine="16" fill="#F5F5F5" height="48" id="emulator_info" style="stroke:#000000;stroke-width:1.5;" width="113" x="83" y="115"/><ellipse cx="98" cy="131" fill="#ADD1B2" rx="11" ry="11" style="stroke:#000000;stroke-width:1.0;"/><path d="M100.3438,126.6719 C99.4063,126.2344 98.8125,126.0938 97.9375,126.0938 C95.3125,126.0938 93.3125,128.1719 93.3125,130.8906 L93.3125,132.0156 C93.3125,134.5938 95.4219,136.4844 98.3125,136.4844 C99.5313,136.4844 100.6875,136.1875 101.4375,135.6406 C102.0156,135.2344 102.3438,134.7813 102.3438,134.3906 C102.3438,133.9375 101.9531,133.5469 101.4844,133.5469 C101.2656,133.5469 101.0625,133.625 100.875,133.8125 C100.4219,134.2969 100.4219,134.2969 100.2344,134.3906 C99.8125,134.6563 99.125,134.7813 98.3594,134.7813 C96.3125,134.7813 95.0156,133.6875 95.0156,131.9844 L95.0156,130.8906 C95.0156,129.1094 96.2656,127.7969 98,127.7969 C98.5781,127.7969 99.1875,127.9531 99.6563,128.2031 C100.1406,128.4844 100.3125,128.7031 100.4063,129.1094 C100.4688,129.5156 100.5,129.6406 100.6406,129.7656 C100.7813,129.9063 101.0156,130.0156 101.2344,130.0156 C101.5,130.0156 101.7656,129.875 101.9375,129.6563 C102.0469,129.5 102.0781,129.3125 102.0781,128.8906 L102.0781,127.4688 C102.0781,127.0313 102.0625,126.9063 101.9688,126.75 C101.8125,126.4844 101.5313,126.3438 101.2344,126.3438 C100.9375,126.3438 100.7344,126.4375 100.5156,126.75 L100.3438,126.6719 Z " fill="#000000"/><text fill="#000000" font-family="sans-serif" font-size="12" lengthAdjust="spacing" textLength="81" x="112" y="135.1543">emulator_info</text><line style="stroke:#000000;stroke-width:1.5;" x1="84" x2="195" y1="147" y2="147"/><line style="stroke:#000000;stroke-width:1.5;" x1="84" x2="195" y1="155" y2="155"/><!--MD5=[fac3f35674387e2887c24928fee2d389]
class running_machine--><rect codeLine="34" fill="#F5F5F5" height="48" id="running_machine" style="stroke:#000000;stroke-width:1.5;" width="132" x="404.5" y="331"/><ellipse cx="419.5" cy="347" fill="#ADD1B2" rx="11" ry="11" style="stroke:#000000;stroke-width:1.0;"/><path d="M421.8438,342.6719 C420.9063,342.2344 420.3125,342.0938 419.4375,342.0938 C416.8125,342.0938 414.8125,344.1719 414.8125,346.8906 L414.8125,348.0156 C414.8125,350.5938 416.9219,352.4844 419.8125,352.4844 C421.0313,352.4844 422.1875,352.1875 422.9375,351.6406 C423.5156,351.2344 423.8438,350.7813 423.8438,350.3906 C423.8438,349.9375 423.4531,349.5469 422.9844,349.5469 C422.7656,349.5469 422.5625,349.625 422.375,349.8125 C421.9219,350.2969 421.9219,350.2969 421.7344,350.3906 C421.3125,350.6563 420.625,350.7813 419.8594,350.7813 C417.8125,350.7813 416.5156,349.6875 416.5156,347.9844 L416.5156,346.8906 C416.5156,345.1094 417.7656,343.7969 419.5,343.7969 C420.0781,343.7969 420.6875,343.9531 421.1563,344.2031 C421.6406,344.4844 421.8125,344.7031 421.9063,345.1094 C421.9688,345.5156 422,345.6406 422.1406,345.7656 C422.2813,345.9063 422.5156,346.0156 422.7344,346.0156 C423,346.0156 423.2656,345.875 423.4375,345.6563 C423.5469,345.5 423.5781,345.3125 423.5781,344.8906 L423.5781,343.4688 C423.5781,343.0313 423.5625,342.9063 423.4688,342.75 C423.3125,342.4844 423.0313,342.3438 422.7344,342.3438 C422.4375,342.3438 422.2344,342.4375 422.0156,342.75 L421.8438,342.6719 Z " fill="#000000"/><text fill="#000000" font-family="sans-serif" font-size="12" lengthAdjust="spacing" textLength="100" x="433.5" y="351.1543">running_machine</text><line style="stroke:#000000;stroke-width:1.5;" x1="405.5" x2="535.5" y1="363" y2="363"/><line style="stroke:#000000;stroke-width:1.5;" x1="405.5" x2="535.5" y1="371" y2="371"/><!--MD5=[664f050dde83460e75c0d89f54fc2f55]
class cli_frontend--><rect codeLine="21" fill="#F5F5F5" height="48" id="cli_frontend" style="stroke:#000000;stroke-width:1.5;" width="102" x="88.5" y="331"/><ellipse cx="103.5" cy="347" fill="#ADD1B2" rx="11" ry="11" style="stroke:#000000;stroke-width:1.0;"/><path d="M105.8438,342.6719 C104.9063,342.2344 104.3125,342.0938 103.4375,342.0938 C100.8125,342.0938 98.8125,344.1719 98.8125,346.8906 L98.8125,348.0156 C98.8125,350.5938 100.9219,352.4844 103.8125,352.4844 C105.0313,352.4844 106.1875,352.1875 106.9375,351.6406 C107.5156,351.2344 107.8438,350.7813 107.8438,350.3906 C107.8438,349.9375 107.4531,349.5469 106.9844,349.5469 C106.7656,349.5469 106.5625,349.625 106.375,349.8125 C105.9219,350.2969 105.9219,350.2969 105.7344,350.3906 C105.3125,350.6563 104.625,350.7813 103.8594,350.7813 C101.8125,350.7813 100.5156,349.6875 100.5156,347.9844 L100.5156,346.8906 C100.5156,345.1094 101.7656,343.7969 103.5,343.7969 C104.0781,343.7969 104.6875,343.9531 105.1563,344.2031 C105.6406,344.4844 105.8125,344.7031 105.9063,345.1094 C105.9688,345.5156 106,345.6406 106.1406,345.7656 C106.2813,345.9063 106.5156,346.0156 106.7344,346.0156 C107,346.0156 107.2656,345.875 107.4375,345.6563 C107.5469,345.5 107.5781,345.3125 107.5781,344.8906 L107.5781,343.4688 C107.5781,343.0313 107.5625,342.9063 107.4688,342.75 C107.3125,342.4844 107.0313,342.3438 106.7344,342.3438 C106.4375,342.3438 106.2344,342.4375 106.0156,342.75 L105.8438,342.6719 Z " fill="#000000"/><text fill="#000000" font-family="sans-serif" font-size="12" lengthAdjust="spacing" textLength="70" x="117.5" y="351.1543">cli_frontend</text><line style="stroke:#000000;stroke-width:1.5;" x1="89.5" x2="189.5" y1="363" y2="363"/><line style="stroke:#000000;stroke-width:1.5;" x1="89.5" x2="189.5" y1="371" y2="371"/><!--MD5=[627f21e64905ca2e1a7ac971d353ad1e]
class mame_ui_manager--><rect codeLine="23" fill="#F5F5F5" height="48" id="mame_ui_manager" style="stroke:#000000;stroke-width:1.5;" width="144" x="225.5" y="331"/><ellipse cx="240.5" cy="347" fill="#ADD1B2" rx="11" ry="11" style="stroke:#000000;stroke-width:1.0;"/><path d="M242.8438,342.6719 C241.9063,342.2344 241.3125,342.0938 240.4375,342.0938 C237.8125,342.0938 235.8125,344.1719 235.8125,346.8906 L235.8125,348.0156 C235.8125,350.5938 237.9219,352.4844 240.8125,352.4844 C242.0313,352.4844 243.1875,352.1875 243.9375,351.6406 C244.5156,351.2344 244.8438,350.7813 244.8438,350.3906 C244.8438,349.9375 244.4531,349.5469 243.9844,349.5469 C243.7656,349.5469 243.5625,349.625 243.375,349.8125 C242.9219,350.2969 242.9219,350.2969 242.7344,350.3906 C242.3125,350.6563 241.625,350.7813 240.8594,350.7813 C238.8125,350.7813 237.5156,349.6875 237.5156,347.9844 L237.5156,346.8906 C237.5156,345.1094 238.7656,343.7969 240.5,343.7969 C241.0781,343.7969 241.6875,343.9531 242.1563,344.2031 C242.6406,344.4844 242.8125,344.7031 242.9063,345.1094 C242.9688,345.5156 243,345.6406 243.1406,345.7656 C243.2813,345.9063 243.5156,346.0156 243.7344,346.0156 C244,346.0156 244.2656,345.875 244.4375,345.6563 C244.5469,345.5 244.5781,345.3125 244.5781,344.8906 L244.5781,343.4688 C244.5781,343.0313 244.5625,342.9063 244.4688,342.75 C244.3125,342.4844 244.0313,342.3438 243.7344,342.3438 C243.4375,342.3438 243.2344,342.4375 243.0156,342.75 L242.8438,342.6719 Z " fill="#000000"/><text fill="#000000" font-family="sans-serif" font-size="12" lengthAdjust="spacing" textLength="112" x="254.5" y="351.1543">mame_ui_manager</text><line style="stroke:#000000;stroke-width:1.5;" x1="226.5" x2="368.5" y1="363" y2="363"/><line style="stroke:#000000;stroke-width:1.5;" x1="226.5" x2="368.5" y1="371" y2="371"/><!--MD5=[2082739ab8ba4cebf4ee4ef259ad3475]
class render_container--><rect codeLine="25" fill="#F5F5F5" height="48" id="render_container" style="stroke:#000000;stroke-width:1.5;" width="135" x="98" y="439"/><ellipse cx="113" cy="455" fill="#ADD1B2" rx="11" ry="11" style="stroke:#000000;stroke-width:1.0;"/><path d="M115.3438,450.6719 C114.4063,450.2344 113.8125,450.0938 112.9375,450.0938 C110.3125,450.0938 108.3125,452.1719 108.3125,454.8906 L108.3125,456.0156 C108.3125,458.5938 110.4219,460.4844 113.3125,460.4844 C114.5313,460.4844 115.6875,460.1875 116.4375,459.6406 C117.0156,459.2344 117.3438,458.7813 117.3438,458.3906 C117.3438,457.9375 116.9531,457.5469 116.4844,457.5469 C116.2656,457.5469 116.0625,457.625 115.875,457.8125 C115.4219,458.2969 115.4219,458.2969 115.2344,458.3906 C114.8125,458.6563 114.125,458.7813 113.3594,458.7813 C111.3125,458.7813 110.0156,457.6875 110.0156,455.9844 L110.0156,454.8906 C110.0156,453.1094 111.2656,451.7969 113,451.7969 C113.5781,451.7969 114.1875,451.9531 114.6563,452.2031 C115.1406,452.4844 115.3125,452.7031 115.4063,453.1094 C115.4688,453.5156 115.5,453.6406 115.6406,453.7656 C115.7813,453.9063 116.0156,454.0156 116.2344,454.0156 C116.5,454.0156 116.7656,453.875 116.9375,453.6563 C117.0469,453.5 117.0781,453.3125 117.0781,452.8906 L117.0781,451.4688 C117.0781,451.0313 117.0625,450.9063 116.9688,450.75 C116.8125,450.4844 116.5313,450.3438 116.2344,450.3438 C115.9375,450.3438 115.7344,450.4375 115.5156,450.75 L115.3438,450.6719 Z " fill="#000000"/><text fill="#000000" font-family="sans-serif" font-size="12" lengthAdjust="spacing" textLength="103" x="127" y="459.1543">render_container</text><line style="stroke:#000000;stroke-width:1.5;" x1="99" x2="232" y1="471" y2="471"/><line style="stroke:#000000;stroke-width:1.5;" x1="99" x2="232" y1="479" y2="479"/><!--MD5=[07c43be425fec449086a975300a91cbc]
class mame_machine_manager--><rect codeLine="53" fill="#F5F5F5" height="48" id="mame_machine_manager" style="stroke:#000000;stroke-width:1.5;" width="184" x="198.5" y="223"/><ellipse cx="213.5" cy="239" fill="#ADD1B2" rx="11" ry="11" style="stroke:#000000;stroke-width:1.0;"/><path d="M215.8438,234.6719 C214.9063,234.2344 214.3125,234.0938 213.4375,234.0938 C210.8125,234.0938 208.8125,236.1719 208.8125,238.8906 L208.8125,240.0156 C208.8125,242.5938 210.9219,244.4844 213.8125,244.4844 C215.0313,244.4844 216.1875,244.1875 216.9375,243.6406 C217.5156,243.2344 217.8438,242.7813 217.8438,242.3906 C217.8438,241.9375 217.4531,241.5469 216.9844,241.5469 C216.7656,241.5469 216.5625,241.625 216.375,241.8125 C215.9219,242.2969 215.9219,242.2969 215.7344,242.3906 C215.3125,242.6563 214.625,242.7813 213.8594,242.7813 C211.8125,242.7813 210.5156,241.6875 210.5156,239.9844 L210.5156,238.8906 C210.5156,237.1094 211.7656,235.7969 213.5,235.7969 C214.0781,235.7969 214.6875,235.9531 215.1563,236.2031 C215.6406,236.4844 215.8125,236.7031 215.9063,237.1094 C215.9688,237.5156 216,237.6406 216.1406,237.7656 C216.2813,237.9063 216.5156,238.0156 216.7344,238.0156 C217,238.0156 217.2656,237.875 217.4375,237.6563 C217.5469,237.5 217.5781,237.3125 217.5781,236.8906 L217.5781,235.4688 C217.5781,235.0313 217.5625,234.9063 217.4688,234.75 C217.3125,234.4844 217.0313,234.3438 216.7344,234.3438 C216.4375,234.3438 216.2344,234.4375 216.0156,234.75 L215.8438,234.6719 Z " fill="#000000"/><text fill="#000000" font-family="sans-serif" font-size="12" lengthAdjust="spacing" textLength="152" x="227.5" y="243.1543">mame_machine_manager</text><line style="stroke:#000000;stroke-width:1.5;" x1="199.5" x2="381.5" y1="255" y2="255"/><line style="stroke:#000000;stroke-width:1.5;" x1="199.5" x2="381.5" y1="263" y2="263"/><!--MD5=[ca7a70e6023db4fd90d7c8aaed7867b5]
class video_manager--><rect codeLine="46" fill="#F5F5F5" height="48" id="video_manager" style="stroke:#000000;stroke-width:1.5;" width="125" x="340" y="439"/><ellipse cx="355" cy="455" fill="#ADD1B2" rx="11" ry="11" style="stroke:#000000;stroke-width:1.0;"/><path d="M357.3438,450.6719 C356.4063,450.2344 355.8125,450.0938 354.9375,450.0938 C352.3125,450.0938 350.3125,452.1719 350.3125,454.8906 L350.3125,456.0156 C350.3125,458.5938 352.4219,460.4844 355.3125,460.4844 C356.5313,460.4844 357.6875,460.1875 358.4375,459.6406 C359.0156,459.2344 359.3438,458.7813 359.3438,458.3906 C359.3438,457.9375 358.9531,457.5469 358.4844,457.5469 C358.2656,457.5469 358.0625,457.625 357.875,457.8125 C357.4219,458.2969 357.4219,458.2969 357.2344,458.3906 C356.8125,458.6563 356.125,458.7813 355.3594,458.7813 C353.3125,458.7813 352.0156,457.6875 352.0156,455.9844 L352.0156,454.8906 C352.0156,453.1094 353.2656,451.7969 355,451.7969 C355.5781,451.7969 356.1875,451.9531 356.6563,452.2031 C357.1406,452.4844 357.3125,452.7031 357.4063,453.1094 C357.4688,453.5156 357.5,453.6406 357.6406,453.7656 C357.7813,453.9063 358.0156,454.0156 358.2344,454.0156 C358.5,454.0156 358.7656,453.875 358.9375,453.6563 C359.0469,453.5 359.0781,453.3125 359.0781,452.8906 L359.0781,451.4688 C359.0781,451.0313 359.0625,450.9063 358.9688,450.75 C358.8125,450.4844 358.5313,450.3438 358.2344,450.3438 C357.9375,450.3438 357.7344,450.4375 357.5156,450.75 L357.3438,450.6719 Z " fill="#000000"/><text fill="#000000" font-family="sans-serif" font-size="12" lengthAdjust="spacing" textLength="93" x="369" y="459.1543">video_manager</text><line style="stroke:#000000;stroke-width:1.5;" x1="341" x2="464" y1="471" y2="471"/><line style="stroke:#000000;stroke-width:1.5;" x1="341" x2="464" y1="479" y2="479"/><!--MD5=[10dc5d6849098502b716929908d9a6b3]
class render_manager--><rect codeLine="42" fill="#F5F5F5" height="48" id="render_manager" style="stroke:#000000;stroke-width:1.5;" width="132" x="220.5" y="547"/><ellipse cx="235.5" cy="563" fill="#ADD1B2" rx="11" ry="11" style="stroke:#000000;stroke-width:1.0;"/><path d="M237.8438,558.6719 C236.9063,558.2344 236.3125,558.0938 235.4375,558.0938 C232.8125,558.0938 230.8125,560.1719 230.8125,562.8906 L230.8125,564.0156 C230.8125,566.5938 232.9219,568.4844 235.8125,568.4844 C237.0313,568.4844 238.1875,568.1875 238.9375,567.6406 C239.5156,567.2344 239.8438,566.7813 239.8438,566.3906 C239.8438,565.9375 239.4531,565.5469 238.9844,565.5469 C238.7656,565.5469 238.5625,565.625 238.375,565.8125 C237.9219,566.2969 237.9219,566.2969 237.7344,566.3906 C237.3125,566.6563 236.625,566.7813 235.8594,566.7813 C233.8125,566.7813 232.5156,565.6875 232.5156,563.9844 L232.5156,562.8906 C232.5156,561.1094 233.7656,559.7969 235.5,559.7969 C236.0781,559.7969 236.6875,559.9531 237.1563,560.2031 C237.6406,560.4844 237.8125,560.7031 237.9063,561.1094 C237.9688,561.5156 238,561.6406 238.1406,561.7656 C238.2813,561.9063 238.5156,562.0156 238.7344,562.0156 C239,562.0156 239.2656,561.875 239.4375,561.6563 C239.5469,561.5 239.5781,561.3125 239.5781,560.8906 L239.5781,559.4688 C239.5781,559.0313 239.5625,558.9063 239.4688,558.75 C239.3125,558.4844 239.0313,558.3438 238.7344,558.3438 C238.4375,558.3438 238.2344,558.4375 238.0156,558.75 L237.8438,558.6719 Z " fill="#000000"/><text fill="#000000" font-family="sans-serif" font-size="12" lengthAdjust="spacing" textLength="100" x="249.5" y="567.1543">render_manager</text><line style="stroke:#000000;stroke-width:1.5;" x1="221.5" x2="351.5" y1="579" y2="579"/><line style="stroke:#000000;stroke-width:1.5;" x1="221.5" x2="351.5" y1="587" y2="587"/><!--MD5=[00fcdd70feb2d32efa0d9e74a1ad96b2]
class screen_device--><rect codeLine="44" fill="#F5F5F5" height="48" id="screen_device" style="stroke:#000000;stroke-width:1.5;" width="121" x="64" y="547"/><ellipse cx="79" cy="563" fill="#ADD1B2" rx="11" ry="11" style="stroke:#000000;stroke-width:1.0;"/><path d="M81.3438,558.6719 C80.4063,558.2344 79.8125,558.0938 78.9375,558.0938 C76.3125,558.0938 74.3125,560.1719 74.3125,562.8906 L74.3125,564.0156 C74.3125,566.5938 76.4219,568.4844 79.3125,568.4844 C80.5313,568.4844 81.6875,568.1875 82.4375,567.6406 C83.0156,567.2344 83.3438,566.7813 83.3438,566.3906 C83.3438,565.9375 82.9531,565.5469 82.4844,565.5469 C82.2656,565.5469 82.0625,565.625 81.875,565.8125 C81.4219,566.2969 81.4219,566.2969 81.2344,566.3906 C80.8125,566.6563 80.125,566.7813 79.3594,566.7813 C77.3125,566.7813 76.0156,565.6875 76.0156,563.9844 L76.0156,562.8906 C76.0156,561.1094 77.2656,559.7969 79,559.7969 C79.5781,559.7969 80.1875,559.9531 80.6563,560.2031 C81.1406,560.4844 81.3125,560.7031 81.4063,561.1094 C81.4688,561.5156 81.5,561.6406 81.6406,561.7656 C81.7813,561.9063 82.0156,562.0156 82.2344,562.0156 C82.5,562.0156 82.7656,561.875 82.9375,561.6563 C83.0469,561.5 83.0781,561.3125 83.0781,560.8906 L83.0781,559.4688 C83.0781,559.0313 83.0625,558.9063 82.9688,558.75 C82.8125,558.4844 82.5313,558.3438 82.2344,558.3438 C81.9375,558.3438 81.7344,558.4375 81.5156,558.75 L81.3438,558.6719 Z " fill="#000000"/><text fill="#000000" font-family="sans-serif" font-size="12" lengthAdjust="spacing" textLength="89" x="93" y="567.1543">screen_device</text><line style="stroke:#000000;stroke-width:1.5;" x1="65" x2="184" y1="579" y2="579"/><line style="stroke:#000000;stroke-width:1.5;" x1="65" x2="184" y1="587" y2="587"/><!--MD5=[8d974bec9057b25156b0ac719d536c89]
class machine_manager--><rect codeLine="48" fill="#F5F5F5" height="48" id="machine_manager" style="stroke:#000000;stroke-width:1.5;" width="141" x="436" y="115"/><ellipse cx="451" cy="131" fill="#ADD1B2" rx="11" ry="11" style="stroke:#000000;stroke-width:1.0;"/><path d="M453.3438,126.6719 C452.4063,126.2344 451.8125,126.0938 450.9375,126.0938 C448.3125,126.0938 446.3125,128.1719 446.3125,130.8906 L446.3125,132.0156 C446.3125,134.5938 448.4219,136.4844 451.3125,136.4844 C452.5313,136.4844 453.6875,136.1875 454.4375,135.6406 C455.0156,135.2344 455.3438,134.7813 455.3438,134.3906 C455.3438,133.9375 454.9531,133.5469 454.4844,133.5469 C454.2656,133.5469 454.0625,133.625 453.875,133.8125 C453.4219,134.2969 453.4219,134.2969 453.2344,134.3906 C452.8125,134.6563 452.125,134.7813 451.3594,134.7813 C449.3125,134.7813 448.0156,133.6875 448.0156,131.9844 L448.0156,130.8906 C448.0156,129.1094 449.2656,127.7969 451,127.7969 C451.5781,127.7969 452.1875,127.9531 452.6563,128.2031 C453.1406,128.4844 453.3125,128.7031 453.4063,129.1094 C453.4688,129.5156 453.5,129.6406 453.6406,129.7656 C453.7813,129.9063 454.0156,130.0156 454.2344,130.0156 C454.5,130.0156 454.7656,129.875 454.9375,129.6563 C455.0469,129.5 455.0781,129.3125 455.0781,128.8906 L455.0781,127.4688 C455.0781,127.0313 455.0625,126.9063 454.9688,126.75 C454.8125,126.4844 454.5313,126.3438 454.2344,126.3438 C453.9375,126.3438 453.7344,126.4375 453.5156,126.75 L453.3438,126.6719 Z " fill="#000000"/><text fill="#000000" font-family="sans-serif" font-size="12" lengthAdjust="spacing" textLength="109" x="465" y="135.1543">machine_manager</text><line style="stroke:#000000;stroke-width:1.5;" x1="437" x2="576" y1="147" y2="147"/><line style="stroke:#000000;stroke-width:1.5;" x1="437" x2="576" y1="155" y2="155"/><!--MD5=[64e90eda65eb9a3f32dfc8876dd9005b]
class osd_interface--><rect codeLine="84" fill="#F5F5F5" height="48" id="osd_interface" style="stroke:#000000;stroke-width:1.5;" width="114" x="439.5" y="547"/><ellipse cx="454.5" cy="563" fill="#ADD1B2" rx="11" ry="11" style="stroke:#000000;stroke-width:1.0;"/><path d="M456.8438,558.6719 C455.9063,558.2344 455.3125,558.0938 454.4375,558.0938 C451.8125,558.0938 449.8125,560.1719 449.8125,562.8906 L449.8125,564.0156 C449.8125,566.5938 451.9219,568.4844 454.8125,568.4844 C456.0313,568.4844 457.1875,568.1875 457.9375,567.6406 C458.5156,567.2344 458.8438,566.7813 458.8438,566.3906 C458.8438,565.9375 458.4531,565.5469 457.9844,565.5469 C457.7656,565.5469 457.5625,565.625 457.375,565.8125 C456.9219,566.2969 456.9219,566.2969 456.7344,566.3906 C456.3125,566.6563 455.625,566.7813 454.8594,566.7813 C452.8125,566.7813 451.5156,565.6875 451.5156,563.9844 L451.5156,562.8906 C451.5156,561.1094 452.7656,559.7969 454.5,559.7969 C455.0781,559.7969 455.6875,559.9531 456.1563,560.2031 C456.6406,560.4844 456.8125,560.7031 456.9063,561.1094 C456.9688,561.5156 457,561.6406 457.1406,561.7656 C457.2813,561.9063 457.5156,562.0156 457.7344,562.0156 C458,562.0156 458.2656,561.875 458.4375,561.6563 C458.5469,561.5 458.5781,561.3125 458.5781,560.8906 L458.5781,559.4688 C458.5781,559.0313 458.5625,558.9063 458.4688,558.75 C458.3125,558.4844 458.0313,558.3438 457.7344,558.3438 C457.4375,558.3438 457.2344,558.4375 457.0156,558.75 L456.8438,558.6719 Z " fill="#000000"/><text fill="#000000" font-family="sans-serif" font-size="12" lengthAdjust="spacing" textLength="82" x="468.5" y="567.1543">osd_interface</text><line style="stroke:#000000;stroke-width:1.5;" x1="440.5" x2="552.5" y1="579" y2="579"/><line style="stroke:#000000;stroke-width:1.5;" x1="440.5" x2="552.5" y1="587" y2="587"/><!--MD5=[88dbb0a63bb3c138d97a6fe7989da878]
class osd_renderer--><rect codeLine="59" fill="#F5F5F5" height="48" id="osd_renderer" style="stroke:#000000;stroke-width:1.5;" width="115" x="660" y="547"/><ellipse cx="675" cy="563" fill="#ADD1B2" rx="11" ry="11" style="stroke:#000000;stroke-width:1.0;"/><path d="M677.3438,558.6719 C676.4063,558.2344 675.8125,558.0938 674.9375,558.0938 C672.3125,558.0938 670.3125,560.1719 670.3125,562.8906 L670.3125,564.0156 C670.3125,566.5938 672.4219,568.4844 675.3125,568.4844 C676.5313,568.4844 677.6875,568.1875 678.4375,567.6406 C679.0156,567.2344 679.3438,566.7813 679.3438,566.3906 C679.3438,565.9375 678.9531,565.5469 678.4844,565.5469 C678.2656,565.5469 678.0625,565.625 677.875,565.8125 C677.4219,566.2969 677.4219,566.2969 677.2344,566.3906 C676.8125,566.6563 676.125,566.7813 675.3594,566.7813 C673.3125,566.7813 672.0156,565.6875 672.0156,563.9844 L672.0156,562.8906 C672.0156,561.1094 673.2656,559.7969 675,559.7969 C675.5781,559.7969 676.1875,559.9531 676.6563,560.2031 C677.1406,560.4844 677.3125,560.7031 677.4063,561.1094 C677.4688,561.5156 677.5,561.6406 677.6406,561.7656 C677.7813,561.9063 678.0156,562.0156 678.2344,562.0156 C678.5,562.0156 678.7656,561.875 678.9375,561.6563 C679.0469,561.5 679.0781,561.3125 679.0781,560.8906 L679.0781,559.4688 C679.0781,559.0313 679.0625,558.9063 678.9688,558.75 C678.8125,558.4844 678.5313,558.3438 678.2344,558.3438 C677.9375,558.3438 677.7344,558.4375 677.5156,558.75 L677.3438,558.6719 Z " fill="#000000"/><text fill="#000000" font-family="sans-serif" font-size="12" lengthAdjust="spacing" textLength="83" x="689" y="567.1543">osd_renderer</text><line style="stroke:#000000;stroke-width:1.5;" x1="661" x2="774" y1="579" y2="579"/><line style="stroke:#000000;stroke-width:1.5;" x1="661" x2="774" y1="587" y2="587"/><!--MD5=[cac353306241a567ca72fcdbb9cb5eee]
class renderer_sdl2--><rect codeLine="61" fill="#F5F5F5" height="48" id="renderer_sdl2" style="stroke:#000000;stroke-width:1.5;" width="118" x="648.5" y="655"/><ellipse cx="663.5" cy="671" fill="#ADD1B2" rx="11" ry="11" style="stroke:#000000;stroke-width:1.0;"/><path d="M665.8438,666.6719 C664.9063,666.2344 664.3125,666.0938 663.4375,666.0938 C660.8125,666.0938 658.8125,668.1719 658.8125,670.8906 L658.8125,672.0156 C658.8125,674.5938 660.9219,676.4844 663.8125,676.4844 C665.0313,676.4844 666.1875,676.1875 666.9375,675.6406 C667.5156,675.2344 667.8438,674.7813 667.8438,674.3906 C667.8438,673.9375 667.4531,673.5469 666.9844,673.5469 C666.7656,673.5469 666.5625,673.625 666.375,673.8125 C665.9219,674.2969 665.9219,674.2969 665.7344,674.3906 C665.3125,674.6563 664.625,674.7813 663.8594,674.7813 C661.8125,674.7813 660.5156,673.6875 660.5156,671.9844 L660.5156,670.8906 C660.5156,669.1094 661.7656,667.7969 663.5,667.7969 C664.0781,667.7969 664.6875,667.9531 665.1563,668.2031 C665.6406,668.4844 665.8125,668.7031 665.9063,669.1094 C665.9688,669.5156 666,669.6406 666.1406,669.7656 C666.2813,669.9063 666.5156,670.0156 666.7344,670.0156 C667,670.0156 667.2656,669.875 667.4375,669.6563 C667.5469,669.5 667.5781,669.3125 667.5781,668.8906 L667.5781,667.4688 C667.5781,667.0313 667.5625,666.9063 667.4688,666.75 C667.3125,666.4844 667.0313,666.3438 666.7344,666.3438 C666.4375,666.3438 666.2344,666.4375 666.0156,666.75 L665.8438,666.6719 Z " fill="#000000"/><text fill="#000000" font-family="sans-serif" font-size="12" lengthAdjust="spacing" textLength="86" x="677.5" y="675.1543">renderer_sdl2</text><line style="stroke:#000000;stroke-width:1.5;" x1="649.5" x2="765.5" y1="687" y2="687"/><line style="stroke:#000000;stroke-width:1.5;" x1="649.5" x2="765.5" y1="695" y2="695"/><!--MD5=[a7536805b8497474c6affc96301469ad]
class SDL2--><rect codeLine="63" fill="#F5F5F5" height="48" id="SDL2" style="stroke:#000000;stroke-width:1.5;" width="63" x="782" y="763"/><ellipse cx="797" cy="779" fill="#ADD1B2" rx="11" ry="11" style="stroke:#000000;stroke-width:1.0;"/><path d="M799.3438,774.6719 C798.4063,774.2344 797.8125,774.0938 796.9375,774.0938 C794.3125,774.0938 792.3125,776.1719 792.3125,778.8906 L792.3125,780.0156 C792.3125,782.5938 794.4219,784.4844 797.3125,784.4844 C798.5313,784.4844 799.6875,784.1875 800.4375,783.6406 C801.0156,783.2344 801.3438,782.7813 801.3438,782.3906 C801.3438,781.9375 800.9531,781.5469 800.4844,781.5469 C800.2656,781.5469 800.0625,781.625 799.875,781.8125 C799.4219,782.2969 799.4219,782.2969 799.2344,782.3906 C798.8125,782.6563 798.125,782.7813 797.3594,782.7813 C795.3125,782.7813 794.0156,781.6875 794.0156,779.9844 L794.0156,778.8906 C794.0156,777.1094 795.2656,775.7969 797,775.7969 C797.5781,775.7969 798.1875,775.9531 798.6563,776.2031 C799.1406,776.4844 799.3125,776.7031 799.4063,777.1094 C799.4688,777.5156 799.5,777.6406 799.6406,777.7656 C799.7813,777.9063 800.0156,778.0156 800.2344,778.0156 C800.5,778.0156 800.7656,777.875 800.9375,777.6563 C801.0469,777.5 801.0781,777.3125 801.0781,776.8906 L801.0781,775.4688 C801.0781,775.0313 801.0625,774.9063 800.9688,774.75 C800.8125,774.4844 800.5313,774.3438 800.2344,774.3438 C799.9375,774.3438 799.7344,774.4375 799.5156,774.75 L799.3438,774.6719 Z " fill="#000000"/><text fill="#000000" font-family="sans-serif" font-size="12" lengthAdjust="spacing" textLength="31" x="811" y="783.1543">SDL2</text><line style="stroke:#000000;stroke-width:1.5;" x1="783" x2="844" y1="795" y2="795"/><line style="stroke:#000000;stroke-width:1.5;" x1="783" x2="844" y1="803" y2="803"/><!--MD5=[d5d96e29082ef73ef9ce08f9a4aab421]
class SDL_window_info--><rect codeLine="76" fill="#F5F5F5" height="48" id="SDL_window_info" style="stroke:#000000;stroke-width:1.5;" width="236" x="801.5" y="655"/><ellipse cx="816.5" cy="671" fill="#ADD1B2" rx="11" ry="11" style="stroke:#000000;stroke-width:1.0;"/><path d="M818.8438,666.6719 C817.9063,666.2344 817.3125,666.0938 816.4375,666.0938 C813.8125,666.0938 811.8125,668.1719 811.8125,670.8906 L811.8125,672.0156 C811.8125,674.5938 813.9219,676.4844 816.8125,676.4844 C818.0313,676.4844 819.1875,676.1875 819.9375,675.6406 C820.5156,675.2344 820.8438,674.7813 820.8438,674.3906 C820.8438,673.9375 820.4531,673.5469 819.9844,673.5469 C819.7656,673.5469 819.5625,673.625 819.375,673.8125 C818.9219,674.2969 818.9219,674.2969 818.7344,674.3906 C818.3125,674.6563 817.625,674.7813 816.8594,674.7813 C814.8125,674.7813 813.5156,673.6875 813.5156,671.9844 L813.5156,670.8906 C813.5156,669.1094 814.7656,667.7969 816.5,667.7969 C817.0781,667.7969 817.6875,667.9531 818.1563,668.2031 C818.6406,668.4844 818.8125,668.7031 818.9063,669.1094 C818.9688,669.5156 819,669.6406 819.1406,669.7656 C819.2813,669.9063 819.5156,670.0156 819.7344,670.0156 C820,670.0156 820.2656,669.875 820.4375,669.6563 C820.5469,669.5 820.5781,669.3125 820.5781,668.8906 L820.5781,667.4688 C820.5781,667.0313 820.5625,666.9063 820.4688,666.75 C820.3125,666.4844 820.0313,666.3438 819.7344,666.3438 C819.4375,666.3438 819.2344,666.4375 819.0156,666.75 L818.8438,666.6719 Z " fill="#000000"/><text fill="#000000" font-family="sans-serif" font-size="12" lengthAdjust="spacing" textLength="103" x="830.5" y="675.1543">SDL_window_info</text><rect fill="#FFFFFF" height="15.9688" style="stroke:#000000;stroke-width:1.0;stroke-dasharray:2.0,2.0;" width="99" x="941.5" y="652"/><text fill="#000000" font-family="sans-serif" font-size="12" font-style="italic" lengthAdjust="spacing" textLength="97" x="942.5" y="664.1387">TWindowHandle</text><line style="stroke:#000000;stroke-width:1.5;" x1="802.5" x2="1036.5" y1="687" y2="687"/><line style="stroke:#000000;stroke-width:1.5;" x1="802.5" x2="1036.5" y1="695" y2="695"/><!--MD5=[c5840b911fc8ca21582617c87d822171]
class osd_window--><rect codeLine="74" fill="#F5F5F5" height="48" id="osd_window" style="stroke:#000000;stroke-width:1.5;" width="107" x="664" y="439"/><ellipse cx="679" cy="455" fill="#ADD1B2" rx="11" ry="11" style="stroke:#000000;stroke-width:1.0;"/><path d="M681.3438,450.6719 C680.4063,450.2344 679.8125,450.0938 678.9375,450.0938 C676.3125,450.0938 674.3125,452.1719 674.3125,454.8906 L674.3125,456.0156 C674.3125,458.5938 676.4219,460.4844 679.3125,460.4844 C680.5313,460.4844 681.6875,460.1875 682.4375,459.6406 C683.0156,459.2344 683.3438,458.7813 683.3438,458.3906 C683.3438,457.9375 682.9531,457.5469 682.4844,457.5469 C682.2656,457.5469 682.0625,457.625 681.875,457.8125 C681.4219,458.2969 681.4219,458.2969 681.2344,458.3906 C680.8125,458.6563 680.125,458.7813 679.3594,458.7813 C677.3125,458.7813 676.0156,457.6875 676.0156,455.9844 L676.0156,454.8906 C676.0156,453.1094 677.2656,451.7969 679,451.7969 C679.5781,451.7969 680.1875,451.9531 680.6563,452.2031 C681.1406,452.4844 681.3125,452.7031 681.4063,453.1094 C681.4688,453.5156 681.5,453.6406 681.6406,453.7656 C681.7813,453.9063 682.0156,454.0156 682.2344,454.0156 C682.5,454.0156 682.7656,453.875 682.9375,453.6563 C683.0469,453.5 683.0781,453.3125 683.0781,452.8906 L683.0781,451.4688 C683.0781,451.0313 683.0625,450.9063 682.9688,450.75 C682.8125,450.4844 682.5313,450.3438 682.2344,450.3438 C681.9375,450.3438 681.7344,450.4375 681.5156,450.75 L681.3438,450.6719 Z " fill="#000000"/><text fill="#000000" font-family="sans-serif" font-size="12" lengthAdjust="spacing" textLength="75" x="693" y="459.1543">osd_window</text><line style="stroke:#000000;stroke-width:1.5;" x1="665" x2="770" y1="471" y2="471"/><line style="stroke:#000000;stroke-width:1.5;" x1="665" x2="770" y1="479" y2="479"/><!--MD5=[c444adffea50446b6c59c2ad6cfaf8cd]
class osd_window_t--><rect codeLine="72" fill="#F5F5F5" height="48" id="osd_window_t" style="stroke:#000000;stroke-width:1.5;" width="218" x="810.5" y="547"/><ellipse cx="825.5" cy="563" fill="#ADD1B2" rx="11" ry="11" style="stroke:#000000;stroke-width:1.0;"/><path d="M827.8438,558.6719 C826.9063,558.2344 826.3125,558.0938 825.4375,558.0938 C822.8125,558.0938 820.8125,560.1719 820.8125,562.8906 L820.8125,564.0156 C820.8125,566.5938 822.9219,568.4844 825.8125,568.4844 C827.0313,568.4844 828.1875,568.1875 828.9375,567.6406 C829.5156,567.2344 829.8438,566.7813 829.8438,566.3906 C829.8438,565.9375 829.4531,565.5469 828.9844,565.5469 C828.7656,565.5469 828.5625,565.625 828.375,565.8125 C827.9219,566.2969 827.9219,566.2969 827.7344,566.3906 C827.3125,566.6563 826.625,566.7813 825.8594,566.7813 C823.8125,566.7813 822.5156,565.6875 822.5156,563.9844 L822.5156,562.8906 C822.5156,561.1094 823.7656,559.7969 825.5,559.7969 C826.0781,559.7969 826.6875,559.9531 827.1563,560.2031 C827.6406,560.4844 827.8125,560.7031 827.9063,561.1094 C827.9688,561.5156 828,561.6406 828.1406,561.7656 C828.2813,561.9063 828.5156,562.0156 828.7344,562.0156 C829,562.0156 829.2656,561.875 829.4375,561.6563 C829.5469,561.5 829.5781,561.3125 829.5781,560.8906 L829.5781,559.4688 C829.5781,559.0313 829.5625,558.9063 829.4688,558.75 C829.3125,558.4844 829.0313,558.3438 828.7344,558.3438 C828.4375,558.3438 828.2344,558.4375 828.0156,558.75 L827.8438,558.6719 Z " fill="#000000"/><text fill="#000000" font-family="sans-serif" font-size="12" lengthAdjust="spacing" textLength="85" x="839.5" y="567.1543">osd_window_t</text><rect fill="#FFFFFF" height="15.9688" style="stroke:#000000;stroke-width:1.0;stroke-dasharray:2.0,2.0;" width="99" x="932.5" y="544"/><text fill="#000000" font-family="sans-serif" font-size="12" font-style="italic" lengthAdjust="spacing" textLength="97" x="933.5" y="556.1387">TWindowHandle</text><line style="stroke:#000000;stroke-width:1.5;" x1="811.5" x2="1027.5" y1="579" y2="579"/><line style="stroke:#000000;stroke-width:1.5;" x1="811.5" x2="1027.5" y1="587" y2="587"/><!--MD5=[9b4aed534e8a64e5fa5fba1513b75829]
reverse link osd_common_t to SDL_osd_interface--><path d="M531,723.2373 C531,723.2373 531,762.8436 531,762.8436 " fill="none" id="osd_common_t-backto-SDL_osd_interface" style="stroke:#000000;stroke-width:1.0;"/><polygon fill="none" points="524,723.2373,531,703.237,538,723.2373,524,723.2373" style="stroke:#000000;stroke-width:1.0;"/><!--MD5=[51870fe66554d7f04301eb840dab1e88]
link osd_common_t to SDL_osd_interface--><path codeLine="79" d="M572,703.237 C572,721.024 572,745.0759 572,762.8436 " fill="none" id="osd_common_t-SDL_osd_interface" style="stroke:#000000;stroke-width:1.0;"/><!--MD5=[3fe4051adafafac3a0cf9c95289e8117]
link SDL_main to SDL_osd_interface--><path codeLine="14" d="M35.5,55.297 C35.5,184.698 35.5,787 35.5,787 C35.5,787 337.97,787 479.752,787 " fill="none" id="SDL_main-SDL_osd_interface" style="stroke:#000000;stroke-width:1.0;"/><!--MD5=[03091dd2193e694c0e6514285378836f]
link SDL_main to emulator_info--><path codeLine="18" d="M89.5,55.237 C89.5,73.024 89.5,97.076 89.5,114.844 " fill="none" id="SDL_main-emulator_info" style="stroke:#000000;stroke-width:1.0;"/><!--MD5=[9f76095e0e4b115155aed6a548c36334]
link emulator_info to running_machine--><path codeLine="19" d="M196.314,131 C278.35,131 420.25,131 420.25,131 C420.25,131 420.25,272.546 420.25,330.602 " fill="none" id="emulator_info-running_machine" style="stroke:#000000;stroke-width:1.0;"/><!--MD5=[64a16bbc7cc6288415c42e6e2eed8504]
link mame_ui_manager to render_container--><path codeLine="27" d="M229.25,379.237 C229.25,397.024 229.25,421.076 229.25,438.844 " fill="none" id="mame_ui_manager-render_container" style="stroke:#000000;stroke-width:1.0;"/><!--MD5=[9ad1b9afcb86847d82a67b6be878b971]
link mame_machine_manager to mame_ui_manager--><path codeLine="28" d="M297.5,271.237 C297.5,289.024 297.5,313.076 297.5,330.844 " fill="none" id="mame_machine_manager-mame_ui_manager" style="stroke:#000000;stroke-width:1.0;"/><!--MD5=[2c6bcd8d9f82d6083154ddaa327f27ad]
link emulator_info to mame_machine_manager--><path codeLine="30" d="M156.5,163.237 C156.5,195.079 156.5,247 156.5,247 C156.5,247 174.953,247 198.164,247 " fill="none" id="emulator_info-mame_machine_manager" style="stroke:#000000;stroke-width:1.0;"/><!--MD5=[bd1c20ea0a93786d8c202237c0748470]
link emulator_info to cli_frontend--><path codeLine="31" d="M122.5,163.358 C122.5,204.953 122.5,289.197 122.5,330.731 " fill="none" id="emulator_info-cli_frontend" style="stroke:#000000;stroke-width:1.0;"/><!--MD5=[44966c901c66b3cc6a1ea462291309f0]
link mame_machine_manager to cli_frontend--><path codeLine="32" d="M212,271.237 C212,303.079 212,355 212,355 C212,355 202.637,355 190.64,355 " fill="none" id="mame_machine_manager-cli_frontend" style="stroke:#000000;stroke-width:1.0;"/><!--MD5=[e533f1b2e3e8db8b44e02c1618113a09]
link mame_machine_manager to running_machine--><path codeLine="36" d="M376,271.237 C376,303.079 376,355 376,355 C376,355 388.471,355 404.353,355 " fill="none" id="mame_machine_manager-running_machine" style="stroke:#000000;stroke-width:1.0;"/><!--MD5=[e5994204d75d9919a1034d370b32c911]
link running_machine to video_manager--><path codeLine="37" d="M444.833,379.237 C444.833,397.024 444.833,421.076 444.833,438.844 " fill="none" id="running_machine-video_manager" style="stroke:#000000;stroke-width:1.0;"/><!--MD5=[eb01ff25b462fdd82e861212fa3da77b]
link render_container to render_manager--><path codeLine="38" d="M226.75,487.237 C226.75,505.024 226.75,529.076 226.75,546.844 " fill="none" id="render_container-render_manager" style="stroke:#000000;stroke-width:1.0;"/><!--MD5=[12881c7d8ff38306cfd8049925d1dd96]
link running_machine to render_manager--><path codeLine="39" d="M424.667,379.157 C424.667,393.535 424.667,409 424.667,409 C424.667,409 286.5,409 286.5,409 C286.5,409 286.5,501.554 286.5,546.747 " fill="none" id="running_machine-render_manager" style="stroke:#000000;stroke-width:1.0;"/><!--MD5=[c241748f12308521c444d070a7fe6be9]
link render_container to screen_device--><path codeLine="40" d="M141.5,487.237 C141.5,505.024 141.5,529.076 141.5,546.844 " fill="none" id="render_container-screen_device" style="stroke:#000000;stroke-width:1.0;"/><!--MD5=[db2b8bd2617c3679be7c202793887917]
link machine_manager to osd_interface--><path codeLine="50" d="M545,163.152 C545,238.847 545,470.924 545,546.752 " fill="none" id="machine_manager-osd_interface" style="stroke:#000000;stroke-width:1.0;"/><!--MD5=[4d85bc5b84dc89be87f7ed22d96356bb]
link machine_manager to running_machine--><path codeLine="51" d="M503,163.358 C503,204.953 503,289.197 503,330.731 " fill="none" id="machine_manager-running_machine" style="stroke:#000000;stroke-width:1.0;"/><!--MD5=[f094ae401888307d3e22bd77c3ccb809]
reverse link machine_manager to mame_machine_manager--><path d="M469.5,183.237 C469.5,183.237 469.5,247 469.5,247 C469.5,247 426.481,247 382.622,247 " fill="none" id="machine_manager-backto-mame_machine_manager" style="stroke:#000000;stroke-width:1.0;"/><polygon fill="none" points="462.5,183.237,469.5,163.237,476.5,183.237,462.5,183.237" style="stroke:#000000;stroke-width:1.0;"/><!--MD5=[67401043896b9b7a8ab849f658b09b03]
link running_machine to osd_interface--><path codeLine="55" d="M500.75,379.358 C500.75,420.953 500.75,505.197 500.75,546.731 " fill="none" id="running_machine-osd_interface" style="stroke:#000000;stroke-width:1.0;"/><!--MD5=[28fbd34f38c8cc744c618ee68601cc1b]
link video_manager to osd_interface--><path codeLine="56" d="M452.25,487.237 C452.25,505.024 452.25,529.076 452.25,546.844 " fill="none" id="video_manager-osd_interface" style="stroke:#000000;stroke-width:1.0;"/><!--MD5=[ae0478b83e6803f23f09716522bfac2c]
link video_manager to emulator_info--><path codeLine="57" d="M393.5,438.989 C393.5,365.246 393.5,147 393.5,147 C393.5,147 271.046,147 196.186,147 " fill="none" id="video_manager-emulator_info" style="stroke:#000000;stroke-width:1.0;"/><!--MD5=[3495575551e38f818e7d7313fe052b96]
reverse link osd_renderer to renderer_sdl2--><path d="M695.5,615.237 C695.5,615.237 695.5,654.844 695.5,654.844 " fill="none" id="osd_renderer-backto-renderer_sdl2" style="stroke:#000000;stroke-width:1.0;"/><polygon fill="none" points="688.5,615.237,695.5,595.237,702.5,615.237,688.5,615.237" style="stroke:#000000;stroke-width:1.0;"/><!--MD5=[343d88879fd7949952837edffb9af2d4]
link renderer_sdl2 to osd_renderer--><path codeLine="69" d="M731,654.763 C731,636.976 731,612.924 731,595.156 " fill="none" id="renderer_sdl2-osd_renderer" style="stroke:#000000;stroke-width:1.0;"/><!--MD5=[5b72cb96ee2b989ca106b6d192fe8908]
link renderer_sdl2 to SDL2--><path codeLine="65" d="M766.928,687 C780.869,687 791.75,687 791.75,687 C791.75,687 791.75,733.1975 791.75,762.7928 " fill="none" id="renderer_sdl2-SDL2" style="stroke:#000000;stroke-width:1.0;"/><!--MD5=[d298bd8bc403cdde0995c04c1ddd41ce]
link SDL_window_info to SDL2--><path codeLine="66" d="M830.5,703.237 C830.5,721.024 830.5,745.0759 830.5,762.8436 " fill="none" id="SDL_window_info-SDL2" style="stroke:#000000;stroke-width:1.0;"/><!--MD5=[db91dadce38bf059abbdc26f81d8de2d]
link osd_window to osd_renderer--><path codeLine="68" d="M717.5,487.237 C717.5,505.024 717.5,529.076 717.5,546.844 " fill="none" id="osd_window-osd_renderer" style="stroke:#000000;stroke-width:1.0;"/><!--MD5=[b7836646a5ae664870ad88af45ee6dc6]
link renderer_sdl2 to SDL_osd_interface--><path codeLine="70" d="M648.475,679 C630.949,679 616.333,679 616.333,679 C616.333,679 616.333,730.9207 616.333,762.7627 " fill="none" id="renderer_sdl2-SDL_osd_interface" style="stroke:#000000;stroke-width:1.0;"/><!--MD5=[262d13047fcf99abbcbe11eceb5f3883]
reverse link osd_window to osd_window_t--><path d="M791.102,463 C791.102,463 919.5,463 919.5,463 C919.5,463 919.5,514.921 919.5,546.763 " fill="none" id="osd_window-backto-osd_window_t" style="stroke:#000000;stroke-width:1.0;"/><polygon fill="none" points="791.102,470,771.102,463,791.102,456,791.102,470" style="stroke:#000000;stroke-width:1.0;"/><!--MD5=[b666a17a8119a1dd86d4e1cfed8ee5a5]
reverse link osd_window_t to SDL_window_info--><path d="M919.5,615.237 C919.5,615.237 919.5,654.844 919.5,654.844 " fill="none" id="osd_window_t-backto-SDL_window_info" style="stroke:#000000;stroke-width:1.0;"/><polygon fill="none" points="912.5,615.237,919.5,595.237,926.5,615.237,912.5,615.237" style="stroke:#000000;stroke-width:1.0;"/><!--MD5=[34f4571e186e391ce25fefefeb1474e1]
link osd_renderer to SDL_window_info--><path codeLine="78" d="M770.75,595.207 C770.75,624.802 770.75,671 770.75,671 C770.75,671 783.348,671 801.211,671 " fill="none" id="osd_renderer-SDL_window_info" style="stroke:#000000;stroke-width:1.0;"/><!--MD5=[6cabd2634a6c685eaba9d13319cbf255]
link SDL_window_info to SDL_osd_interface--><path codeLine="80" d="M816,703.157 C816,717.5348 816,733 816,733 C816,733 619.667,733 619.667,733 C619.667,733 619.667,748.4652 619.667,762.843 " fill="none" id="SDL_window_info-SDL_osd_interface" style="stroke:#000000;stroke-width:1.0;"/><!--MD5=[96f4e281115bbfbb7cbf6af109e3f1a6]
link osd_window to osd_common_t--><path codeLine="82" d="M663.77,463 C630.855,463 595,463 595,463 C595,463 595,598.152 595,654.642 " fill="none" id="osd_window-osd_common_t" style="stroke:#000000;stroke-width:1.0;"/><!--MD5=[e6aa65b018d89c4f3412dcc7bbdcd557]
reverse link osd_interface to osd_common_t--><path d="M521.75,615.237 C521.75,615.237 521.75,654.844 521.75,654.844 " fill="none" id="osd_interface-backto-osd_common_t" style="stroke:#000000;stroke-width:1.0;"/><polygon fill="none" points="514.75,615.237,521.75,595.237,528.75,615.237,514.75,615.237" style="stroke:#000000;stroke-width:1.0;"/><!--MD5=[bda48113ce3234847488e94c6026ee7b]
@startuml
skinparam Shadowing false
skinparam LineType ortho
skinparam ArrowColor black

skinparam class {
    BackgroundColor WhiteSmoke
    BorderColor black
}

class SDL_main #Linen 

class SDL_osd_interface extends osd_common_t 

SDL_main - - SDL_osd_interface

class emulator_info 

SDL_main - - emulator_info
emulator_info - - running_machine

class cli_frontend 

class mame_ui_manager 

class render_container 

mame_ui_manager - - render_container
mame_machine_manager - - mame_ui_manager

emulator_info - - mame_machine_manager
emulator_info - - cli_frontend
mame_machine_manager - - cli_frontend

class running_machine 

mame_machine_manager - - running_machine
running_machine - - video_manager
render_container - - render_manager
running_machine - - render_manager
render_container - - screen_device

class render_manager

class screen_device 

class video_manager 

class machine_manager

machine_manager - - osd_interface
machine_manager - - running_machine

class mame_machine_manager extends machine_manager 

running_machine - - osd_interface
video_manager - - osd_interface
video_manager - - emulator_info

class osd_renderer 

class renderer_sdl2 extends osd_renderer 

class SDL2 

renderer_sdl2 - - SDL2
SDL_window_info - - SDL2

osd_window - - osd_renderer
renderer_sdl2 - - osd_renderer
renderer_sdl2 - - SDL_osd_interface

class osd_window_t<TWindowHandle> extends osd_window 

class osd_window 

class SDL_window_info<TWindowHandle> extends osd_window_t 

osd_renderer - - SDL_window_info
osd_common_t - - SDL_osd_interface
SDL_window_info - - SDL_osd_interface

osd_window - - osd_common_t

class osd_interface 

class osd_common_t extends osd_interface 

' 'note bottom of SDL_window_info
' note as nTWindowHandle
' TWindowHandle:
'     -SDL_Window (SDLMame = All O.S.)
'     -CoreWindow (UWP)
'     -HWND (Windows)
'     -std::any (macOS)
' end note

' 'note bottom of renderer_sdl2
' note as nrenderer_sdl2
' Renderer:
'     -bgfx {macOS, SDLMame, UWP, Windows}
'     -OpenGL {macOS, SDLMame, Windows}
'     -SDL 1 {SDLMame}
'     -SDL 2 {SDLMame}
'     -DirectX 9 {Win32}
'     -GDI+ {Win32}
' end note

' note as nSDL
' O.S.:
'     -macOS 
'     -Windows
'     -UWP
'     -SDLMame = All O.S.
' end note

' nrenderer_sdl2 .. renderer_sdl2
' nrenderer_sdl2 .. SDL2
' nTWindowHandle .. SDL_window_info
' nSDL .. SDL_main
' nSDL .. SDL_osd_interface
' nSDL .. SDL_window_info
@enduml

@startuml
skinparam Shadowing false
skinparam LineType ortho
skinparam ArrowColor black

skinparam class {
    BackgroundColor WhiteSmoke
    BorderColor black
}

class SDL_main #Linen 

class SDL_osd_interface extends osd_common_t 

SDL_main - - SDL_osd_interface

class emulator_info 

SDL_main - - emulator_info
emulator_info - - running_machine

class cli_frontend 

class mame_ui_manager 

class render_container 

mame_ui_manager - - render_container
mame_machine_manager - - mame_ui_manager

emulator_info - - mame_machine_manager
emulator_info - - cli_frontend
mame_machine_manager - - cli_frontend

class running_machine 

mame_machine_manager - - running_machine
running_machine - - video_manager
render_container - - render_manager
running_machine - - render_manager
render_container - - screen_device

class render_manager

class screen_device 

class video_manager 

class machine_manager

machine_manager - - osd_interface
machine_manager - - running_machine

class mame_machine_manager extends machine_manager 

running_machine - - osd_interface
video_manager - - osd_interface
video_manager - - emulator_info

class osd_renderer 

class renderer_sdl2 extends osd_renderer 

class SDL2 

renderer_sdl2 - - SDL2
SDL_window_info - - SDL2

osd_window - - osd_renderer
renderer_sdl2 - - osd_renderer
renderer_sdl2 - - SDL_osd_interface

class osd_window_t<TWindowHandle> extends osd_window 

class osd_window 

class SDL_window_info<TWindowHandle> extends osd_window_t 

osd_renderer - - SDL_window_info
osd_common_t - - SDL_osd_interface
SDL_window_info - - SDL_osd_interface

osd_window - - osd_common_t

class osd_interface 

class osd_common_t extends osd_interface 




@enduml

PlantUML version 1.2021.6beta4(Unknown compile time)
(GPL source distribution)
Java Runtime: Java(TM) SE Runtime Environment
JVM: Java HotSpot(TM) 64-Bit Server VM
Default Encoding: UTF-8
Language: en
Country: US
--></g></svg>