<?xml version="1.0" encoding="UTF-8" standalone="no"?>
<svg xmlns="http://www.w3.org/2000/svg" xmlns:xlink="http://www.w3.org/1999/xlink" contentScriptType="application/ecmascript" contentStyleType="text/css" height="432px" preserveAspectRatio="none" style="width:755px;height:432px;background:#FFFFFF;" version="1.1" viewBox="0 0 755 432" width="755px" zoomAndPan="magnify"><defs/><g><!--MD5=[4cfa4680da27fbe5a20443effd4892a1]
class primitive_type--><rect codeLine="10" fill="#F5F5F5" height="73.6094" id="primitive_type" style="stroke:#000000;stroke-width:1.5;" width="117" x="60.5" y="217.5"/><ellipse cx="75.5" cy="233.5" fill="#EB937F" rx="11" ry="11" style="stroke:#000000;stroke-width:1.0;"/><path d="M74.2969,234.375 L75.75,234.375 L75.75,234.4844 C75.75,234.8906 75.7813,235.0469 75.8594,235.2031 C76.0156,235.4531 76.2969,235.6094 76.5938,235.6094 C76.8438,235.6094 77.1094,235.4688 77.2656,235.25 C77.3906,235.0938 77.4219,234.9375 77.4219,234.4844 L77.4219,232.5625 C77.4219,232.4063 77.4219,232.3594 77.4063,232.2031 C77.3438,231.7344 77.0313,231.4219 76.5781,231.4219 C76.3281,231.4219 76.0625,231.5625 75.8906,231.7813 C75.7813,231.9531 75.75,232.1094 75.75,232.5625 L75.75,232.6875 L74.2969,232.6875 L74.2969,230.2813 L78.2813,230.2813 L78.2813,231.1406 C78.2813,231.5469 78.3125,231.7188 78.3906,231.875 C78.5625,232.125 78.8438,232.2813 79.125,232.2813 C79.3906,232.2813 79.6563,232.1406 79.8281,231.9219 C79.9375,231.75 79.9688,231.6094 79.9688,231.1406 L79.9688,228.5938 L72.3438,228.5938 C71.9063,228.5938 71.7813,228.6094 71.625,228.7031 C71.375,228.8594 71.2188,229.1563 71.2188,229.4375 C71.2188,229.7188 71.3594,229.9688 71.5781,230.1406 C71.7344,230.25 71.9219,230.2813 72.3438,230.2813 L72.5938,230.2813 L72.5938,236.7969 L72.3438,236.7969 C71.9375,236.7969 71.7813,236.8125 71.625,236.9219 C71.375,237.0938 71.2188,237.3594 71.2188,237.6563 C71.2188,237.9219 71.3594,238.1719 71.5781,238.3281 C71.7188,238.4531 71.9531,238.5 72.3438,238.5 L80.3438,238.5 L80.3438,235.9219 C80.3438,235.4844 80.3125,235.3438 80.2344,235.1875 C80.0625,234.9375 79.7813,234.7813 79.5,234.7813 C79.2344,234.7813 78.9688,234.8906 78.7969,235.1406 C78.6875,235.2969 78.6563,235.4375 78.6563,235.9219 L78.6563,236.7969 L74.2969,236.7969 L74.2969,234.375 Z " fill="#000000"/><text fill="#000000" font-family="sans-serif" font-size="12" lengthAdjust="spacing" textLength="85" x="89.5" y="237.6543">primitive_type</text><line style="stroke:#000000;stroke-width:1.5;" x1="61.5" x2="176.5" y1="249.5" y2="249.5"/><text fill="#000000" font-family="sans-serif" font-size="11" lengthAdjust="spacing" textLength="24" x="66.5" y="263.7104">LINE</text><text fill="#000000" font-family="sans-serif" font-size="11" lengthAdjust="spacing" textLength="34" x="66.5" y="276.5151">QUAD</text><line style="stroke:#000000;stroke-width:1.5;" x1="61.5" x2="176.5" y1="283.1094" y2="283.1094"/><!--MD5=[0b7f25afcb55c3dc5203e82f5f3c72d4]
class render_primitive--><rect codeLine="16" fill="#F5F5F5" height="112.0234" id="render_primitive" style="stroke:#000000;stroke-width:1.5;" width="197" x="67.5" y="13.5"/><ellipse cx="112.25" cy="29.5" fill="#ADD1B2" rx="11" ry="11" style="stroke:#000000;stroke-width:1.0;"/><path d="M114.5938,25.1719 C113.6563,24.7344 113.0625,24.5938 112.1875,24.5938 C109.5625,24.5938 107.5625,26.6719 107.5625,29.3906 L107.5625,30.5156 C107.5625,33.0938 109.6719,34.9844 112.5625,34.9844 C113.7813,34.9844 114.9375,34.6875 115.6875,34.1406 C116.2656,33.7344 116.5938,33.2813 116.5938,32.8906 C116.5938,32.4375 116.2031,32.0469 115.7344,32.0469 C115.5156,32.0469 115.3125,32.125 115.125,32.3125 C114.6719,32.7969 114.6719,32.7969 114.4844,32.8906 C114.0625,33.1563 113.375,33.2813 112.6094,33.2813 C110.5625,33.2813 109.2656,32.1875 109.2656,30.4844 L109.2656,29.3906 C109.2656,27.6094 110.5156,26.2969 112.25,26.2969 C112.8281,26.2969 113.4375,26.4531 113.9063,26.7031 C114.3906,26.9844 114.5625,27.2031 114.6563,27.6094 C114.7188,28.0156 114.75,28.1406 114.8906,28.2656 C115.0313,28.4063 115.2656,28.5156 115.4844,28.5156 C115.75,28.5156 116.0156,28.375 116.1875,28.1563 C116.2969,28 116.3281,27.8125 116.3281,27.3906 L116.3281,25.9688 C116.3281,25.5313 116.3125,25.4063 116.2188,25.25 C116.0625,24.9844 115.7813,24.8438 115.4844,24.8438 C115.1875,24.8438 114.9844,24.9375 114.7656,25.25 L114.5938,25.1719 Z " fill="#000000"/><text fill="#000000" font-family="sans-serif" font-size="12" lengthAdjust="spacing" textLength="99" x="132.75" y="33.6543">render_primitive</text><line style="stroke:#000000;stroke-width:1.5;" x1="68.5" x2="263.5" y1="45.5" y2="45.5"/><ellipse cx="78.5" cy="56.5" rx="3" ry="3" style="stroke:#038048;stroke-width:1.0;fill:none;"/><text fill="#000000" font-family="sans-serif" font-size="11" lengthAdjust="spacing" textLength="130" x="87.5" y="59.7104">render_bounds bounds</text><ellipse cx="78.5" cy="69.3047" rx="3" ry="3" style="stroke:#038048;stroke-width:1.0;fill:none;"/><text fill="#000000" font-family="sans-serif" font-size="11" lengthAdjust="spacing" textLength="112" x="87.5" y="72.5151">primitive_type type</text><ellipse cx="78.5" cy="82.1094" rx="3" ry="3" style="stroke:#038048;stroke-width:1.0;fill:none;"/><text fill="#000000" font-family="sans-serif" font-size="11" lengthAdjust="spacing" textLength="102" x="87.5" y="85.3198">render_color color</text><ellipse cx="78.5" cy="94.9141" rx="3" ry="3" style="stroke:#038048;stroke-width:1.0;fill:none;"/><text fill="#000000" font-family="sans-serif" font-size="11" lengthAdjust="spacing" textLength="130" x="87.5" y="98.1245">render_texinfo texture</text><ellipse cx="78.5" cy="107.7188" rx="3" ry="3" style="stroke:#038048;stroke-width:1.0;fill:none;"/><text fill="#000000" font-family="sans-serif" font-size="11" lengthAdjust="spacing" textLength="171" x="87.5" y="110.9292">render_quad_texuv texcoords</text><line style="stroke:#000000;stroke-width:1.5;" x1="68.5" x2="263.5" y1="117.5234" y2="117.5234"/><!--MD5=[88dbb0a63bb3c138d97a6fe7989da878]
class osd_renderer--><rect codeLine="24" fill="#F5F5F5" height="124.8281" id="osd_renderer" style="stroke:#000000;stroke-width:1.5;" width="459" x="212.5" y="192"/><ellipse cx="396.25" cy="208" fill="#ADD1B2" rx="11" ry="11" style="stroke:#000000;stroke-width:1.0;"/><path d="M398.5938,203.6719 C397.6563,203.2344 397.0625,203.0938 396.1875,203.0938 C393.5625,203.0938 391.5625,205.1719 391.5625,207.8906 L391.5625,209.0156 C391.5625,211.5938 393.6719,213.4844 396.5625,213.4844 C397.7813,213.4844 398.9375,213.1875 399.6875,212.6406 C400.2656,212.2344 400.5938,211.7813 400.5938,211.3906 C400.5938,210.9375 400.2031,210.5469 399.7344,210.5469 C399.5156,210.5469 399.3125,210.625 399.125,210.8125 C398.6719,211.2969 398.6719,211.2969 398.4844,211.3906 C398.0625,211.6563 397.375,211.7813 396.6094,211.7813 C394.5625,211.7813 393.2656,210.6875 393.2656,208.9844 L393.2656,207.8906 C393.2656,206.1094 394.5156,204.7969 396.25,204.7969 C396.8281,204.7969 397.4375,204.9531 397.9063,205.2031 C398.3906,205.4844 398.5625,205.7031 398.6563,206.1094 C398.7188,206.5156 398.75,206.6406 398.8906,206.7656 C399.0313,206.9063 399.2656,207.0156 399.4844,207.0156 C399.75,207.0156 400.0156,206.875 400.1875,206.6563 C400.2969,206.5 400.3281,206.3125 400.3281,205.8906 L400.3281,204.4688 C400.3281,204.0313 400.3125,203.9063 400.2188,203.75 C400.0625,203.4844 399.7813,203.3438 399.4844,203.3438 C399.1875,203.3438 398.9844,203.4375 398.7656,203.75 L398.5938,203.6719 Z " fill="#000000"/><text fill="#000000" font-family="sans-serif" font-size="12" lengthAdjust="spacing" textLength="83" x="416.75" y="212.1543">osd_renderer</text><line style="stroke:#000000;stroke-width:1.5;" x1="213.5" x2="670.5" y1="224" y2="224"/><rect fill="none" height="6" style="stroke:#C82930;stroke-width:1.0;" width="6" x="220.5" y="232"/><text fill="#000000" font-family="sans-serif" font-size="11" lengthAdjust="spacing" textLength="135" x="232.5" y="238.2104">osd_window  m_window</text><line style="stroke:#000000;stroke-width:1.5;" x1="213.5" x2="670.5" y1="244.8047" y2="244.8047"/><ellipse cx="223.5" cy="255.8047" fill="#84BE84" rx="3" ry="3" style="stroke:#038048;stroke-width:1.0;"/><text fill="#000000" font-family="sans-serif" font-size="11" lengthAdjust="spacing" textLength="163" x="232.5" y="259.0151">osd_window assert_window()</text><ellipse cx="223.5" cy="268.6094" fill="#84BE84" rx="3" ry="3" style="stroke:#038048;stroke-width:1.0;"/><text fill="#000000" font-family="sans-serif" font-size="11" font-style="italic" lengthAdjust="spacing" textLength="62" x="232.5" y="271.8198">int create()</text><ellipse cx="223.5" cy="281.4141" fill="#84BE84" rx="3" ry="3" style="stroke:#038048;stroke-width:1.0;"/><text fill="#000000" font-family="sans-serif" font-size="11" font-style="italic" lengthAdjust="spacing" textLength="194" x="232.5" y="284.6245">render_primitive[] get_primitives()</text><ellipse cx="223.5" cy="294.2188" fill="#84BE84" rx="3" ry="3" style="stroke:#038048;stroke-width:1.0;"/><text fill="#000000" font-family="sans-serif" font-size="11" font-style="italic" lengthAdjust="spacing" textLength="145" x="232.5" y="297.4292">int draw(const int update)</text><ellipse cx="223.5" cy="307.0234" fill="#84BE84" rx="3" ry="3" style="stroke:#038048;stroke-width:1.0;"/><text fill="#000000" font-family="sans-serif" font-size="11" lengthAdjust="spacing" text-decoration="underline" textLength="433" x="232.5" y="310.2339">osd_renderer make_for_type(int mode, osd_window window, int extra_flags)</text><!--MD5=[c5840b911fc8ca21582617c87d822171]
class osd_window--><rect codeLine="33" fill="#F5F5F5" height="124.8281" id="osd_window" style="stroke:#000000;stroke-width:1.5;" width="190" x="323" y="7"/><ellipse cx="376.25" cy="23" fill="#ADD1B2" rx="11" ry="11" style="stroke:#000000;stroke-width:1.0;"/><path d="M378.5938,18.6719 C377.6563,18.2344 377.0625,18.0938 376.1875,18.0938 C373.5625,18.0938 371.5625,20.1719 371.5625,22.8906 L371.5625,24.0156 C371.5625,26.5938 373.6719,28.4844 376.5625,28.4844 C377.7813,28.4844 378.9375,28.1875 379.6875,27.6406 C380.2656,27.2344 380.5938,26.7813 380.5938,26.3906 C380.5938,25.9375 380.2031,25.5469 379.7344,25.5469 C379.5156,25.5469 379.3125,25.625 379.125,25.8125 C378.6719,26.2969 378.6719,26.2969 378.4844,26.3906 C378.0625,26.6563 377.375,26.7813 376.6094,26.7813 C374.5625,26.7813 373.2656,25.6875 373.2656,23.9844 L373.2656,22.8906 C373.2656,21.1094 374.5156,19.7969 376.25,19.7969 C376.8281,19.7969 377.4375,19.9531 377.9063,20.2031 C378.3906,20.4844 378.5625,20.7031 378.6563,21.1094 C378.7188,21.5156 378.75,21.6406 378.8906,21.7656 C379.0313,21.9063 379.2656,22.0156 379.4844,22.0156 C379.75,22.0156 380.0156,21.875 380.1875,21.6563 C380.2969,21.5 380.3281,21.3125 380.3281,20.8906 L380.3281,19.4688 C380.3281,19.0313 380.3125,18.9063 380.2188,18.75 C380.0625,18.4844 379.7813,18.3438 379.4844,18.3438 C379.1875,18.3438 378.9844,18.4375 378.7656,18.75 L378.5938,18.6719 Z " fill="#000000"/><text fill="#000000" font-family="sans-serif" font-size="12" lengthAdjust="spacing" textLength="75" x="396.75" y="27.1543">osd_window</text><line style="stroke:#000000;stroke-width:1.5;" x1="324" x2="512" y1="39" y2="39"/><ellipse cx="334" cy="50" rx="3" ry="3" style="stroke:#038048;stroke-width:1.0;fill:none;"/><text fill="#000000" font-family="sans-serif" font-size="11" lengthAdjust="spacing" textLength="59" x="343" y="53.2104">HDC m_dc</text><ellipse cx="334" cy="62.8047" rx="3" ry="3" style="stroke:#038048;stroke-width:1.0;fill:none;"/><text fill="#000000" font-family="sans-serif" font-size="11" lengthAdjust="spacing" textLength="164" x="343" y="66.0151">render_primitive[] m_primlist</text><line style="stroke:#000000;stroke-width:1.5;" x1="324" x2="512" y1="72.6094" y2="72.6094"/><ellipse cx="334" cy="83.6094" fill="#84BE84" rx="3" ry="3" style="stroke:#038048;stroke-width:1.0;"/><text fill="#000000" font-family="sans-serif" font-size="11" lengthAdjust="spacing" textLength="138" x="343" y="86.8198">osd_renderer renderer()</text><ellipse cx="334" cy="96.4141" fill="#84BE84" rx="3" ry="3" style="stroke:#038048;stroke-width:1.0;"/><text fill="#000000" font-family="sans-serif" font-size="11" font-style="italic" lengthAdjust="spacing" textLength="124" x="343" y="99.6245">render_target target()</text><ellipse cx="334" cy="109.2188" fill="#84BE84" rx="3" ry="3" style="stroke:#038048;stroke-width:1.0;"/><text fill="#000000" font-family="sans-serif" font-size="11" font-style="italic" lengthAdjust="spacing" textLength="157" x="343" y="112.4292">running_machine machine()</text><ellipse cx="334" cy="122.0234" fill="#84BE84" rx="3" ry="3" style="stroke:#038048;stroke-width:1.0;"/><text fill="#000000" font-family="sans-serif" font-size="11" font-style="italic" lengthAdjust="spacing" textLength="75" x="343" y="125.2339">void update()</text><!--MD5=[d9b6ab32e24ca33eca8075ad0efd5938]
class SDL--><rect codeLine="42" fill="#F5F5F5" height="48" id="SDL" style="stroke:#000000;stroke-width:1.5;" width="55" x="539.5" y="377"/><ellipse cx="554.5" cy="393" fill="#ADD1B2" rx="11" ry="11" style="stroke:#000000;stroke-width:1.0;"/><path d="M553.2969,393.875 L554.75,393.875 L554.75,393.9844 C554.75,394.3906 554.7813,394.5469 554.8594,394.7031 C555.0156,394.9531 555.2969,395.1094 555.5938,395.1094 C555.8438,395.1094 556.1094,394.9688 556.2656,394.75 C556.3906,394.5938 556.4219,394.4375 556.4219,393.9844 L556.4219,392.0625 C556.4219,391.9063 556.4219,391.8594 556.4063,391.7031 C556.3438,391.2344 556.0313,390.9219 555.5781,390.9219 C555.3281,390.9219 555.0625,391.0625 554.8906,391.2813 C554.7813,391.4531 554.75,391.6094 554.75,392.0625 L554.75,392.1875 L553.2969,392.1875 L553.2969,389.7813 L557.2813,389.7813 L557.2813,390.6406 C557.2813,391.0469 557.3125,391.2188 557.3906,391.375 C557.5625,391.625 557.8438,391.7813 558.125,391.7813 C558.3906,391.7813 558.6563,391.6406 558.8281,391.4219 C558.9375,391.25 558.9688,391.1094 558.9688,390.6406 L558.9688,388.0938 L551.3438,388.0938 C550.9063,388.0938 550.7813,388.1094 550.625,388.2031 C550.375,388.3594 550.2188,388.6563 550.2188,388.9375 C550.2188,389.2188 550.3594,389.4688 550.5781,389.6406 C550.7344,389.75 550.9219,389.7813 551.3438,389.7813 L551.5938,389.7813 L551.5938,396.2969 L551.3438,396.2969 C550.9375,396.2969 550.7813,396.3125 550.625,396.4219 C550.375,396.5938 550.2188,396.8594 550.2188,397.1563 C550.2188,397.4219 550.3594,397.6719 550.5781,397.8281 C550.7188,397.9531 550.9531,398 551.3438,398 L559.3438,398 L559.3438,395.4219 C559.3438,394.9844 559.3125,394.8438 559.2344,394.6875 C559.0625,394.4375 558.7813,394.2813 558.5,394.2813 C558.2344,394.2813 557.9688,394.3906 557.7969,394.6406 C557.6875,394.7969 557.6563,394.9375 557.6563,395.4219 L557.6563,396.2969 L553.2969,396.2969 L553.2969,393.875 Z " fill="#000000"/><text fill="#000000" font-family="sans-serif" font-size="12" lengthAdjust="spacing" textLength="23" x="568.5" y="397.1543">SDL</text><line style="stroke:#000000;stroke-width:1.5;" x1="540.5" x2="593.5" y1="409" y2="409"/><line style="stroke:#000000;stroke-width:1.5;" x1="540.5" x2="593.5" y1="417" y2="417"/><!--MD5=[6fa9e83d24a0aa7f86cfa762e1267e99]
class DirectX--><rect codeLine="43" fill="#F5F5F5" height="48" id="DirectX" style="stroke:#000000;stroke-width:1.5;" width="76" x="269" y="377"/><ellipse cx="284" cy="393" fill="#ADD1B2" rx="11" ry="11" style="stroke:#000000;stroke-width:1.0;"/><path d="M282.7969,393.875 L284.25,393.875 L284.25,393.9844 C284.25,394.3906 284.2813,394.5469 284.3594,394.7031 C284.5156,394.9531 284.7969,395.1094 285.0938,395.1094 C285.3438,395.1094 285.6094,394.9688 285.7656,394.75 C285.8906,394.5938 285.9219,394.4375 285.9219,393.9844 L285.9219,392.0625 C285.9219,391.9063 285.9219,391.8594 285.9063,391.7031 C285.8438,391.2344 285.5313,390.9219 285.0781,390.9219 C284.8281,390.9219 284.5625,391.0625 284.3906,391.2813 C284.2813,391.4531 284.25,391.6094 284.25,392.0625 L284.25,392.1875 L282.7969,392.1875 L282.7969,389.7813 L286.7813,389.7813 L286.7813,390.6406 C286.7813,391.0469 286.8125,391.2188 286.8906,391.375 C287.0625,391.625 287.3438,391.7813 287.625,391.7813 C287.8906,391.7813 288.1563,391.6406 288.3281,391.4219 C288.4375,391.25 288.4688,391.1094 288.4688,390.6406 L288.4688,388.0938 L280.8438,388.0938 C280.4063,388.0938 280.2813,388.1094 280.125,388.2031 C279.875,388.3594 279.7188,388.6563 279.7188,388.9375 C279.7188,389.2188 279.8594,389.4688 280.0781,389.6406 C280.2344,389.75 280.4219,389.7813 280.8438,389.7813 L281.0938,389.7813 L281.0938,396.2969 L280.8438,396.2969 C280.4375,396.2969 280.2813,396.3125 280.125,396.4219 C279.875,396.5938 279.7188,396.8594 279.7188,397.1563 C279.7188,397.4219 279.8594,397.6719 280.0781,397.8281 C280.2188,397.9531 280.4531,398 280.8438,398 L288.8438,398 L288.8438,395.4219 C288.8438,394.9844 288.8125,394.8438 288.7344,394.6875 C288.5625,394.4375 288.2813,394.2813 288,394.2813 C287.7344,394.2813 287.4688,394.3906 287.2969,394.6406 C287.1875,394.7969 287.1563,394.9375 287.1563,395.4219 L287.1563,396.2969 L282.7969,396.2969 L282.7969,393.875 Z " fill="#000000"/><text fill="#000000" font-family="sans-serif" font-size="12" lengthAdjust="spacing" textLength="44" x="298" y="397.1543">DirectX</text><line style="stroke:#000000;stroke-width:1.5;" x1="270" x2="344" y1="409" y2="409"/><line style="stroke:#000000;stroke-width:1.5;" x1="270" x2="344" y1="417" y2="417"/><!--MD5=[4bd7bb7fad39ce8caab281d6b99195bd]
class OpenGL--><rect codeLine="44" fill="#F5F5F5" height="48" id="OpenGL" style="stroke:#000000;stroke-width:1.5;" width="80" x="7" y="377"/><ellipse cx="22" cy="393" fill="#ADD1B2" rx="11" ry="11" style="stroke:#000000;stroke-width:1.0;"/><path d="M20.7969,393.875 L22.25,393.875 L22.25,393.9844 C22.25,394.3906 22.2813,394.5469 22.3594,394.7031 C22.5156,394.9531 22.7969,395.1094 23.0938,395.1094 C23.3438,395.1094 23.6094,394.9688 23.7656,394.75 C23.8906,394.5938 23.9219,394.4375 23.9219,393.9844 L23.9219,392.0625 C23.9219,391.9063 23.9219,391.8594 23.9063,391.7031 C23.8438,391.2344 23.5313,390.9219 23.0781,390.9219 C22.8281,390.9219 22.5625,391.0625 22.3906,391.2813 C22.2813,391.4531 22.25,391.6094 22.25,392.0625 L22.25,392.1875 L20.7969,392.1875 L20.7969,389.7813 L24.7813,389.7813 L24.7813,390.6406 C24.7813,391.0469 24.8125,391.2188 24.8906,391.375 C25.0625,391.625 25.3438,391.7813 25.625,391.7813 C25.8906,391.7813 26.1563,391.6406 26.3281,391.4219 C26.4375,391.25 26.4688,391.1094 26.4688,390.6406 L26.4688,388.0938 L18.8438,388.0938 C18.4063,388.0938 18.2813,388.1094 18.125,388.2031 C17.875,388.3594 17.7188,388.6563 17.7188,388.9375 C17.7188,389.2188 17.8594,389.4688 18.0781,389.6406 C18.2344,389.75 18.4219,389.7813 18.8438,389.7813 L19.0938,389.7813 L19.0938,396.2969 L18.8438,396.2969 C18.4375,396.2969 18.2813,396.3125 18.125,396.4219 C17.875,396.5938 17.7188,396.8594 17.7188,397.1563 C17.7188,397.4219 17.8594,397.6719 18.0781,397.8281 C18.2188,397.9531 18.4531,398 18.8438,398 L26.8438,398 L26.8438,395.4219 C26.8438,394.9844 26.8125,394.8438 26.7344,394.6875 C26.5625,394.4375 26.2813,394.2813 26,394.2813 C25.7344,394.2813 25.4688,394.3906 25.2969,394.6406 C25.1875,394.7969 25.1563,394.9375 25.1563,395.4219 L25.1563,396.2969 L20.7969,396.2969 L20.7969,393.875 Z " fill="#000000"/><text fill="#000000" font-family="sans-serif" font-size="12" lengthAdjust="spacing" textLength="48" x="36" y="397.1543">OpenGL</text><line style="stroke:#000000;stroke-width:1.5;" x1="8" x2="86" y1="409" y2="409"/><line style="stroke:#000000;stroke-width:1.5;" x1="8" x2="86" y1="417" y2="417"/><!--MD5=[4f7cdbbcb0614833a3cb3cd70f9a01d7]
class renderer_ogl--><rect fill="#F5F5F5" height="48" id="renderer_ogl" style="stroke:#000000;stroke-width:1.5;" width="111" x="122.5" y="377"/><ellipse cx="137.5" cy="393" fill="#ADD1B2" rx="11" ry="11" style="stroke:#000000;stroke-width:1.0;"/><path d="M139.8438,388.6719 C138.9063,388.2344 138.3125,388.0938 137.4375,388.0938 C134.8125,388.0938 132.8125,390.1719 132.8125,392.8906 L132.8125,394.0156 C132.8125,396.5938 134.9219,398.4844 137.8125,398.4844 C139.0313,398.4844 140.1875,398.1875 140.9375,397.6406 C141.5156,397.2344 141.8438,396.7813 141.8438,396.3906 C141.8438,395.9375 141.4531,395.5469 140.9844,395.5469 C140.7656,395.5469 140.5625,395.625 140.375,395.8125 C139.9219,396.2969 139.9219,396.2969 139.7344,396.3906 C139.3125,396.6563 138.625,396.7813 137.8594,396.7813 C135.8125,396.7813 134.5156,395.6875 134.5156,393.9844 L134.5156,392.8906 C134.5156,391.1094 135.7656,389.7969 137.5,389.7969 C138.0781,389.7969 138.6875,389.9531 139.1563,390.2031 C139.6406,390.4844 139.8125,390.7031 139.9063,391.1094 C139.9688,391.5156 140,391.6406 140.1406,391.7656 C140.2813,391.9063 140.5156,392.0156 140.7344,392.0156 C141,392.0156 141.2656,391.875 141.4375,391.6563 C141.5469,391.5 141.5781,391.3125 141.5781,390.8906 L141.5781,389.4688 C141.5781,389.0313 141.5625,388.9063 141.4688,388.75 C141.3125,388.4844 141.0313,388.3438 140.7344,388.3438 C140.4375,388.3438 140.2344,388.4375 140.0156,388.75 L139.8438,388.6719 Z " fill="#000000"/><text fill="#000000" font-family="sans-serif" font-size="12" lengthAdjust="spacing" textLength="79" x="151.5" y="397.1543">renderer_ogl</text><line style="stroke:#000000;stroke-width:1.5;" x1="123.5" x2="232.5" y1="409" y2="409"/><line style="stroke:#000000;stroke-width:1.5;" x1="123.5" x2="232.5" y1="417" y2="417"/><!--MD5=[0c978744059a7eb68590198d9fce8828]
class renderer_d3d9--><rect fill="#F5F5F5" height="48" id="renderer_d3d9" style="stroke:#000000;stroke-width:1.5;" width="124" x="380" y="377"/><ellipse cx="395" cy="393" fill="#ADD1B2" rx="11" ry="11" style="stroke:#000000;stroke-width:1.0;"/><path d="M397.3438,388.6719 C396.4063,388.2344 395.8125,388.0938 394.9375,388.0938 C392.3125,388.0938 390.3125,390.1719 390.3125,392.8906 L390.3125,394.0156 C390.3125,396.5938 392.4219,398.4844 395.3125,398.4844 C396.5313,398.4844 397.6875,398.1875 398.4375,397.6406 C399.0156,397.2344 399.3438,396.7813 399.3438,396.3906 C399.3438,395.9375 398.9531,395.5469 398.4844,395.5469 C398.2656,395.5469 398.0625,395.625 397.875,395.8125 C397.4219,396.2969 397.4219,396.2969 397.2344,396.3906 C396.8125,396.6563 396.125,396.7813 395.3594,396.7813 C393.3125,396.7813 392.0156,395.6875 392.0156,393.9844 L392.0156,392.8906 C392.0156,391.1094 393.2656,389.7969 395,389.7969 C395.5781,389.7969 396.1875,389.9531 396.6563,390.2031 C397.1406,390.4844 397.3125,390.7031 397.4063,391.1094 C397.4688,391.5156 397.5,391.6406 397.6406,391.7656 C397.7813,391.9063 398.0156,392.0156 398.2344,392.0156 C398.5,392.0156 398.7656,391.875 398.9375,391.6563 C399.0469,391.5 399.0781,391.3125 399.0781,390.8906 L399.0781,389.4688 C399.0781,389.0313 399.0625,388.9063 398.9688,388.75 C398.8125,388.4844 398.5313,388.3438 398.2344,388.3438 C397.9375,388.3438 397.7344,388.4375 397.5156,388.75 L397.3438,388.6719 Z " fill="#000000"/><text fill="#000000" font-family="sans-serif" font-size="12" lengthAdjust="spacing" textLength="92" x="409" y="397.1543">renderer_d3d9</text><line style="stroke:#000000;stroke-width:1.5;" x1="381" x2="503" y1="409" y2="409"/><line style="stroke:#000000;stroke-width:1.5;" x1="381" x2="503" y1="417" y2="417"/><!--MD5=[cac353306241a567ca72fcdbb9cb5eee]
class renderer_sdl2--><rect fill="#F5F5F5" height="48" id="renderer_sdl2" style="stroke:#000000;stroke-width:1.5;" width="118" x="630" y="377"/><ellipse cx="645" cy="393" fill="#ADD1B2" rx="11" ry="11" style="stroke:#000000;stroke-width:1.0;"/><path d="M647.3438,388.6719 C646.4063,388.2344 645.8125,388.0938 644.9375,388.0938 C642.3125,388.0938 640.3125,390.1719 640.3125,392.8906 L640.3125,394.0156 C640.3125,396.5938 642.4219,398.4844 645.3125,398.4844 C646.5313,398.4844 647.6875,398.1875 648.4375,397.6406 C649.0156,397.2344 649.3438,396.7813 649.3438,396.3906 C649.3438,395.9375 648.9531,395.5469 648.4844,395.5469 C648.2656,395.5469 648.0625,395.625 647.875,395.8125 C647.4219,396.2969 647.4219,396.2969 647.2344,396.3906 C646.8125,396.6563 646.125,396.7813 645.3594,396.7813 C643.3125,396.7813 642.0156,395.6875 642.0156,393.9844 L642.0156,392.8906 C642.0156,391.1094 643.2656,389.7969 645,389.7969 C645.5781,389.7969 646.1875,389.9531 646.6563,390.2031 C647.1406,390.4844 647.3125,390.7031 647.4063,391.1094 C647.4688,391.5156 647.5,391.6406 647.6406,391.7656 C647.7813,391.9063 648.0156,392.0156 648.2344,392.0156 C648.5,392.0156 648.7656,391.875 648.9375,391.6563 C649.0469,391.5 649.0781,391.3125 649.0781,390.8906 L649.0781,389.4688 C649.0781,389.0313 649.0625,388.9063 648.9688,388.75 C648.8125,388.4844 648.5313,388.3438 648.2344,388.3438 C647.9375,388.3438 647.7344,388.4375 647.5156,388.75 L647.3438,388.6719 Z " fill="#000000"/><text fill="#000000" font-family="sans-serif" font-size="12" lengthAdjust="spacing" textLength="86" x="659" y="397.1543">renderer_sdl2</text><line style="stroke:#000000;stroke-width:1.5;" x1="631" x2="747" y1="409" y2="409"/><line style="stroke:#000000;stroke-width:1.5;" x1="631" x2="747" y1="417" y2="417"/><!--MD5=[7d1eb5f4f242cafd916c0318e1427735]
reverse link osd_renderer to renderer_ogl--><path codeLine="46" d="M223,337.0541 C223,337.0541 223,376.9008 223,376.9008 " fill="none" id="osd_renderer-backto-renderer_ogl" style="stroke:#000000;stroke-width:1.0;"/><polygon fill="none" points="216,337.0542,223,317.054,230,337.0541,216,337.0542" style="stroke:#000000;stroke-width:1.0;"/><!--MD5=[0784206bf0d928e6f0d1c42f737fae57]
link OpenGL to renderer_ogl--><path codeLine="47" d="M87.0161,401 C98.1522,401 110.453,401 122.314,401 " fill="none" id="OpenGL-renderer_ogl" style="stroke:#000000;stroke-width:1.0;"/><!--MD5=[3c55a46c982b0fe8f767374b091ca731]
reverse link osd_renderer to renderer_d3d9--><path codeLine="48" d="M442,337.0541 C442,337.0541 442,376.9008 442,376.9008 " fill="none" id="osd_renderer-backto-renderer_d3d9" style="stroke:#000000;stroke-width:1.0;"/><polygon fill="none" points="435,337.0542,442,317.054,449,337.0541,435,337.0542" style="stroke:#000000;stroke-width:1.0;"/><!--MD5=[351c914d4a28b89a8ff57b11c086e4cd]
link DirectX to renderer_d3d9--><path codeLine="49" d="M345.324,401 C356.082,401 368.064,401 379.828,401 " fill="none" id="DirectX-renderer_d3d9" style="stroke:#000000;stroke-width:1.0;"/><!--MD5=[3495575551e38f818e7d7313fe052b96]
reverse link osd_renderer to renderer_sdl2--><path codeLine="50" d="M650.75,337.0541 C650.75,337.0541 650.75,376.9008 650.75,376.9008 " fill="none" id="osd_renderer-backto-renderer_sdl2" style="stroke:#000000;stroke-width:1.0;"/><polygon fill="none" points="643.75,337.0542,650.75,317.054,657.75,337.0541,643.75,337.0542" style="stroke:#000000;stroke-width:1.0;"/><!--MD5=[f1b0808ed3cad6289e317f38ea48a100]
link SDL to renderer_sdl2--><path codeLine="51" d="M594.684,401 C605.089,401 617.359,401 629.547,401 " fill="none" id="SDL-renderer_sdl2" style="stroke:#000000;stroke-width:1.0;"/><!--MD5=[db91dadce38bf059abbdc26f81d8de2d]
link osd_window to osd_renderer--><path codeLine="53" d="M418,132.133 C418,151.42 418,172.649 418,191.932 " fill="none" id="osd_window-osd_renderer" style="stroke:#000000;stroke-width:1.0;"/><!--MD5=[89efb57c2a4b600924cf73bcd654655d]
link render_primitive to osd_window--><path codeLine="54" d="M264.512,70 C283.701,70 303.783,70 322.859,70 " fill="none" id="render_primitive-osd_window" style="stroke:#000000;stroke-width:1.0;"/><!--MD5=[caa3b76deb3ef8051b164f604c97a2bf]
link render_primitive to primitive_type--><path codeLine="55" d="M122.5,125.508 C122.5,155.286 122.5,191.072 122.5,217.389 " fill="none" id="render_primitive-primitive_type" style="stroke:#000000;stroke-width:1.0;"/><!--MD5=[07aa60db622ff38a5d0c6ca91340dccb]
@startuml
skinparam Shadowing false
skinparam LineType ortho
skinparam ArrowColor black

skinparam class {
    BackgroundColor WhiteSmoke
    BorderColor black
}

enum primitive_type
{
	LINE
	QUAD
}

class render_primitive {
	+render_bounds bounds
	+primitive_type type
	+render_color color
	+render_texinfo texture
	+render_quad_texuv texcoords
}

class osd_renderer {
    -osd_window  m_window
    +osd_window assert_window()
    {abstract} +int create()
    {abstract} +render_primitive[] get_primitives()
    {abstract} +int draw(const int update)
    {static} +osd_renderer make_for_type(int mode, osd_window window, int extra_flags)
}

class osd_window {
    +HDC m_dc
    +render_primitive[] m_primlist
    +osd_renderer renderer()        
    {abstract} +render_target target()    
    {abstract} +running_machine machine()
    {abstract} +void update()    
}

entity SDL
entity DirectX
entity OpenGL

renderer_ogl -u-|> osd_renderer
renderer_ogl -l- OpenGL
renderer_d3d9 -u-|> osd_renderer
renderer_d3d9 -l- DirectX
renderer_sdl2 -u-|> osd_renderer
renderer_sdl2 -l- SDL

osd_renderer -u- osd_window
osd_window -l- render_primitive
render_primitive -d- primitive_type
@enduml

PlantUML version 1.2021.7(Sun May 23 12:40:07 UTC 2021)
(GPL source distribution)
Java Runtime: Java(TM) SE Runtime Environment
JVM: Java HotSpot(TM) 64-Bit Server VM
Default Encoding: UTF-8
Language: en
Country: US
--></g></svg>